Grandstander-Black.ufo
<glyph name="exclam" format="2">
  <advance width="708"/>
  <unicode hex="0021"/>
  <outline>
    <contour>
      <point x="487" y="469" type="curve"/>
      <point x="498" y="708"/>
      <point x="556" y="1344"/>
      <point x="569" y="1454" type="curve"/>
      <point x="104" y="1473" type="line"/>
      <point x="104" y="1128"/>
      <point x="122" y="800"/>
      <point x="149" y="486" type="curve"/>
      <point x="234" y="476"/>
      <point x="412" y="469"/>
    </contour>
    <contour>
      <point x="332" y="-26" type="curve" smooth="yes"/>
      <point x="467" y="-26"/>
      <point x="569" y="64"/>
      <point x="569" y="208" type="curve" smooth="yes"/>
      <point x="569" y="327"/>
      <point x="461" y="415"/>
      <point x="328" y="415" type="curve" smooth="yes"/>
      <point x="193" y="415"/>
      <point x="86" y="334"/>
      <point x="86" y="203" type="curve" smooth="yes"/>
      <point x="86" y="69"/>
      <point x="194" y="-26"/>
    </contour>
  </outline>
</glyph>
<glyph name="quotedbl" format="2">
  <advance width="764"/>
  <unicode hex="0022"/>
  <outline>
    <contour>
      <point x="292" y="1010" type="curve"/>
      <point x="317" y="1112"/>
      <point x="334" y="1299"/>
      <point x="334" y="1385" type="curve" smooth="yes"/>
      <point x="334" y="1413"/>
      <point x="332" y="1435"/>
      <point x="328" y="1450" type="curve"/>
      <point x="292" y="1455"/>
      <point x="252" y="1457"/>
      <point x="211" y="1457" type="curve" smooth="yes"/>
      <point x="142" y="1457"/>
      <point x="86" y="1451"/>
      <point x="16" y="1439" type="curve"/>
      <point x="16" y="1359"/>
      <point x="35" y="1173"/>
      <point x="75" y="1032" type="curve"/>
      <point x="138" y="1019"/>
      <point x="221" y="1010"/>
    </contour>
    <contour>
      <point x="409" y="1017" type="curve"/>
      <point x="446" y="1017"/>
      <point x="524" y="1022"/>
      <point x="640" y="1037" type="curve"/>
      <point x="666" y="1114"/>
      <point x="708" y="1308"/>
      <point x="708" y="1390" type="curve" smooth="yes"/>
      <point x="708" y="1414"/>
      <point x="707" y="1433"/>
      <point x="706" y="1439" type="curve"/>
      <point x="617" y="1451"/>
      <point x="504" y="1456"/>
      <point x="386" y="1456" type="curve"/>
      <point x="385" y="1447"/>
      <point x="385" y="1435"/>
      <point x="385" y="1420" type="curve" smooth="yes"/>
      <point x="385" y="1324"/>
      <point x="399" y="1095"/>
    </contour>
  </outline>
</glyph>
<glyph name="numbersign" format="2">
  <advance width="1511"/>
  <unicode hex="0023"/>
  <outline>
    <contour>
      <point x="41" y="790" type="curve"/>
      <point x="262" y="796"/>
      <point x="598" y="808"/>
      <point x="927" y="821" type="curve" smooth="yes"/>
      <point x="1129" y="829"/>
      <point x="1333" y="840"/>
      <point x="1497" y="850" type="curve"/>
      <point x="1506" y="896"/>
      <point x="1520" y="1130"/>
      <point x="1520" y="1176" type="curve"/>
      <point x="1318" y="1171"/>
      <point x="1038" y="1158"/>
      <point x="749" y="1142" type="curve" smooth="yes"/>
      <point x="510" y="1129"/>
      <point x="206" y="1112"/>
      <point x="54" y="1103" type="curve"/>
      <point x="52" y="1081"/>
      <point x="41" y="864"/>
    </contour>
    <contour>
      <point x="1397" y="345" type="curve"/>
      <point x="1407" y="391"/>
      <point x="1439" y="622"/>
      <point x="1439" y="668" type="curve"/>
      <point x="1259" y="683"/>
      <point x="1068" y="689"/>
      <point x="879" y="689" type="curve" smooth="yes"/>
      <point x="741" y="689"/>
      <point x="605" y="687"/>
      <point x="473" y="682" type="curve" smooth="yes"/>
      <point x="318" y="676"/>
      <point x="170" y="669"/>
      <point x="36" y="662" type="curve"/>
      <point x="31" y="632"/>
      <point x="14" y="419"/>
      <point x="14" y="378" type="curve"/>
      <point x="117" y="386"/>
      <point x="236" y="389"/>
      <point x="364" y="389" type="curve" smooth="yes"/>
      <point x="493" y="389"/>
      <point x="632" y="386"/>
      <point x="771" y="380" type="curve" smooth="yes"/>
      <point x="986" y="371"/>
      <point x="1204" y="358"/>
    </contour>
    <contour>
      <point x="298" y="21" type="curve"/>
      <point x="360" y="21"/>
      <point x="611" y="39"/>
      <point x="657" y="48" type="curve"/>
      <point x="657" y="515"/>
      <point x="698" y="1175"/>
      <point x="721" y="1475" type="curve"/>
      <point x="602" y="1475"/>
      <point x="420" y="1472"/>
      <point x="386" y="1465" type="curve"/>
      <point x="344" y="1150"/>
      <point x="298" y="668"/>
    </contour>
    <contour>
      <point x="858" y="51" type="curve"/>
      <point x="904" y="51"/>
      <point x="1168" y="91"/>
      <point x="1215" y="101" type="curve"/>
      <point x="1178" y="421"/>
      <point x="1156" y="801"/>
      <point x="1156" y="1132" type="curve" smooth="yes"/>
      <point x="1156" y="1258"/>
      <point x="1159" y="1376"/>
      <point x="1166" y="1482" type="curve"/>
      <point x="1125" y="1482"/>
      <point x="894" y="1467"/>
      <point x="865" y="1462" type="curve"/>
      <point x="845" y="1228"/>
      <point x="836" y="985"/>
      <point x="836" y="740" type="curve" smooth="yes"/>
      <point x="836" y="510"/>
      <point x="844" y="278"/>
    </contour>
  </outline>
</glyph>
<glyph name="dollar" format="2">
  <advance width="1027"/>
  <unicode hex="0024"/>
  <anchor x="554" y="57" name="bottom"/>
  <anchor x="554" y="1251" name="top"/>
  <outline>
    <contour>
      <point x="692" y="-82" type="line"/>
      <point x="692" y="-10"/>
      <point x="689" y="118"/>
      <point x="687" y="162" type="curve"/>
      <point x="352" y="181" type="line"/>
      <point x="345" y="147"/>
      <point x="326" y="-60"/>
      <point x="326" y="-91" type="curve"/>
    </contour>
    <contour>
      <point x="366" y="1198" type="curve"/>
      <point x="667" y="1200" type="line"/>
      <point x="667" y="1259"/>
      <point x="667" y="1380"/>
      <point x="665" y="1422" type="curve"/>
      <point x="378" y="1409" type="line"/>
      <point x="374" y="1374"/>
      <point x="368" y="1243"/>
    </contour>
    <component base="s" xOffset="50" yOffset="127"/>
  </outline>
</glyph>
<glyph name="percent" format="2">
  <advance width="1385"/>
  <unicode hex="0025"/>
  <outline>
    <contour>
      <point x="184" y="-48" type="curve"/>
      <point x="480" y="241"/>
      <point x="969" y="764"/>
      <point x="1301" y="1255" type="curve"/>
      <point x="1261" y="1313"/>
      <point x="1173" y="1411"/>
      <point x="1087" y="1450" type="curve"/>
      <point x="807" y="1018"/>
      <point x="278" y="397"/>
      <point x="-30" y="108" type="curve"/>
      <point x="15" y="68"/>
      <point x="139" y="-18"/>
    </contour>
    <contour>
      <point x="1038" y="302" type="curve" smooth="yes"/>
      <point x="987" y="302"/>
      <point x="958" y="336"/>
      <point x="958" y="388" type="curve" smooth="yes"/>
      <point x="958" y="439"/>
      <point x="1006" y="461"/>
      <point x="1050" y="461" type="curve" smooth="yes"/>
      <point x="1089" y="461"/>
      <point x="1128" y="441"/>
      <point x="1128" y="383" type="curve" smooth="yes"/>
      <point x="1128" y="332"/>
      <point x="1073" y="302"/>
    </contour>
    <contour>
      <point x="1012" y="85" type="curve" smooth="yes"/>
      <point x="1223" y="85"/>
      <point x="1341" y="188"/>
      <point x="1341" y="383" type="curve" smooth="yes"/>
      <point x="1341" y="557"/>
      <point x="1222" y="663"/>
      <point x="1050" y="663" type="curve" smooth="yes"/>
      <point x="852" y="663"/>
      <point x="735" y="519"/>
      <point x="735" y="338" type="curve" smooth="yes"/>
      <point x="735" y="160"/>
      <point x="872" y="85"/>
    </contour>
    <contour>
      <point x="316" y="726" type="curve" smooth="yes"/>
      <point x="487" y="726"/>
      <point x="643" y="858"/>
      <point x="643" y="1041" type="curve" smooth="yes"/>
      <point x="643" y="1236"/>
      <point x="521" y="1352"/>
      <point x="333" y="1352" type="curve" smooth="yes"/>
      <point x="134" y="1352"/>
      <point x="-6" y="1214"/>
      <point x="-6" y="1018" type="curve" smooth="yes"/>
      <point x="-6" y="845"/>
      <point x="137" y="726"/>
    </contour>
    <contour>
      <point x="324" y="971" type="curve" smooth="yes"/>
      <point x="287" y="971"/>
      <point x="239" y="990"/>
      <point x="239" y="1043" type="curve" smooth="yes"/>
      <point x="239" y="1100"/>
      <point x="264" y="1138"/>
      <point x="328" y="1138" type="curve" smooth="yes"/>
      <point x="386" y="1138"/>
      <point x="412" y="1102"/>
      <point x="412" y="1058" type="curve" smooth="yes"/>
      <point x="412" y="991"/>
      <point x="380" y="971"/>
    </contour>
  </outline>
</glyph>
<glyph name="ampersand" format="2">
  <advance width="1395"/>
  <unicode hex="0026"/>
  <outline>
    <contour>
      <point x="556" y="-90" type="curve" smooth="yes"/>
      <point x="797" y="-90"/>
      <point x="964" y="26"/>
      <point x="1034" y="112" type="curve"/>
      <point x="1071" y="63"/>
      <point x="1127" y="-11"/>
      <point x="1163" y="-57" type="curve"/>
      <point x="1240" y="-11"/>
      <point x="1325" y="84"/>
      <point x="1378" y="163" type="curve"/>
      <point x="1329" y="217"/>
      <point x="1274" y="272"/>
      <point x="1221" y="324" type="curve"/>
      <point x="1260" y="363"/>
      <point x="1330" y="438"/>
      <point x="1349" y="487" type="curve"/>
      <point x="1293" y="547"/>
      <point x="1181" y="637"/>
      <point x="1119" y="666" type="curve"/>
      <point x="1105" y="637"/>
      <point x="1050" y="558"/>
      <point x="1021" y="532" type="curve"/>
      <point x="916" y="652"/>
      <point x="837" y="742"/>
      <point x="778" y="804" type="curve"/>
      <point x="895" y="906"/>
      <point x="956" y="982"/>
      <point x="956" y="1126" type="curve" smooth="yes"/>
      <point x="956" y="1313"/>
      <point x="786" y="1427"/>
      <point x="596" y="1427" type="curve" smooth="yes"/>
      <point x="385" y="1427"/>
      <point x="197" y="1338"/>
      <point x="197" y="1120" type="curve" smooth="yes"/>
      <point x="197" y="977"/>
      <point x="296" y="879"/>
      <point x="339" y="839" type="curve"/>
      <point x="203" y="754"/>
      <point x="30" y="617"/>
      <point x="30" y="359" type="curve" smooth="yes"/>
      <point x="30" y="53"/>
      <point x="245" y="-90"/>
    </contour>
    <contour>
      <point x="566" y="196" type="curve" smooth="yes"/>
      <point x="455" y="196"/>
      <point x="384" y="250"/>
      <point x="384" y="367" type="curve" smooth="yes"/>
      <point x="384" y="489"/>
      <point x="436" y="579"/>
      <point x="536" y="654" type="curve"/>
      <point x="625" y="548"/>
      <point x="744" y="419"/>
      <point x="835" y="322" type="curve"/>
      <point x="783" y="261"/>
      <point x="664" y="196"/>
    </contour>
    <contour>
      <point x="575" y="979" type="curve"/>
      <point x="549" y="1005"/>
      <point x="512" y="1068"/>
      <point x="512" y="1125" type="curve" smooth="yes"/>
      <point x="512" y="1178"/>
      <point x="551" y="1195"/>
      <point x="582" y="1195" type="curve" smooth="yes"/>
      <point x="621" y="1195"/>
      <point x="655" y="1174"/>
      <point x="655" y="1128" type="curve" smooth="yes"/>
      <point x="655" y="1071"/>
      <point x="610" y="1004"/>
    </contour>
  </outline>
</glyph>
<glyph name="quotesingle" format="2">
  <advance width="462"/>
  <unicode hex="0027"/>
  <outline>
    <contour>
      <point x="390" y="1379" type="curve" smooth="yes"/>
      <point x="390" y="1411"/>
      <point x="389" y="1437"/>
      <point x="386" y="1451" type="curve"/>
      <point x="347" y="1456"/>
      <point x="306" y="1458"/>
      <point x="263" y="1458" type="curve" smooth="yes"/>
      <point x="193" y="1458"/>
      <point x="120" y="1452"/>
      <point x="48" y="1438" type="curve"/>
      <point x="48" y="1339"/>
      <point x="101" y="1049"/>
      <point x="128" y="975" type="curve"/>
      <point x="171" y="971"/>
      <point x="206" y="968"/>
      <point x="241" y="968" type="curve" smooth="yes"/>
      <point x="272" y="968"/>
      <point x="304" y="970"/>
      <point x="347" y="974" type="curve"/>
      <point x="375" y="1084"/>
      <point x="390" y="1271"/>
    </contour>
  </outline>
</glyph>
<glyph name="parenleft" format="2">
  <advance width="677"/>
  <unicode hex="0028"/>
  <outline>
    <contour>
      <point x="327" y="-548" type="curve"/>
      <point x="405" y="-513"/>
      <point x="588" y="-401"/>
      <point x="653" y="-353" type="curve"/>
      <point x="496" y="-148"/>
      <point x="404" y="201"/>
      <point x="404" y="540" type="curve" smooth="yes"/>
      <point x="404" y="878"/>
      <point x="527" y="1225"/>
      <point x="644" y="1480" type="curve"/>
      <point x="556" y="1524"/>
      <point x="411" y="1570"/>
      <point x="262" y="1590" type="curve"/>
      <point x="115" y="1361"/>
      <point x="7" y="963"/>
      <point x="7" y="562" type="curve" smooth="yes"/>
      <point x="7" y="126"/>
      <point x="129" y="-314"/>
    </contour>
  </outline>
</glyph>
<glyph name="parenright" format="2">
  <advance width="651"/>
  <unicode hex="0029"/>
  <outline>
    <contour>
      <point x="241" y="634" type="curve" smooth="yes"/>
      <point x="241" y="163"/>
      <point x="144" y="-163"/>
      <point x="15" y="-331" type="curve"/>
      <point x="66" y="-384"/>
      <point x="245" y="-491"/>
      <point x="325" y="-518" type="curve"/>
      <point x="513" y="-298"/>
      <point x="647" y="216"/>
      <point x="647" y="576" type="curve" smooth="yes"/>
      <point x="647" y="925"/>
      <point x="548" y="1370"/>
      <point x="359" y="1595" type="curve"/>
      <point x="245" y="1571"/>
      <point x="102" y="1526"/>
      <point x="1" y="1470" type="curve"/>
      <point x="159" y="1262"/>
      <point x="241" y="904"/>
    </contour>
  </outline>
</glyph>
<glyph name="asterisk" format="2">
  <advance width="969"/>
  <unicode hex="002A"/>
  <outline>
    <contour>
      <point x="791" y="915" type="curve"/>
      <point x="814" y="947"/>
      <point x="925" y="1115"/>
      <point x="940" y="1154" type="curve"/>
      <point x="844" y="1207"/>
      <point x="656" y="1282"/>
      <point x="574" y="1308" type="curve"/>
      <point x="482" y="1371"/>
      <point x="234" y="1512"/>
      <point x="149" y="1556" type="curve"/>
      <point x="121" y="1521"/>
      <point x="27" y="1369"/>
      <point x="10" y="1326" type="curve"/>
      <point x="113" y="1274"/>
      <point x="362" y="1174"/>
      <point x="463" y="1138" type="curve"/>
      <point x="541" y="1073"/>
      <point x="712" y="957"/>
    </contour>
    <contour>
      <point x="491" y="833" type="curve" smooth="yes"/>
      <point x="554" y="833"/>
      <point x="616" y="838"/>
      <point x="637" y="842" type="curve"/>
      <point x="634" y="931"/>
      <point x="615" y="1151"/>
      <point x="605" y="1250" type="curve"/>
      <point x="616" y="1329"/>
      <point x="627" y="1482"/>
      <point x="627" y="1602" type="curve"/>
      <point x="605" y="1606"/>
      <point x="547" y="1609"/>
      <point x="488" y="1609" type="curve" smooth="yes"/>
      <point x="429" y="1609"/>
      <point x="369" y="1606"/>
      <point x="347" y="1602" type="curve"/>
      <point x="353" y="1521"/>
      <point x="367" y="1362"/>
      <point x="379" y="1250" type="curve"/>
      <point x="364" y="1118"/>
      <point x="345" y="937"/>
      <point x="345" y="842" type="curve"/>
      <point x="366" y="838"/>
      <point x="429" y="833"/>
    </contour>
    <contour>
      <point x="182" y="882" type="curve"/>
      <point x="286" y="940"/>
      <point x="422" y="1027"/>
      <point x="521" y="1091" type="curve"/>
      <point x="619" y="1135"/>
      <point x="866" y="1265"/>
      <point x="959" y="1318" type="curve"/>
      <point x="941" y="1361"/>
      <point x="846" y="1518"/>
      <point x="818" y="1553" type="curve"/>
      <point x="733" y="1503"/>
      <point x="544" y="1371"/>
      <point x="461" y="1308" type="curve"/>
      <point x="364" y="1271"/>
      <point x="133" y="1181"/>
      <point x="37" y="1128" type="curve"/>
      <point x="52" y="1089"/>
      <point x="160" y="915"/>
    </contour>
  </outline>
</glyph>
<glyph name="plus" format="2">
  <advance width="1050"/>
  <unicode hex="002B"/>
  <outline>
    <contour>
      <point x="999" y="542" type="curve"/>
      <point x="1004" y="574"/>
      <point x="1022" y="770"/>
      <point x="1022" y="904" type="curve"/>
      <point x="926" y="887"/>
      <point x="714" y="880"/>
      <point x="505" y="880" type="curve" smooth="yes"/>
      <point x="300" y="880"/>
      <point x="98" y="887"/>
      <point x="14" y="897" type="curve"/>
      <point x="14" y="858"/>
      <point x="25" y="617"/>
      <point x="34" y="569" type="curve"/>
      <point x="192" y="546"/>
      <point x="493" y="528"/>
      <point x="728" y="528" type="curve" smooth="yes"/>
      <point x="843" y="528"/>
      <point x="941" y="532"/>
    </contour>
    <contour>
      <point x="705" y="1183" type="curve"/>
      <point x="672" y="1183"/>
      <point x="359" y="1169"/>
      <point x="318" y="1166" type="curve"/>
      <point x="341" y="1048"/>
      <point x="380" y="700"/>
      <point x="380" y="436" type="curve" smooth="yes"/>
      <point x="380" y="377"/>
      <point x="378" y="321"/>
      <point x="373" y="274" type="curve"/>
      <point x="412" y="269"/>
      <point x="665" y="260"/>
      <point x="711" y="260" type="curve"/>
      <point x="735" y="373"/>
      <point x="744" y="537"/>
      <point x="744" y="687" type="curve" smooth="yes"/>
      <point x="744" y="901"/>
      <point x="726" y="1108"/>
    </contour>
  </outline>
</glyph>
<glyph name="comma" format="2">
  <advance width="667"/>
  <unicode hex="002C"/>
  <outline>
    <contour>
      <point x="348" y="-346" type="curve"/>
      <point x="502" y="-244"/>
      <point x="604" y="-90"/>
      <point x="604" y="114" type="curve" smooth="yes"/>
      <point x="604" y="308"/>
      <point x="458" y="374"/>
      <point x="331" y="374" type="curve" smooth="yes"/>
      <point x="208" y="374"/>
      <point x="55" y="315"/>
      <point x="55" y="159" type="curve" smooth="yes"/>
      <point x="55" y="58"/>
      <point x="123" y="-38"/>
      <point x="221" y="-38" type="curve" smooth="yes"/>
      <point x="269" y="-38"/>
      <point x="297" y="-30"/>
      <point x="318" y="-19" type="curve"/>
      <point x="319" y="-20"/>
      <point x="320" y="-23"/>
      <point x="320" y="-26" type="curve" smooth="yes"/>
      <point x="319" y="-57"/>
      <point x="229" y="-133"/>
      <point x="181" y="-150" type="curve"/>
      <point x="223" y="-222"/>
      <point x="319" y="-336"/>
    </contour>
  </outline>
</glyph>
<glyph name="hyphen" format="2">
  <advance width="933"/>
  <unicode hex="002D"/>
  <outline>
    <contour>
      <point x="894" y="844" type="curve"/>
      <point x="787" y="858"/>
      <point x="662" y="863"/>
      <point x="504" y="863" type="curve" smooth="yes"/>
      <point x="375" y="863"/>
      <point x="195" y="851"/>
      <point x="49" y="833" type="curve"/>
      <point x="37" y="785"/>
      <point x="20" y="572"/>
      <point x="20" y="479" type="curve"/>
      <point x="222" y="491"/>
      <point x="824" y="509"/>
      <point x="913" y="509" type="curve"/>
      <point x="913" y="601"/>
      <point x="912" y="740"/>
    </contour>
  </outline>
</glyph>
<glyph name="period" format="2">
  <advance width="632"/>
  <unicode hex="002E"/>
  <outline>
    <contour>
      <point x="279" y="414" type="curve" smooth="yes"/>
      <point x="150" y="414"/>
      <point x="38" y="315"/>
      <point x="38" y="190" type="curve" smooth="yes"/>
      <point x="38" y="55"/>
      <point x="157" y="-38"/>
      <point x="291" y="-38" type="curve" smooth="yes"/>
      <point x="407" y="-38"/>
      <point x="506" y="51"/>
      <point x="506" y="173" type="curve" smooth="yes"/>
      <point x="506" y="306"/>
      <point x="414" y="414"/>
    </contour>
  </outline>
</glyph>
<glyph name="slash" format="2">
  <advance width="969"/>
  <unicode hex="002F"/>
  <outline>
    <contour>
      <point x="706" y="1547" type="curve"/>
      <point x="569" y="1193"/>
      <point x="217" y="359"/>
      <point x="-26" y="-32" type="curve"/>
      <point x="38" y="-96"/>
      <point x="151" y="-166"/>
      <point x="262" y="-191" type="curve"/>
      <point x="510" y="154"/>
      <point x="805" y="750"/>
      <point x="995" y="1420" type="curve"/>
      <point x="950" y="1473"/>
      <point x="873" y="1513"/>
    </contour>
  </outline>
</glyph>
<glyph name="zero" format="2">
  <advance width="1087"/>
  <unicode hex="0030"/>
  <outline>
    <contour>
      <point x="542" y="-32" type="curve" smooth="yes"/>
      <point x="849" y="-32"/>
      <point x="1002" y="282"/>
      <point x="1002" y="646" type="curve" smooth="yes"/>
      <point x="1002" y="1044"/>
      <point x="878" y="1338"/>
      <point x="542" y="1338" type="curve" smooth="yes"/>
      <point x="189" y="1338"/>
      <point x="67" y="1056"/>
      <point x="67" y="722" type="curve" smooth="yes"/>
      <point x="67" y="322"/>
      <point x="203" y="-32"/>
    </contour>
    <contour>
      <point x="542" y="345" type="curve" smooth="yes"/>
      <point x="479" y="345"/>
      <point x="421" y="394"/>
      <point x="421" y="709" type="curve" smooth="yes"/>
      <point x="421" y="846"/>
      <point x="453" y="1005"/>
      <point x="542" y="1005" type="curve" smooth="yes"/>
      <point x="632" y="1005"/>
      <point x="663" y="842"/>
      <point x="663" y="700" type="curve" smooth="yes"/>
      <point x="663" y="463"/>
      <point x="610" y="345"/>
    </contour>
  </outline>
</glyph>
<glyph name="one" format="2">
  <advance width="809"/>
  <unicode hex="0031"/>
  <outline>
    <contour>
      <point x="556" y="318" type="curve"/>
      <point x="566" y="475"/>
      <point x="570" y="629"/>
      <point x="570" y="766" type="curve" smooth="yes"/>
      <point x="570" y="1061"/>
      <point x="560" y="1239"/>
      <point x="553" y="1294" type="curve"/>
      <point x="490" y="1305"/>
      <point x="349" y="1311"/>
      <point x="284" y="1311" type="curve"/>
      <point x="192" y="1232"/>
      <point x="40" y="1080"/>
      <point x="-3" y="1036" type="curve"/>
      <point x="42" y="947"/>
      <point x="117" y="831"/>
      <point x="166" y="776" type="curve"/>
      <point x="180" y="795"/>
      <point x="228" y="856"/>
      <point x="257" y="880" type="curve"/>
      <point x="247" y="776"/>
      <point x="231" y="405"/>
      <point x="231" y="303" type="curve"/>
      <point x="195" y="299"/>
      <point x="117" y="287"/>
      <point x="74" y="277" type="curve"/>
      <point x="70" y="213"/>
      <point x="69" y="54"/>
      <point x="69" y="-12" type="curve"/>
      <point x="142" y="-3"/>
      <point x="595" y="9"/>
      <point x="688" y="9" type="curve"/>
      <point x="697" y="62"/>
      <point x="706" y="260"/>
      <point x="706" y="303" type="curve"/>
      <point x="669" y="311"/>
      <point x="620" y="318"/>
    </contour>
  </outline>
</glyph>
<glyph name="two" format="2">
  <advance width="995"/>
  <unicode hex="0032"/>
  <outline>
    <contour>
      <point x="874" y="414" type="curve"/>
      <point x="750" y="405"/>
      <point x="614" y="387"/>
      <point x="533" y="376" type="curve"/>
      <point x="568" y="407"/>
      <point x="595" y="432"/>
      <point x="720" y="585" type="curve" smooth="yes"/>
      <point x="842" y="735"/>
      <point x="887" y="888"/>
      <point x="887" y="1015" type="curve" smooth="yes"/>
      <point x="887" y="1231"/>
      <point x="758" y="1364"/>
      <point x="544" y="1364" type="curve" smooth="yes"/>
      <point x="337" y="1364"/>
      <point x="120" y="1218"/>
      <point x="22" y="1031" type="curve"/>
      <point x="74" y="978"/>
      <point x="222" y="875"/>
      <point x="302" y="836" type="curve"/>
      <point x="343" y="915"/>
      <point x="436" y="1000"/>
      <point x="499" y="1000" type="curve" smooth="yes"/>
      <point x="517" y="1000"/>
      <point x="533" y="992"/>
      <point x="533" y="969" type="curve" smooth="yes"/>
      <point x="533" y="901"/>
      <point x="463" y="790"/>
      <point x="328" y="627" type="curve" smooth="yes"/>
      <point x="200" y="472"/>
      <point x="111" y="393"/>
      <point x="46" y="337" type="curve"/>
      <point x="50" y="221"/>
      <point x="99" y="5"/>
      <point x="104" y="-17" type="curve"/>
      <point x="909" y="27" type="line"/>
      <point x="909" y="70"/>
      <point x="904" y="340"/>
    </contour>
  </outline>
</glyph>
<glyph name="three" format="2">
  <advance width="1032"/>
  <unicode hex="0033"/>
  <outline>
    <contour>
      <point x="477" y="-3" type="curve" smooth="yes"/>
      <point x="720" y="-3"/>
      <point x="940" y="143"/>
      <point x="940" y="398" type="curve" smooth="yes"/>
      <point x="940" y="577"/>
      <point x="819" y="698"/>
      <point x="669" y="736" type="curve"/>
      <point x="791" y="776"/>
      <point x="875" y="898"/>
      <point x="875" y="1005" type="curve" smooth="yes"/>
      <point x="875" y="1213"/>
      <point x="691" y="1335"/>
      <point x="494" y="1335" type="curve" smooth="yes"/>
      <point x="219" y="1335"/>
      <point x="63" y="1190"/>
      <point x="26" y="1137" type="curve"/>
      <point x="34" y="1126"/>
      <point x="142" y="1014"/>
      <point x="255" y="925" type="curve"/>
      <point x="281" y="954"/>
      <point x="380" y="1024"/>
      <point x="450" y="1024" type="curve" smooth="yes"/>
      <point x="492" y="1024"/>
      <point x="513" y="999"/>
      <point x="513" y="960" type="curve" smooth="yes"/>
      <point x="513" y="874"/>
      <point x="371" y="802"/>
      <point x="250" y="802" type="curve"/>
      <point x="250" y="690"/>
      <point x="267" y="585"/>
      <point x="280" y="544" type="curve"/>
      <point x="470" y="544"/>
      <point x="589" y="485"/>
      <point x="589" y="379" type="curve" smooth="yes"/>
      <point x="589" y="318"/>
      <point x="549" y="292"/>
      <point x="487" y="292" type="curve" smooth="yes"/>
      <point x="410" y="292"/>
      <point x="384" y="336"/>
      <point x="356" y="392" type="curve"/>
      <point x="265" y="361"/>
      <point x="121" y="297"/>
      <point x="44" y="243" type="curve"/>
      <point x="111" y="75"/>
      <point x="256" y="-3"/>
    </contour>
  </outline>
</glyph>
<glyph name="four" format="2">
  <advance width="1104"/>
  <unicode hex="0034"/>
  <outline>
    <contour>
      <point x="1005" y="289" type="curve"/>
      <point x="1005" y="385"/>
      <point x="990" y="571"/>
      <point x="986" y="590" type="curve"/>
      <point x="969" y="591"/>
      <point x="896" y="593"/>
      <point x="848" y="593" type="curve"/>
      <point x="848" y="870"/>
      <point x="863" y="1243"/>
      <point x="870" y="1342" type="curve"/>
      <point x="782" y="1342"/>
      <point x="585" y="1326"/>
      <point x="537" y="1318" type="curve"/>
      <point x="492" y="1255"/>
      <point x="183" y="747"/>
      <point x="56" y="538" type="curve"/>
      <point x="70" y="427"/>
      <point x="88" y="335"/>
      <point x="111" y="232" type="curve"/>
      <point x="165" y="238"/>
      <point x="399" y="260"/>
      <point x="516" y="267" type="curve"/>
      <point x="503" y="118"/>
      <point x="494" y="12"/>
      <point x="494" y="-10" type="curve"/>
      <point x="557" y="-10"/>
      <point x="767" y="5"/>
      <point x="848" y="22" type="curve"/>
      <point x="845" y="85"/>
      <point x="844" y="169"/>
      <point x="844" y="287" type="curve"/>
      <point x="903" y="289"/>
      <point x="948" y="289"/>
    </contour>
    <contour>
      <point x="598" y="945" type="curve"/>
      <point x="585" y="863"/>
      <point x="559" y="621"/>
      <point x="557" y="579" type="curve"/>
      <point x="492" y="579"/>
      <point x="405" y="568"/>
      <point x="378" y="564" type="curve"/>
      <point x="409" y="624"/>
      <point x="528" y="827"/>
    </contour>
  </outline>
</glyph>
<glyph name="five" format="2">
  <advance width="1137"/>
  <unicode hex="0035"/>
  <outline>
    <contour>
      <point x="-3" y="250" type="curve"/>
      <point x="111" y="67"/>
      <point x="337" y="-2"/>
      <point x="516" y="-2" type="curve" smooth="yes"/>
      <point x="814" y="-2"/>
      <point x="1049" y="197"/>
      <point x="1049" y="497" type="curve" smooth="yes"/>
      <point x="1049" y="733"/>
      <point x="899" y="942"/>
      <point x="663" y="942" type="curve" smooth="yes"/>
      <point x="574" y="942"/>
      <point x="493" y="909"/>
      <point x="468" y="869" type="curve"/>
      <point x="468" y="913"/>
      <point x="468" y="950"/>
      <point x="470" y="979" type="curve"/>
      <point x="583" y="998"/>
      <point x="844" y="1026"/>
      <point x="958" y="1026" type="curve"/>
      <point x="958" y="1159"/>
      <point x="904" y="1315"/>
      <point x="897" y="1333" type="curve"/>
      <point x="698" y="1316"/>
      <point x="223" y="1238"/>
      <point x="71" y="1204" type="curve"/>
      <point x="93" y="1025"/>
      <point x="107" y="808"/>
      <point x="107" y="569" type="curve"/>
      <point x="134" y="567"/>
      <point x="216" y="566"/>
      <point x="271" y="566" type="curve" smooth="yes"/>
      <point x="332" y="566"/>
      <point x="401" y="571"/>
      <point x="443" y="577" type="curve"/>
      <point x="448" y="626"/>
      <point x="497" y="674"/>
      <point x="582" y="674" type="curve" smooth="yes"/>
      <point x="683" y="674"/>
      <point x="715" y="593"/>
      <point x="715" y="521" type="curve" smooth="yes"/>
      <point x="715" y="395"/>
      <point x="642" y="321"/>
      <point x="520" y="321" type="curve" smooth="yes"/>
      <point x="412" y="321"/>
      <point x="311" y="391"/>
      <point x="264" y="482" type="curve"/>
      <point x="214" y="456"/>
      <point x="53" y="333"/>
    </contour>
  </outline>
</glyph>
<glyph name="six" format="2">
  <advance width="1154"/>
  <unicode hex="0036"/>
  <outline>
    <contour>
      <point x="880" y="1125" type="curve"/>
      <point x="858" y="1226"/>
      <point x="766" y="1358"/>
      <point x="713" y="1400" type="curve"/>
      <point x="350" y="1298"/>
      <point x="69" y="963"/>
      <point x="69" y="529" type="curve" smooth="yes"/>
      <point x="69" y="208"/>
      <point x="243" y="-9"/>
      <point x="554" y="-9" type="curve" smooth="yes"/>
      <point x="827" y="-9"/>
      <point x="1062" y="176"/>
      <point x="1062" y="467" type="curve" smooth="yes"/>
      <point x="1062" y="710"/>
      <point x="934" y="841"/>
      <point x="714" y="841" type="curve" smooth="yes"/>
      <point x="611" y="841"/>
      <point x="493" y="812"/>
      <point x="427" y="752" type="curve"/>
      <point x="511" y="950"/>
      <point x="744" y="1099"/>
    </contour>
    <contour>
      <point x="474" y="496" type="curve" smooth="yes"/>
      <point x="504" y="530"/>
      <point x="557" y="550"/>
      <point x="615" y="550" type="curve" smooth="yes"/>
      <point x="677" y="550"/>
      <point x="727" y="513"/>
      <point x="727" y="445" type="curve" smooth="yes"/>
      <point x="727" y="376"/>
      <point x="665" y="316"/>
      <point x="578" y="316" type="curve" smooth="yes"/>
      <point x="503" y="316"/>
      <point x="448" y="355"/>
      <point x="448" y="421" type="curve" smooth="yes"/>
      <point x="448" y="445"/>
      <point x="457" y="477"/>
    </contour>
  </outline>
</glyph>
<glyph name="seven" format="2">
  <advance width="1012"/>
  <unicode hex="0037"/>
  <outline>
    <contour>
      <point x="467" y="-52" type="curve"/>
      <point x="561" y="296"/>
      <point x="673" y="552"/>
      <point x="977" y="1068" type="curve"/>
      <point x="974" y="1101"/>
      <point x="934" y="1344"/>
      <point x="926" y="1379" type="curve"/>
      <point x="753" y="1379"/>
      <point x="355" y="1325"/>
      <point x="78" y="1262" type="curve"/>
      <point x="78" y="1183"/>
      <point x="100" y="950"/>
      <point x="114" y="892" type="curve"/>
      <point x="171" y="910"/>
      <point x="374" y="956"/>
      <point x="541" y="985" type="curve"/>
      <point x="326" y="715"/>
      <point x="171" y="402"/>
      <point x="52" y="83" type="curve"/>
      <point x="71" y="75"/>
      <point x="350" y="-18"/>
    </contour>
  </outline>
</glyph>
<glyph name="eight" format="2">
  <advance width="1243"/>
  <unicode hex="0038"/>
  <outline>
    <contour>
      <point x="616" y="-11" type="curve" smooth="yes"/>
      <point x="883" y="-11"/>
      <point x="1116" y="143"/>
      <point x="1116" y="380" type="curve" smooth="yes"/>
      <point x="1116" y="576"/>
      <point x="1007" y="671"/>
      <point x="885" y="689" type="curve"/>
      <point x="1012" y="735"/>
      <point x="1068" y="868"/>
      <point x="1068" y="1014" type="curve" smooth="yes"/>
      <point x="1068" y="1256"/>
      <point x="875" y="1375"/>
      <point x="628" y="1375" type="curve" smooth="yes"/>
      <point x="325" y="1375"/>
      <point x="80" y="1254"/>
      <point x="80" y="995" type="curve" smooth="yes"/>
      <point x="80" y="866"/>
      <point x="150" y="757"/>
      <point x="265" y="708" type="curve"/>
      <point x="134" y="641"/>
      <point x="42" y="533"/>
      <point x="42" y="377" type="curve" smooth="yes"/>
      <point x="42" y="103"/>
      <point x="293" y="-11"/>
    </contour>
    <contour>
      <point x="588" y="311" type="curve" smooth="yes"/>
      <point x="503" y="311"/>
      <point x="429" y="349"/>
      <point x="429" y="413" type="curve" smooth="yes"/>
      <point x="429" y="495"/>
      <point x="518" y="525"/>
      <point x="598" y="525" type="curve" smooth="yes"/>
      <point x="680" y="525"/>
      <point x="756" y="507"/>
      <point x="756" y="422" type="curve" smooth="yes"/>
      <point x="756" y="343"/>
      <point x="670" y="311"/>
    </contour>
    <contour>
      <point x="589" y="873" type="curve" smooth="yes"/>
      <point x="500" y="873"/>
      <point x="446" y="909"/>
      <point x="446" y="968" type="curve" smooth="yes"/>
      <point x="446" y="1030"/>
      <point x="498" y="1088"/>
      <point x="578" y="1088" type="curve" smooth="yes"/>
      <point x="650" y="1088"/>
      <point x="710" y="1059"/>
      <point x="710" y="988" type="curve" smooth="yes"/>
      <point x="710" y="937"/>
      <point x="671" y="873"/>
    </contour>
  </outline>
</glyph>
<glyph name="nine" format="2">
  <advance width="1067"/>
  <unicode hex="0039"/>
  <outline>
    <contour>
      <point x="916" y="30" type="curve"/>
      <point x="957" y="185"/>
      <point x="1029" y="524"/>
      <point x="1029" y="798" type="curve" smooth="yes"/>
      <point x="1029" y="1137"/>
      <point x="866" y="1364"/>
      <point x="533" y="1364" type="curve" smooth="yes"/>
      <point x="267" y="1364"/>
      <point x="21" y="1199"/>
      <point x="21" y="884" type="curve" smooth="yes"/>
      <point x="21" y="645"/>
      <point x="191" y="489"/>
      <point x="448" y="489" type="curve" smooth="yes"/>
      <point x="538" y="489"/>
      <point x="628" y="510"/>
      <point x="651" y="540" type="curve"/>
      <point x="634" y="301"/>
      <point x="506" y="51"/>
      <point x="477" y="0" type="curve"/>
      <point x="655" y="0"/>
      <point x="827" y="12"/>
    </contour>
    <contour>
      <point x="536" y="1080" type="curve" smooth="yes"/>
      <point x="607" y="1080"/>
      <point x="654" y="1037"/>
      <point x="654" y="975" type="curve" smooth="yes"/>
      <point x="654" y="881"/>
      <point x="603" y="819"/>
      <point x="500" y="819" type="curve" smooth="yes"/>
      <point x="420" y="819"/>
      <point x="377" y="875"/>
      <point x="377" y="941" type="curve" smooth="yes"/>
      <point x="377" y="1030"/>
      <point x="452" y="1080"/>
    </contour>
  </outline>
</glyph>
<glyph name="colon" format="2">
  <advance width="564"/>
  <unicode hex="003A"/>
  <outline>
    <contour>
      <point x="265" y="-10" type="curve" smooth="yes"/>
      <point x="386" y="-10"/>
      <point x="485" y="76"/>
      <point x="485" y="201" type="curve" smooth="yes"/>
      <point x="485" y="333"/>
      <point x="394" y="436"/>
      <point x="263" y="436" type="curve" smooth="yes"/>
      <point x="136" y="436"/>
      <point x="35" y="323"/>
      <point x="35" y="199" type="curve" smooth="yes"/>
      <point x="35" y="86"/>
      <point x="135" y="-10"/>
    </contour>
    <component base="period" xOffset="-15" yOffset="638"/>
  </outline>
</glyph>
<glyph name="semicolon" format="2">
  <advance width="593"/>
  <unicode hex="003B"/>
  <outline>
    <contour>
      <point x="270" y="1061" type="curve" smooth="yes"/>
      <point x="141" y="1061"/>
      <point x="29" y="962"/>
      <point x="29" y="837" type="curve" smooth="yes"/>
      <point x="29" y="702"/>
      <point x="148" y="609"/>
      <point x="282" y="609" type="curve" smooth="yes"/>
      <point x="398" y="609"/>
      <point x="497" y="698"/>
      <point x="497" y="820" type="curve" smooth="yes"/>
      <point x="497" y="953"/>
      <point x="405" y="1061"/>
    </contour>
    <contour>
      <point x="313" y="-330" type="curve"/>
      <point x="457" y="-234"/>
      <point x="553" y="-89"/>
      <point x="553" y="102" type="curve" smooth="yes"/>
      <point x="553" y="284"/>
      <point x="416" y="346"/>
      <point x="297" y="346" type="curve" smooth="yes"/>
      <point x="181" y="346"/>
      <point x="38" y="291"/>
      <point x="38" y="144" type="curve" smooth="yes"/>
      <point x="38" y="49"/>
      <point x="101" y="-41"/>
      <point x="193" y="-41" type="curve" smooth="yes"/>
      <point x="238" y="-41"/>
      <point x="265" y="-33"/>
      <point x="284" y="-23" type="curve"/>
      <point x="285" y="-24"/>
      <point x="286" y="-27"/>
      <point x="286" y="-29" type="curve" smooth="yes"/>
      <point x="285" y="-58"/>
      <point x="201" y="-130"/>
      <point x="156" y="-146" type="curve"/>
      <point x="195" y="-213"/>
      <point x="285" y="-320"/>
    </contour>
  </outline>
</glyph>
<glyph name="less" format="2">
  <advance width="807"/>
  <unicode hex="003C"/>
  <outline>
    <contour>
      <point x="609" y="1149" type="curve"/>
      <point x="524" y="1107"/>
      <point x="224" y="845"/>
      <point x="21" y="660" type="curve"/>
      <point x="17" y="368" type="line"/>
      <point x="236" y="301"/>
      <point x="439" y="216"/>
      <point x="638" y="128" type="curve"/>
      <point x="664" y="216"/>
      <point x="691" y="352"/>
      <point x="691" y="436" type="curve"/>
      <point x="617" y="498"/>
      <point x="350" y="597"/>
      <point x="290" y="617" type="curve"/>
      <point x="290" y="524" type="line"/>
      <point x="468" y="674"/>
      <point x="603" y="783"/>
      <point x="781" y="913" type="curve"/>
      <point x="757" y="986"/>
      <point x="694" y="1100"/>
    </contour>
  </outline>
</glyph>
<glyph name="equal" format="2">
  <advance width="1050"/>
  <unicode hex="003D"/>
  <outline>
    <contour>
      <point x="90" y="1103" type="curve"/>
      <point x="69" y="1068"/>
      <point x="55" y="866"/>
      <point x="55" y="801" type="curve"/>
      <point x="220" y="801"/>
      <point x="838" y="801"/>
      <point x="1021" y="801" type="curve"/>
      <point x="1021" y="840"/>
      <point x="999" y="1125"/>
      <point x="991" y="1173" type="curve"/>
      <point x="756" y="1173"/>
      <point x="234" y="1132"/>
    </contour>
    <contour>
      <point x="13" y="680" type="curve"/>
      <point x="13" y="614"/>
      <point x="22" y="410"/>
      <point x="31" y="374" type="curve"/>
      <point x="203" y="372"/>
      <point x="895" y="369"/>
      <point x="1026" y="369" type="curve"/>
      <point x="1026" y="408"/>
      <point x="1008" y="660"/>
      <point x="999" y="708" type="curve"/>
      <point x="934" y="712"/>
      <point x="854" y="714"/>
      <point x="767" y="714" type="curve" smooth="yes"/>
      <point x="531" y="714"/>
      <point x="237" y="700"/>
    </contour>
  </outline>
</glyph>
<glyph name="greater" format="2">
  <advance width="790"/>
  <unicode hex="003E"/>
  <outline>
    <contour>
      <point x="36" y="944" type="curve"/>
      <point x="135" y="871"/>
      <point x="383" y="699"/>
      <point x="447" y="655" type="curve"/>
      <point x="484" y="780" type="line"/>
      <point x="358" y="679"/>
      <point x="31" y="453"/>
      <point x="10" y="444" type="curve"/>
      <point x="10" y="402"/>
      <point x="67" y="203"/>
      <point x="104" y="169" type="curve"/>
      <point x="144" y="179"/>
      <point x="509" y="352"/>
      <point x="766" y="480" type="curve"/>
      <point x="757" y="831" type="line"/>
      <point x="573" y="963"/>
      <point x="311" y="1143"/>
      <point x="258" y="1157" type="curve"/>
      <point x="189" y="1121"/>
      <point x="91" y="1015"/>
    </contour>
  </outline>
</glyph>
<glyph name="question" format="2">
  <advance width="1036"/>
  <unicode hex="003F"/>
  <outline>
    <contour>
      <point x="699" y="468" type="curve"/>
      <point x="705" y="591"/>
      <point x="774" y="703"/>
      <point x="850" y="771" type="curve" smooth="yes"/>
      <point x="938" y="850"/>
      <point x="1012" y="926"/>
      <point x="1012" y="1108" type="curve" smooth="yes"/>
      <point x="1012" y="1354"/>
      <point x="786" y="1472"/>
      <point x="520" y="1472" type="curve" smooth="yes"/>
      <point x="267" y="1472"/>
      <point x="39" y="1340"/>
      <point x="-17" y="1115" type="curve"/>
      <point x="296" y="930" type="line"/>
      <point x="354" y="1073"/>
      <point x="435" y="1124"/>
      <point x="514" y="1124" type="curve" smooth="yes"/>
      <point x="560" y="1124"/>
      <point x="601" y="1101"/>
      <point x="601" y="1058" type="curve" smooth="yes"/>
      <point x="601" y="1011"/>
      <point x="554" y="965"/>
      <point x="491" y="907" type="curve" smooth="yes"/>
      <point x="365" y="791"/>
      <point x="284" y="669"/>
      <point x="284" y="487" type="curve"/>
      <point x="427" y="473"/>
      <point x="524" y="468"/>
    </contour>
    <contour>
      <point x="516" y="-10" type="curve" smooth="yes"/>
      <point x="645" y="-10"/>
      <point x="757" y="86"/>
      <point x="757" y="210" type="curve" smooth="yes"/>
      <point x="757" y="324"/>
      <point x="648" y="403"/>
      <point x="508" y="403" type="curve" smooth="yes"/>
      <point x="386" y="403"/>
      <point x="274" y="303"/>
      <point x="274" y="195" type="curve" smooth="yes"/>
      <point x="274" y="64"/>
      <point x="388" y="-10"/>
    </contour>
  </outline>
</glyph>
<glyph name="at" format="2">
  <advance width="1920"/>
  <unicode hex="0040"/>
  <outline>
    <contour>
      <point x="834" y="-41" type="curve" smooth="yes"/>
      <point x="1116" y="-41"/>
      <point x="1350" y="34"/>
      <point x="1438" y="178" type="curve"/>
      <point x="1195" y="364" type="line"/>
      <point x="1137" y="296"/>
      <point x="1010" y="234"/>
      <point x="854" y="234" type="curve" smooth="yes"/>
      <point x="601" y="234"/>
      <point x="344" y="379"/>
      <point x="344" y="655" type="curve" smooth="yes"/>
      <point x="344" y="999"/>
      <point x="664" y="1213"/>
      <point x="1035" y="1213" type="curve" smooth="yes"/>
      <point x="1330" y="1213"/>
      <point x="1525" y="1032"/>
      <point x="1525" y="747" type="curve" smooth="yes"/>
      <point x="1525" y="673"/>
      <point x="1507" y="617"/>
      <point x="1461" y="617" type="curve" smooth="yes"/>
      <point x="1430" y="617"/>
      <point x="1405" y="630"/>
      <point x="1393" y="687" type="curve" smooth="yes"/>
      <point x="1388" y="711"/>
      <point x="1350" y="902"/>
      <point x="1308" y="1116" type="curve"/>
      <point x="1247" y="1113"/>
      <point x="1118" y="1108"/>
      <point x="1072" y="1108" type="curve"/>
      <point x="1073" y="1094"/>
      <point x="1077" y="1056"/>
      <point x="1082" y="1034" type="curve"/>
      <point x="1036" y="1079"/>
      <point x="965" y="1089"/>
      <point x="875" y="1089" type="curve" smooth="yes"/>
      <point x="650" y="1089"/>
      <point x="480" y="912"/>
      <point x="480" y="694" type="curve" smooth="yes"/>
      <point x="480" y="477"/>
      <point x="623" y="350"/>
      <point x="854" y="350" type="curve" smooth="yes"/>
      <point x="993" y="350"/>
      <point x="1147" y="391"/>
      <point x="1205" y="485" type="curve"/>
      <point x="1243" y="398"/>
      <point x="1359" y="337"/>
      <point x="1480" y="337" type="curve" smooth="yes"/>
      <point x="1720" y="337"/>
      <point x="1843" y="501"/>
      <point x="1843" y="729" type="curve" smooth="yes"/>
      <point x="1843" y="1200"/>
      <point x="1508" y="1497"/>
      <point x="1016" y="1497" type="curve" smooth="yes"/>
      <point x="466" y="1497"/>
      <point x="-1" y="1165"/>
      <point x="-1" y="637" type="curve" smooth="yes"/>
      <point x="-1" y="194"/>
      <point x="376" y="-41"/>
    </contour>
    <contour>
      <point x="923" y="634" type="curve" smooth="yes"/>
      <point x="861" y="634"/>
      <point x="808" y="657"/>
      <point x="808" y="725" type="curve" smooth="yes"/>
      <point x="808" y="776"/>
      <point x="856" y="819"/>
      <point x="967" y="819" type="curve" smooth="yes"/>
      <point x="1027" y="819"/>
      <point x="1067" y="817"/>
      <point x="1094" y="807" type="curve"/>
      <point x="1113" y="721" type="line"/>
      <point x="1066" y="674"/>
      <point x="1003" y="634"/>
    </contour>
  </outline>
</glyph>
<glyph name="A" format="2">
  <advance width="1212"/>
  <unicode hex="0041"/>
  <anchor x="584" y="0" name="bottom"/>
  <anchor x="1177" y="7" name="ogonek"/>
  <anchor x="670" y="1327" name="top"/>
  <outline>
    <contour>
      <point x="442" y="-15" type="curve"/>
      <point x="450" y="57"/>
      <point x="471" y="178"/>
      <point x="497" y="291" type="curve"/>
      <point x="535" y="299"/>
      <point x="639" y="306"/>
      <point x="745" y="308" type="curve"/>
      <point x="745" y="190"/>
      <point x="746" y="80"/>
      <point x="752" y="-15" type="curve"/>
      <point x="879" y="-15"/>
      <point x="1097" y="-4"/>
      <point x="1177" y="7" type="curve"/>
      <point x="1116" y="783"/>
      <point x="1058" y="1089"/>
      <point x="1006" y="1323" type="curve"/>
      <point x="924" y="1333"/>
      <point x="845" y="1338"/>
      <point x="763" y="1338" type="curve" smooth="yes"/>
      <point x="635" y="1338"/>
      <point x="499" y="1327"/>
      <point x="328" y="1306" type="curve"/>
      <point x="223" y="940"/>
      <point x="64" y="271"/>
      <point x="17" y="-2" type="curve"/>
      <point x="123" y="-7"/>
      <point x="367" y="-15"/>
    </contour>
    <contour>
      <point x="547" y="639" type="curve"/>
      <point x="553" y="691"/>
      <point x="591" y="911"/>
      <point x="608" y="995" type="curve"/>
      <point x="625" y="997"/>
      <point x="702" y="1002"/>
      <point x="727" y="1002" type="curve"/>
      <point x="727" y="976"/>
      <point x="735" y="692"/>
      <point x="737" y="651" type="curve"/>
      <point x="698" y="651"/>
      <point x="574" y="643"/>
    </contour>
  </outline>
</glyph>
<glyph name="B" format="2">
  <advance width="1174"/>
  <unicode hex="0042"/>
  <anchor x="587" y="0" name="bottom"/>
  <anchor x="587" y="1291" name="top"/>
  <outline>
    <contour>
      <point x="75" y="27" type="curve"/>
      <point x="146" y="10"/>
      <point x="257" y="2"/>
      <point x="372" y="2" type="curve" smooth="yes"/>
      <point x="822" y="2"/>
      <point x="1106" y="77"/>
      <point x="1106" y="444" type="curve" smooth="yes"/>
      <point x="1106" y="608"/>
      <point x="994" y="721"/>
      <point x="812" y="736" type="curve" smooth="yes"/>
      <point x="800" y="737"/>
      <point x="793" y="737"/>
      <point x="786" y="737" type="curve"/>
      <point x="877" y="752"/>
      <point x="1020" y="834"/>
      <point x="1020" y="1000" type="curve" smooth="yes"/>
      <point x="1020" y="1222"/>
      <point x="848" y="1306"/>
      <point x="602" y="1306" type="curve" smooth="yes"/>
      <point x="441" y="1306"/>
      <point x="233" y="1293"/>
      <point x="106" y="1285" type="curve"/>
      <point x="106" y="1256"/>
      <point x="75" y="209"/>
    </contour>
    <contour>
      <point x="484" y="373" type="curve"/>
      <point x="475" y="543" type="line"/>
      <point x="520" y="548"/>
      <point x="552" y="550"/>
      <point x="586" y="550" type="curve" smooth="yes"/>
      <point x="725" y="550"/>
      <point x="737" y="507"/>
      <point x="737" y="466" type="curve" smooth="yes"/>
      <point x="737" y="400"/>
      <point x="621" y="372"/>
      <point x="537" y="372" type="curve" smooth="yes"/>
      <point x="516" y="372"/>
      <point x="497" y="372"/>
    </contour>
    <contour>
      <point x="470" y="857" type="curve"/>
      <point x="463" y="1012" type="line"/>
      <point x="504" y="1017"/>
      <point x="557" y="1023"/>
      <point x="590" y="1023" type="curve" smooth="yes"/>
      <point x="644" y="1023"/>
      <point x="689" y="990"/>
      <point x="689" y="945" type="curve" smooth="yes"/>
      <point x="689" y="881"/>
      <point x="604" y="857"/>
      <point x="525" y="857" type="curve" smooth="yes"/>
      <point x="508" y="857"/>
      <point x="490" y="857"/>
    </contour>
  </outline>
</glyph>
<glyph name="C" format="2">
  <advance width="1137"/>
  <unicode hex="0043"/>
  <anchor x="569" y="0" name="bottom"/>
  <anchor x="569" y="1291" name="top"/>
  <outline>
    <contour>
      <point x="1118" y="215" type="curve"/>
      <point x="1063" y="308"/>
      <point x="930" y="434"/>
      <point x="839" y="499" type="curve"/>
      <point x="768" y="426"/>
      <point x="689" y="390"/>
      <point x="620" y="390" type="curve" smooth="yes"/>
      <point x="483" y="390"/>
      <point x="454" y="534"/>
      <point x="454" y="695" type="curve" smooth="yes"/>
      <point x="454" y="836"/>
      <point x="501" y="982"/>
      <point x="628" y="982" type="curve" smooth="yes"/>
      <point x="733" y="982"/>
      <point x="797" y="855"/>
      <point x="803" y="834" type="curve"/>
      <point x="885" y="885"/>
      <point x="1032" y="995"/>
      <point x="1101" y="1070" type="curve"/>
      <point x="997" y="1246"/>
      <point x="814" y="1326"/>
      <point x="612" y="1326" type="curve" smooth="yes"/>
      <point x="238" y="1326"/>
      <point x="25" y="1049"/>
      <point x="25" y="659" type="curve" smooth="yes"/>
      <point x="25" y="256"/>
      <point x="233" y="-14"/>
      <point x="627" y="-14" type="curve" smooth="yes"/>
      <point x="841" y="-14"/>
      <point x="1017" y="103"/>
    </contour>
  </outline>
</glyph>
<glyph name="D" format="2">
  <advance width="1198"/>
  <unicode hex="0044"/>
  <anchor x="599" y="0" name="bottom"/>
  <anchor x="304" y="646" name="center"/>
  <anchor x="533" y="1291" name="top"/>
  <outline>
    <contour>
      <point x="137" y="-34" type="curve"/>
      <point x="832" y="-34"/>
      <point x="1147" y="56"/>
      <point x="1147" y="636" type="curve" smooth="yes"/>
      <point x="1147" y="1143"/>
      <point x="956" y="1325"/>
      <point x="451" y="1325" type="curve" smooth="yes"/>
      <point x="304" y="1325"/>
      <point x="127" y="1309"/>
      <point x="32" y="1299" type="curve"/>
      <point x="42" y="1152"/>
      <point x="111" y="178"/>
    </contour>
    <contour>
      <point x="512" y="381" type="curve"/>
      <point x="502" y="554"/>
      <point x="485" y="813"/>
      <point x="474" y="978" type="curve"/>
      <point x="487" y="979"/>
      <point x="513" y="979"/>
      <point x="533" y="979" type="curve" smooth="yes"/>
      <point x="684" y="979"/>
      <point x="739" y="774"/>
      <point x="739" y="602" type="curve" smooth="yes"/>
      <point x="739" y="463"/>
      <point x="690" y="381"/>
    </contour>
  </outline>
</glyph>
<glyph name="E" format="2">
  <advance width="957"/>
  <unicode hex="0045"/>
  <anchor x="499" y="0" name="bottom"/>
  <anchor x="693" y="0" name="ogonek"/>
  <anchor x="499" y="1321" name="top"/>
  <anchor x="40" y="1291" name="topleft"/>
  <outline>
    <contour>
      <point x="815" y="-15" type="curve"/>
      <point x="827" y="22"/>
      <point x="854" y="267"/>
      <point x="854" y="400" type="curve"/>
      <point x="805" y="404"/>
      <point x="725" y="410"/>
      <point x="643" y="410" type="curve" smooth="yes"/>
      <point x="555" y="410"/>
      <point x="464" y="410"/>
      <point x="454" y="410" type="curve"/>
      <point x="454" y="432"/>
      <point x="457" y="530"/>
      <point x="459" y="557" type="curve"/>
      <point x="494" y="557"/>
      <point x="665" y="543"/>
      <point x="709" y="540" type="curve"/>
      <point x="716" y="860" type="line"/>
      <point x="629" y="858"/>
      <point x="547" y="855"/>
      <point x="468" y="855" type="curve"/>
      <point x="468" y="874"/>
      <point x="468" y="961"/>
      <point x="471" y="978" type="curve"/>
      <point x="844" y="1009" type="line"/>
      <point x="854" y="1123"/>
      <point x="862" y="1226"/>
      <point x="862" y="1330" type="curve"/>
      <point x="807" y="1330"/>
      <point x="471" y="1328"/>
      <point x="82" y="1251" type="curve"/>
      <point x="77" y="1153"/>
      <point x="69" y="945"/>
      <point x="69" y="670" type="curve" smooth="yes"/>
      <point x="69" y="483"/>
      <point x="73" y="266"/>
      <point x="82" y="31" type="curve"/>
      <point x="204" y="23"/>
      <point x="327" y="15"/>
      <point x="449" y="8" type="curve" smooth="yes"/>
      <point x="571" y="1"/>
      <point x="693" y="-7"/>
    </contour>
  </outline>
</glyph>
<glyph name="F" format="2">
  <advance width="949"/>
  <unicode hex="0046"/>
  <anchor x="475" y="0" name="bottom"/>
  <anchor x="475" y="1291" name="top"/>
  <outline>
    <contour>
      <point x="535" y="0" type="line"/>
      <point x="525" y="161"/>
      <point x="509" y="355"/>
      <point x="491" y="517" type="curve"/>
      <point x="593" y="517"/>
      <point x="714" y="506"/>
      <point x="785" y="498" type="curve"/>
      <point x="794" y="619"/>
      <point x="794" y="722"/>
      <point x="794" y="819" type="curve"/>
      <point x="729" y="831"/>
      <point x="551" y="848"/>
      <point x="461" y="848" type="curve"/>
      <point x="458" y="885"/>
      <point x="453" y="932"/>
      <point x="449" y="962" type="curve"/>
      <point x="607" y="962"/>
      <point x="815" y="945"/>
      <point x="893" y="942" type="curve"/>
      <point x="893" y="1030"/>
      <point x="887" y="1162"/>
      <point x="878" y="1280" type="curve"/>
      <point x="796" y="1299"/>
      <point x="660" y="1314"/>
      <point x="497" y="1314" type="curve" smooth="yes"/>
      <point x="362" y="1314"/>
      <point x="212" y="1312"/>
      <point x="68" y="1301" type="curve"/>
      <point x="85" y="875"/>
      <point x="99" y="448"/>
      <point x="109" y="17" type="curve"/>
    </contour>
  </outline>
</glyph>
<glyph name="G" format="2">
  <advance width="1275"/>
  <unicode hex="0047"/>
  <anchor x="638" y="0" name="bottom"/>
  <anchor x="638" y="1291" name="top"/>
  <outline>
    <contour>
      <point x="677" y="-48" type="curve" smooth="yes"/>
      <point x="1018" y="-48"/>
      <point x="1192" y="209"/>
      <point x="1192" y="488" type="curve" smooth="yes"/>
      <point x="1192" y="537"/>
      <point x="1187" y="608"/>
      <point x="1172" y="652" type="curve"/>
      <point x="1036" y="691"/>
      <point x="774" y="726"/>
      <point x="639" y="726" type="curve"/>
      <point x="630" y="662"/>
      <point x="624" y="514"/>
      <point x="624" y="447" type="curve"/>
      <point x="668" y="447"/>
      <point x="781" y="434"/>
      <point x="817" y="423" type="curve"/>
      <point x="819" y="415"/>
      <point x="820" y="408"/>
      <point x="820" y="394" type="curve" smooth="yes"/>
      <point x="820" y="341"/>
      <point x="748" y="299"/>
      <point x="682" y="299" type="curve" smooth="yes"/>
      <point x="530" y="299"/>
      <point x="458" y="440"/>
      <point x="458" y="613" type="curve" smooth="yes"/>
      <point x="458" y="773"/>
      <point x="507" y="954"/>
      <point x="647" y="954" type="curve" smooth="yes"/>
      <point x="746" y="954"/>
      <point x="802" y="884"/>
      <point x="824" y="855" type="curve"/>
      <point x="942" y="927"/>
      <point x="1095" y="1063"/>
      <point x="1140" y="1115" type="curve"/>
      <point x="1029" y="1270"/>
      <point x="821" y="1338"/>
      <point x="639" y="1338" type="curve" smooth="yes"/>
      <point x="270" y="1338"/>
      <point x="62" y="1051"/>
      <point x="62" y="646" type="curve" smooth="yes"/>
      <point x="62" y="210"/>
      <point x="298" y="-48"/>
    </contour>
  </outline>
</glyph>
<glyph name="H" format="2">
  <advance width="1094"/>
  <unicode hex="0048"/>
  <anchor x="547" y="0" name="bottom"/>
  <anchor x="526" y="1063" name="center"/>
  <anchor x="547" y="1291" name="top"/>
  <anchor x="20" y="1291" name="topleft"/>
  <outline>
    <contour>
      <point x="91" y="5" type="curve"/>
      <point x="169" y="5"/>
      <point x="403" y="12"/>
      <point x="482" y="22" type="curve"/>
      <point x="481" y="88"/>
      <point x="472" y="358"/>
      <point x="468" y="468" type="curve"/>
      <point x="526" y="468"/>
      <point x="559" y="468"/>
      <point x="627" y="470" type="curve"/>
      <point x="627" y="311"/>
      <point x="627" y="195"/>
      <point x="627" y="2" type="curve"/>
      <point x="770" y="2"/>
      <point x="933" y="7"/>
      <point x="986" y="12" type="curve"/>
      <point x="988" y="129"/>
      <point x="994" y="386"/>
      <point x="1004" y="640" type="curve" smooth="yes"/>
      <point x="1016" y="939"/>
      <point x="1033" y="1234"/>
      <point x="1043" y="1299" type="curve"/>
      <point x="996" y="1304"/>
      <point x="898" y="1307"/>
      <point x="795" y="1307" type="curve" smooth="yes"/>
      <point x="742" y="1307"/>
      <point x="681" y="1306"/>
      <point x="641" y="1304" type="curve"/>
      <point x="636" y="1172"/>
      <point x="632" y="875"/>
      <point x="629" y="812" type="curve"/>
      <point x="577" y="812"/>
      <point x="526" y="810"/>
      <point x="453" y="802" type="curve"/>
      <point x="450" y="852"/>
      <point x="446" y="973"/>
      <point x="446" y="1060" type="curve" smooth="yes"/>
      <point x="446" y="1133"/>
      <point x="445" y="1229"/>
      <point x="445" y="1297" type="curve"/>
      <point x="347" y="1297"/>
      <point x="82" y="1285"/>
      <point x="56" y="1282" type="curve"/>
      <point x="52" y="1228"/>
      <point x="50" y="1148"/>
      <point x="50" y="1052" type="curve" smooth="yes"/>
      <point x="50" y="700"/>
      <point x="73" y="147"/>
    </contour>
  </outline>
</glyph>
<glyph name="I" format="2">
  <advance width="588"/>
  <unicode hex="0049"/>
  <anchor x="296" y="0" name="bottom"/>
  <anchor x="471" y="-24" name="ogonek"/>
  <anchor x="296" y="1291" name="top"/>
  <anchor x="41" y="1291" name="topleft"/>
  <outline>
    <contour>
      <point x="471" y="-24" type="curve"/>
      <point x="492" y="94"/>
      <point x="498" y="312"/>
      <point x="498" y="548" type="curve" smooth="yes"/>
      <point x="498" y="823"/>
      <point x="489" y="1128"/>
      <point x="478" y="1323" type="curve"/>
      <point x="380" y="1323"/>
      <point x="156" y="1317"/>
      <point x="101" y="1315" type="curve"/>
      <point x="94" y="1057"/>
      <point x="90" y="808"/>
      <point x="90" y="580" type="curve" smooth="yes"/>
      <point x="90" y="363"/>
      <point x="95" y="111"/>
      <point x="99" y="-8" type="curve"/>
      <point x="210" y="-23"/>
      <point x="370" y="-24"/>
    </contour>
  </outline>
</glyph>
<glyph name="J" format="2">
  <advance width="1178"/>
  <unicode hex="004A"/>
  <anchor x="589" y="0" name="bottom"/>
  <anchor x="798" y="1291" name="top"/>
  <outline>
    <contour>
      <point x="537" y="-19" type="curve" smooth="yes"/>
      <point x="855" y="-19"/>
      <point x="1068" y="114"/>
      <point x="1068" y="614" type="curve" smooth="yes"/>
      <point x="1068" y="779"/>
      <point x="1053" y="1100"/>
      <point x="1038" y="1277" type="curve"/>
      <point x="977" y="1285"/>
      <point x="922" y="1287"/>
      <point x="848" y="1287" type="curve" smooth="yes"/>
      <point x="779" y="1287"/>
      <point x="691" y="1278"/>
      <point x="626" y="1265" type="curve"/>
      <point x="629" y="1243"/>
      <point x="660" y="860"/>
      <point x="660" y="653" type="curve" smooth="yes"/>
      <point x="660" y="443"/>
      <point x="638" y="364"/>
      <point x="559" y="364" type="curve" smooth="yes"/>
      <point x="492" y="364"/>
      <point x="405" y="450"/>
      <point x="371" y="581" type="curve"/>
      <point x="282" y="548"/>
      <point x="58" y="443"/>
      <point x="2" y="400" type="curve"/>
      <point x="45" y="128"/>
      <point x="254" y="-19"/>
    </contour>
  </outline>
</glyph>
<glyph name="K" format="2">
  <advance width="1115"/>
  <unicode hex="004B"/>
  <anchor x="558" y="0" name="bottom"/>
  <anchor x="558" y="1291" name="top"/>
  <outline>
    <contour>
      <point x="76" y="-32" type="curve"/>
      <point x="247" y="-12"/>
      <point x="447" y="8"/>
      <point x="491" y="10" type="curve"/>
      <point x="491" y="56"/>
      <point x="474" y="272"/>
      <point x="463" y="409" type="curve"/>
      <point x="482" y="419"/>
      <point x="494" y="426"/>
      <point x="516" y="443" type="curve"/>
      <point x="571" y="355"/>
      <point x="706" y="102"/>
      <point x="750" y="-5" type="curve"/>
      <point x="863" y="31"/>
      <point x="1039" y="121"/>
      <point x="1101" y="162" type="curve"/>
      <point x="1072" y="236"/>
      <point x="911" y="497"/>
      <point x="757" y="684" type="curve"/>
      <point x="874" y="797"/>
      <point x="1035" y="1043"/>
      <point x="1060" y="1118" type="curve"/>
      <point x="1006" y="1146"/>
      <point x="863" y="1225"/>
      <point x="730" y="1326" type="curve"/>
      <point x="621" y="1097"/>
      <point x="520" y="892"/>
      <point x="438" y="809" type="curve"/>
      <point x="430" y="962"/>
      <point x="425" y="1226"/>
      <point x="424" y="1297" type="curve"/>
      <point x="385" y="1304"/>
      <point x="311" y="1311"/>
      <point x="231" y="1311" type="curve" smooth="yes"/>
      <point x="167" y="1311"/>
      <point x="84" y="1306"/>
      <point x="26" y="1296" type="curve"/>
      <point x="46" y="937"/>
      <point x="76" y="240"/>
    </contour>
  </outline>
</glyph>
<glyph name="L" format="2">
  <advance width="961"/>
  <unicode hex="004C"/>
  <anchor x="511" y="0" name="bottom"/>
  <anchor x="511" y="646" name="center"/>
  <anchor x="285" y="1302" name="top"/>
  <anchor x="563" y="920" name="topright"/>
  <outline>
    <contour>
      <point x="63" y="31" type="curve"/>
      <point x="146" y="20"/>
      <point x="269" y="13"/>
      <point x="396" y="13" type="curve" smooth="yes"/>
      <point x="559" y="13"/>
      <point x="747" y="24"/>
      <point x="914" y="48" type="curve"/>
      <point x="914" y="166"/>
      <point x="905" y="379"/>
      <point x="893" y="439" type="curve"/>
      <point x="746" y="439"/>
      <point x="630" y="436"/>
      <point x="461" y="426" type="curve"/>
      <point x="467" y="480"/>
      <point x="474" y="553"/>
      <point x="478" y="617" type="curve" smooth="yes"/>
      <point x="497" y="921"/>
      <point x="509" y="1189"/>
      <point x="509" y="1292" type="curve"/>
      <point x="483" y="1297"/>
      <point x="399" y="1300"/>
      <point x="348" y="1300" type="curve" smooth="yes"/>
      <point x="232" y="1300"/>
      <point x="112" y="1289"/>
      <point x="63" y="1282" type="curve"/>
      <point x="70" y="1140"/>
      <point x="79" y="882"/>
      <point x="79" y="633" type="curve" smooth="yes"/>
      <point x="79" y="383"/>
      <point x="70" y="141"/>
    </contour>
  </outline>
</glyph>
<glyph name="M" format="2">
  <advance width="1492"/>
  <unicode hex="004D"/>
  <anchor x="747" y="0" name="bottom"/>
  <anchor x="747" y="1291" name="top"/>
  <outline>
    <contour>
      <point x="82" y="7" type="curve"/>
      <point x="211" y="7"/>
      <point x="381" y="9"/>
      <point x="470" y="12" type="curve"/>
      <point x="470" y="32"/>
      <point x="467" y="399"/>
      <point x="464" y="707" type="curve"/>
      <point x="502" y="552"/>
      <point x="592" y="147"/>
      <point x="607" y="70" type="curve"/>
      <point x="662" y="59"/>
      <point x="761" y="56"/>
      <point x="848" y="56" type="curve"/>
      <point x="882" y="136"/>
      <point x="1011" y="475"/>
      <point x="1048" y="606" type="curve"/>
      <point x="1044" y="555"/>
      <point x="1038" y="443"/>
      <point x="1033" y="329" type="curve" smooth="yes"/>
      <point x="1028" y="205"/>
      <point x="1021" y="80"/>
      <point x="1017" y="24" type="curve"/>
      <point x="1089" y="19"/>
      <point x="1260" y="9"/>
      <point x="1382" y="9" type="curve"/>
      <point x="1396" y="178"/>
      <point x="1412" y="466"/>
      <point x="1412" y="725" type="curve" smooth="yes"/>
      <point x="1412" y="926"/>
      <point x="1402" y="1114"/>
      <point x="1375" y="1231" type="curve"/>
      <point x="1262" y="1250"/>
      <point x="1045" y="1255"/>
      <point x="942" y="1255" type="curve"/>
      <point x="921" y="1153"/>
      <point x="822" y="780"/>
      <point x="768" y="600" type="curve"/>
      <point x="721" y="795"/>
      <point x="607" y="1245"/>
      <point x="600" y="1262" type="curve"/>
      <point x="587" y="1262"/>
      <point x="267" y="1260"/>
      <point x="108" y="1244" type="curve"/>
      <point x="85" y="811"/>
      <point x="82" y="222"/>
    </contour>
  </outline>
</glyph>
<glyph name="N" format="2">
  <advance width="1282"/>
  <unicode hex="004E"/>
  <anchor x="641" y="0" name="bottom"/>
  <anchor x="641" y="1291" name="top"/>
  <outline>
    <contour>
      <point x="513" y="-7" type="curve"/>
      <point x="513" y="121"/>
      <point x="502" y="513"/>
      <point x="488" y="617" type="curve"/>
      <point x="639" y="340"/>
      <point x="782" y="60"/>
      <point x="805" y="14" type="curve"/>
      <point x="855" y="5"/>
      <point x="936" y="2"/>
      <point x="1016" y="2" type="curve" smooth="yes"/>
      <point x="1069" y="2"/>
      <point x="1121" y="3"/>
      <point x="1164" y="5" type="curve"/>
      <point x="1184" y="63"/>
      <point x="1203" y="418"/>
      <point x="1203" y="746" type="curve" smooth="yes"/>
      <point x="1203" y="926"/>
      <point x="1197" y="1097"/>
      <point x="1183" y="1207" type="curve"/>
      <point x="1119" y="1226"/>
      <point x="896" y="1243"/>
      <point x="805" y="1243" type="curve"/>
      <point x="843" y="572" type="line"/>
      <point x="743" y="822"/>
      <point x="638" y="1016"/>
      <point x="481" y="1236" type="curve"/>
      <point x="370" y="1253"/>
      <point x="142" y="1264"/>
      <point x="80" y="1264" type="curve"/>
      <point x="91" y="1111"/>
      <point x="94" y="825"/>
      <point x="94" y="566" type="curve" smooth="yes"/>
      <point x="94" y="287"/>
      <point x="91" y="39"/>
      <point x="89" y="21" type="curve"/>
      <point x="164" y="11"/>
      <point x="357" y="-7"/>
    </contour>
  </outline>
</glyph>
<glyph name="O" format="2">
  <advance width="1354"/>
  <unicode hex="004F"/>
  <anchor x="677" y="0" name="bottom"/>
  <anchor x="610" y="646" name="center"/>
  <anchor x="917" y="0" name="ogonek"/>
  <anchor x="677" y="1291" name="top"/>
  <anchor x="20" y="1291" name="topleft"/>
  <anchor x="1001" y="1190" name="topright"/>
  <outline>
    <contour>
      <point x="668" y="-51" type="curve" smooth="yes"/>
      <point x="1111" y="-51"/>
      <point x="1295" y="285"/>
      <point x="1295" y="645" type="curve" smooth="yes"/>
      <point x="1295" y="1034"/>
      <point x="1102" y="1320"/>
      <point x="668" y="1320" type="curve" smooth="yes"/>
      <point x="277" y="1320"/>
      <point x="41" y="1032"/>
      <point x="41" y="639" type="curve" smooth="yes"/>
      <point x="41" y="243"/>
      <point x="228" y="-51"/>
    </contour>
    <contour>
      <point x="675" y="350" type="curve" smooth="yes"/>
      <point x="491" y="350"/>
      <point x="437" y="474"/>
      <point x="437" y="650" type="curve" smooth="yes"/>
      <point x="437" y="838"/>
      <point x="553" y="995"/>
      <point x="692" y="995" type="curve" smooth="yes"/>
      <point x="872" y="995"/>
      <point x="935" y="856"/>
      <point x="935" y="690" type="curve" smooth="yes"/>
      <point x="935" y="516"/>
      <point x="837" y="350"/>
    </contour>
  </outline>
</glyph>
<glyph name="P" format="2">
  <advance width="1010"/>
  <unicode hex="0050"/>
  <anchor x="505" y="0" name="bottom"/>
  <anchor x="505" y="1291" name="top"/>
  <outline>
    <contour>
      <point x="51" y="-4" type="curve"/>
      <point x="139" y="-10"/>
      <point x="377" y="-14"/>
      <point x="453" y="-14" type="curve"/>
      <point x="456" y="75"/>
      <point x="465" y="421"/>
      <point x="465" y="491" type="curve"/>
      <point x="480" y="482"/>
      <point x="538" y="474"/>
      <point x="568" y="474" type="curve" smooth="yes"/>
      <point x="850" y="474"/>
      <point x="978" y="656"/>
      <point x="978" y="911" type="curve" smooth="yes"/>
      <point x="978" y="1179"/>
      <point x="785" y="1292"/>
      <point x="511" y="1292" type="curve" smooth="yes"/>
      <point x="368" y="1292"/>
      <point x="226" y="1283"/>
      <point x="94" y="1256" type="curve"/>
      <point x="70" y="1087"/>
      <point x="51" y="25"/>
    </contour>
    <contour>
      <point x="456" y="811" type="curve"/>
      <point x="456" y="849"/>
      <point x="452" y="986"/>
      <point x="451" y="1003" type="curve"/>
      <point x="477" y="1006"/>
      <point x="505" y="1009"/>
      <point x="532" y="1009" type="curve" smooth="yes"/>
      <point x="604" y="1009"/>
      <point x="649" y="990"/>
      <point x="649" y="915" type="curve" smooth="yes"/>
      <point x="649" y="849"/>
      <point x="595" y="804"/>
      <point x="521" y="804" type="curve" smooth="yes"/>
      <point x="501" y="804"/>
      <point x="473" y="807"/>
    </contour>
  </outline>
</glyph>
<glyph name="Q" format="2">
  <advance width="1291"/>
  <unicode hex="0051"/>
  <anchor x="646" y="0" name="bottom"/>
  <anchor x="646" y="1291" name="top"/>
  <outline>
    <contour>
      <point x="1074" y="-187" type="curve"/>
      <point x="1146" y="-137"/>
      <point x="1234" y="-58"/>
      <point x="1283" y="14" type="curve"/>
      <point x="1213" y="50"/>
      <point x="1125" y="107"/>
      <point x="1074" y="174" type="curve"/>
      <point x="1222" y="284"/>
      <point x="1244" y="475"/>
      <point x="1244" y="685" type="curve" smooth="yes"/>
      <point x="1244" y="1043"/>
      <point x="1063" y="1299"/>
      <point x="651" y="1299" type="curve" smooth="yes"/>
      <point x="273" y="1299"/>
      <point x="21" y="1020"/>
      <point x="21" y="612" type="curve" smooth="yes"/>
      <point x="21" y="252"/>
      <point x="265" y="-21"/>
      <point x="613" y="-21" type="curve" smooth="yes"/>
      <point x="703" y="-21"/>
      <point x="788" y="8"/>
      <point x="821" y="29" type="curve"/>
      <point x="850" y="-18"/>
      <point x="1009" y="-158"/>
    </contour>
    <contour>
      <point x="653" y="328" type="curve"/>
      <point x="649" y="326"/>
      <point x="638" y="323"/>
      <point x="610" y="323" type="curve" smooth="yes"/>
      <point x="460" y="323"/>
      <point x="394" y="523"/>
      <point x="394" y="680" type="curve" smooth="yes"/>
      <point x="394" y="866"/>
      <point x="493" y="986"/>
      <point x="667" y="986" type="curve" smooth="yes"/>
      <point x="835" y="986"/>
      <point x="905" y="859"/>
      <point x="905" y="644" type="curve" smooth="yes"/>
      <point x="905" y="517"/>
      <point x="896" y="454"/>
      <point x="883" y="433" type="curve"/>
      <point x="854" y="475"/>
      <point x="825" y="548"/>
      <point x="808" y="598" type="curve"/>
      <point x="738" y="558"/>
      <point x="629" y="489"/>
      <point x="585" y="454" type="curve"/>
      <point x="595" y="419"/>
      <point x="640" y="342"/>
    </contour>
  </outline>
</glyph>
<glyph name="R" format="2">
  <advance width="1094"/>
  <unicode hex="0052"/>
  <anchor x="547" y="0" name="bottom"/>
  <anchor x="504" y="1331" name="top"/>
  <outline>
    <contour>
      <point x="101" y="-24" type="curve"/>
      <point x="234" y="-24"/>
      <point x="410" y="-20"/>
      <point x="510" y="2" type="curve"/>
      <point x="510" y="130"/>
      <point x="485" y="469"/>
      <point x="472" y="561" type="curve"/>
      <point x="499" y="562"/>
      <point x="510" y="564"/>
      <point x="537" y="569" type="curve"/>
      <point x="568" y="478"/>
      <point x="675" y="77"/>
      <point x="696" y="-21" type="curve"/>
      <point x="716" y="-19"/>
      <point x="986" y="30"/>
      <point x="1084" y="89" type="curve"/>
      <point x="1049" y="194"/>
      <point x="927" y="504"/>
      <point x="850" y="653" type="curve"/>
      <point x="955" y="710"/>
      <point x="1038" y="846"/>
      <point x="1038" y="984" type="curve" smooth="yes"/>
      <point x="1038" y="1271"/>
      <point x="784" y="1331"/>
      <point x="574" y="1331" type="curve" smooth="yes"/>
      <point x="424" y="1331"/>
      <point x="145" y="1313"/>
      <point x="34" y="1303" type="curve"/>
      <point x="52" y="899"/>
      <point x="84" y="277"/>
    </contour>
    <contour>
      <point x="436" y="855" type="curve"/>
      <point x="433" y="903"/>
      <point x="425" y="981"/>
      <point x="418" y="1038" type="curve"/>
      <point x="440" y="1041"/>
      <point x="487" y="1047"/>
      <point x="530" y="1047" type="curve" smooth="yes"/>
      <point x="634" y="1047"/>
      <point x="692" y="1043"/>
      <point x="692" y="972" type="curve" smooth="yes"/>
      <point x="692" y="907"/>
      <point x="636" y="875"/>
      <point x="548" y="863" type="curve" smooth="yes"/>
      <point x="497" y="856"/>
      <point x="466" y="855"/>
    </contour>
  </outline>
</glyph>
<glyph name="S" format="2">
  <advance width="1152"/>
  <unicode hex="0053"/>
  <anchor x="576" y="0" name="bottom"/>
  <anchor x="530" y="1339" name="top"/>
  <outline>
    <contour>
      <point x="556" y="-18" type="curve" smooth="yes"/>
      <point x="846" y="-18"/>
      <point x="1075" y="150"/>
      <point x="1075" y="427" type="curve" smooth="yes"/>
      <point x="1075" y="702"/>
      <point x="843" y="790"/>
      <point x="562" y="891" type="curve" smooth="yes"/>
      <point x="477" y="921"/>
      <point x="452" y="954"/>
      <point x="452" y="990" type="curve" smooth="yes"/>
      <point x="452" y="1039"/>
      <point x="505" y="1056"/>
      <point x="559" y="1056" type="curve" smooth="yes"/>
      <point x="621" y="1056"/>
      <point x="725" y="1017"/>
      <point x="821" y="928" type="curve"/>
      <point x="884" y="984"/>
      <point x="1006" y="1108"/>
      <point x="1042" y="1161" type="curve"/>
      <point x="904" y="1313"/>
      <point x="724" y="1349"/>
      <point x="555" y="1349" type="curve" smooth="yes"/>
      <point x="297" y="1349"/>
      <point x="62" y="1216"/>
      <point x="62" y="971" type="curve" smooth="yes"/>
      <point x="62" y="743"/>
      <point x="269" y="650"/>
      <point x="511" y="547" type="curve" smooth="yes"/>
      <point x="653" y="487"/>
      <point x="682" y="428"/>
      <point x="682" y="385" type="curve" smooth="yes"/>
      <point x="682" y="334"/>
      <point x="658" y="287"/>
      <point x="583" y="287" type="curve" smooth="yes"/>
      <point x="475" y="287"/>
      <point x="388" y="347"/>
      <point x="282" y="460" type="curve"/>
      <point x="212" y="426"/>
      <point x="36" y="271"/>
      <point x="19" y="240" type="curve"/>
      <point x="150" y="31"/>
      <point x="389" y="-18"/>
    </contour>
  </outline>
</glyph>
<glyph name="T" format="2">
  <advance width="1039"/>
  <unicode hex="0054"/>
  <anchor x="548" y="0" name="bottom"/>
  <anchor x="520" y="646" name="center"/>
  <anchor x="520" y="1291" name="top"/>
  <outline>
    <contour>
      <point x="58" y="968" type="curve"/>
      <point x="157" y="968"/>
      <point x="248" y="971"/>
      <point x="332" y="978" type="curve"/>
      <point x="331" y="933"/>
      <point x="330" y="877"/>
      <point x="330" y="814" type="curve" smooth="yes"/>
      <point x="330" y="554"/>
      <point x="339" y="179"/>
      <point x="349" y="-14" type="curve"/>
      <point x="448" y="-14"/>
      <point x="664" y="-2"/>
      <point x="766" y="14" type="curve"/>
      <point x="764" y="42"/>
      <point x="721" y="814"/>
      <point x="713" y="986" type="curve"/>
      <point x="780" y="983"/>
      <point x="912" y="983"/>
      <point x="959" y="983" type="curve"/>
      <point x="974" y="1039"/>
      <point x="986" y="1167"/>
      <point x="986" y="1308" type="curve"/>
      <point x="868" y="1325"/>
      <point x="721" y="1331"/>
      <point x="572" y="1331" type="curve" smooth="yes"/>
      <point x="379" y="1331"/>
      <point x="182" y="1321"/>
      <point x="34" y="1309" type="curve"/>
      <point x="34" y="1272"/>
      <point x="43" y="1038"/>
    </contour>
  </outline>
</glyph>
<glyph name="U" format="2">
  <advance width="1212"/>
  <unicode hex="0055"/>
  <anchor x="606" y="0" name="bottom"/>
  <anchor x="755" y="0" name="ogonek"/>
  <anchor x="606" y="1324" name="top"/>
  <anchor x="1101" y="1174" name="topright"/>
  <outline>
    <contour>
      <point x="593" y="-27" type="curve" smooth="yes"/>
      <point x="1063" y="-27"/>
      <point x="1153" y="418"/>
      <point x="1153" y="957" type="curve" smooth="yes"/>
      <point x="1153" y="1078"/>
      <point x="1145" y="1195"/>
      <point x="1130" y="1296" type="curve"/>
      <point x="1101" y="1304"/>
      <point x="846" y="1328"/>
      <point x="715" y="1328" type="curve"/>
      <point x="726" y="1245"/>
      <point x="736" y="833"/>
      <point x="736" y="710" type="curve" smooth="yes"/>
      <point x="736" y="570"/>
      <point x="719" y="458"/>
      <point x="615" y="458" type="curve" smooth="yes"/>
      <point x="564" y="458"/>
      <point x="534" y="491"/>
      <point x="517" y="563" type="curve" smooth="yes"/>
      <point x="502" y="626"/>
      <point x="497" y="718"/>
      <point x="497" y="844" type="curve" smooth="yes"/>
      <point x="497" y="1013"/>
      <point x="504" y="1193"/>
      <point x="516" y="1335" type="curve"/>
      <point x="449" y="1342"/>
      <point x="363" y="1347"/>
      <point x="282" y="1347" type="curve" smooth="yes"/>
      <point x="219" y="1347"/>
      <point x="147" y="1342"/>
      <point x="78" y="1335" type="curve"/>
      <point x="75" y="1256"/>
      <point x="73" y="1183"/>
      <point x="73" y="1115" type="curve" smooth="yes"/>
      <point x="73" y="744"/>
      <point x="79" y="455"/>
      <point x="151" y="260" type="curve" smooth="yes"/>
      <point x="220" y="73"/>
      <point x="350" y="-27"/>
    </contour>
  </outline>
</glyph>
<glyph name="V" format="2">
  <advance width="1183"/>
  <unicode hex="0056"/>
  <anchor x="605" y="0" name="bottom"/>
  <anchor x="605" y="1291" name="top"/>
  <outline>
    <contour>
      <point x="650" y="-22" type="curve" smooth="yes"/>
      <point x="735" y="-22"/>
      <point x="819" y="-21"/>
      <point x="865" y="-16" type="curve"/>
      <point x="891" y="79"/>
      <point x="1095" y="836"/>
      <point x="1183" y="1301" type="curve"/>
      <point x="1051" y="1342"/>
      <point x="870" y="1366"/>
      <point x="738" y="1366" type="curve"/>
      <point x="732" y="1288"/>
      <point x="665" y="711"/>
      <point x="631" y="428" type="curve"/>
      <point x="561" y="876"/>
      <point x="461" y="1340"/>
      <point x="456" y="1359" type="curve"/>
      <point x="350" y="1359"/>
      <point x="125" y="1340"/>
      <point x="0" y="1301" type="curve"/>
      <point x="74" y="945"/>
      <point x="310" y="191"/>
      <point x="411" y="-10" type="curve"/>
      <point x="460" y="-16"/>
      <point x="556" y="-22"/>
    </contour>
  </outline>
</glyph>
<glyph name="W" format="2">
  <advance width="1344"/>
  <unicode hex="0057"/>
  <anchor x="672" y="0" name="bottom"/>
  <anchor x="672" y="1291" name="top"/>
  <outline>
    <contour>
      <point x="768" y="-15" type="curve"/>
      <point x="1136" y="24" type="line"/>
      <point x="1162" y="139"/>
      <point x="1330" y="832"/>
      <point x="1330" y="1391" type="curve"/>
      <point x="942" y="1350" type="line"/>
      <point x="942" y="1159"/>
      <point x="927" y="773"/>
      <point x="893" y="498" type="curve"/>
      <point x="862" y="653"/>
      <point x="825" y="874"/>
      <point x="807" y="973" type="curve"/>
      <point x="554" y="945" type="line"/>
      <point x="522" y="860"/>
      <point x="466" y="705"/>
      <point x="430" y="587" type="curve"/>
      <point x="440" y="791"/>
      <point x="456" y="1159"/>
      <point x="456" y="1340" type="curve"/>
      <point x="21" y="1356" type="line"/>
      <point x="21" y="807"/>
      <point x="109" y="173"/>
      <point x="131" y="21" type="curve"/>
      <point x="539" y="3" type="line"/>
      <point x="579" y="106"/>
      <point x="631" y="291"/>
      <point x="664" y="416" type="curve"/>
      <point x="691" y="280"/>
      <point x="734" y="97"/>
    </contour>
  </outline>
</glyph>
<glyph name="X" format="2">
  <advance width="1253"/>
  <unicode hex="0058"/>
  <anchor x="627" y="0" name="bottom"/>
  <anchor x="627" y="1291" name="top"/>
  <outline>
    <contour>
      <point x="415" y="639" type="curve"/>
      <point x="292" y="421"/>
      <point x="133" y="193"/>
      <point x="26" y="56" type="curve"/>
      <point x="198" y="10"/>
      <point x="303" y="-18"/>
      <point x="434" y="-31" type="curve"/>
      <point x="462" y="0"/>
      <point x="537" y="121"/>
      <point x="650" y="323" type="curve"/>
      <point x="752" y="157"/>
      <point x="793" y="48"/>
      <point x="825" y="-54" type="curve"/>
      <point x="929" y="-34"/>
      <point x="1108" y="18"/>
      <point x="1208" y="81" type="curve"/>
      <point x="1173" y="168"/>
      <point x="976" y="498"/>
      <point x="839" y="673" type="curve"/>
      <point x="954" y="827"/>
      <point x="1140" y="1077"/>
      <point x="1191" y="1193" type="curve"/>
      <point x="1132" y="1241"/>
      <point x="961" y="1301"/>
      <point x="778" y="1328" type="curve"/>
      <point x="742" y="1209"/>
      <point x="699" y="1074"/>
      <point x="641" y="961" type="curve"/>
      <point x="627" y="998"/>
      <point x="508" y="1258"/>
      <point x="442" y="1347" type="curve"/>
      <point x="334" y="1332"/>
      <point x="93" y="1255"/>
      <point x="-1" y="1207" type="curve"/>
      <point x="43" y="1161"/>
      <point x="286" y="874"/>
    </contour>
  </outline>
</glyph>
<glyph name="Y" format="2">
  <advance width="1065"/>
  <unicode hex="0059"/>
  <anchor x="583" y="0" name="bottom"/>
  <anchor x="583" y="1291" name="top"/>
  <anchor x="70" y="1291" name="topleft"/>
  <outline>
    <contour>
      <point x="400" y="583" type="curve"/>
      <point x="389" y="457"/>
      <point x="375" y="176"/>
      <point x="375" y="24" type="curve"/>
      <point x="425" y="14"/>
      <point x="513" y="7"/>
      <point x="594" y="7" type="curve" smooth="yes"/>
      <point x="671" y="7"/>
      <point x="742" y="14"/>
      <point x="759" y="22" type="curve"/>
      <point x="761" y="40"/>
      <point x="762" y="147"/>
      <point x="762" y="236" type="curve" smooth="yes"/>
      <point x="762" y="312"/>
      <point x="757" y="477"/>
      <point x="751" y="612" type="curve"/>
      <point x="864" y="836"/>
      <point x="1011" y="1074"/>
      <point x="1101" y="1192" type="curve"/>
      <point x="1016" y="1242"/>
      <point x="864" y="1304"/>
      <point x="730" y="1309" type="curve"/>
      <point x="680" y="1231"/>
      <point x="586" y="1037"/>
      <point x="558" y="972" type="curve"/>
      <point x="512" y="1063"/>
      <point x="429" y="1262"/>
      <point x="404" y="1325" type="curve"/>
      <point x="319" y="1325"/>
      <point x="168" y="1308"/>
      <point x="14" y="1250" type="curve"/>
      <point x="142" y="950"/>
      <point x="265" y="768"/>
    </contour>
  </outline>
</glyph>
<glyph name="Z" format="2">
  <advance width="1044"/>
  <unicode hex="005A"/>
  <anchor x="522" y="0" name="bottom"/>
  <anchor x="522" y="646" name="center"/>
  <anchor x="522" y="1291" name="top"/>
  <outline>
    <contour>
      <point x="930" y="-14" type="curve"/>
      <point x="938" y="18"/>
      <point x="948" y="113"/>
      <point x="948" y="202" type="curve" smooth="yes"/>
      <point x="948" y="277"/>
      <point x="944" y="356"/>
      <point x="940" y="397" type="curve"/>
      <point x="835" y="392"/>
      <point x="728" y="387"/>
      <point x="642" y="387" type="curve" smooth="yes"/>
      <point x="561" y="387"/>
      <point x="499" y="389"/>
      <point x="474" y="393" type="curve"/>
      <point x="571" y="509"/>
      <point x="879" y="897"/>
      <point x="962" y="1005" type="curve"/>
      <point x="966" y="1025"/>
      <point x="970" y="1093"/>
      <point x="970" y="1166" type="curve" smooth="yes"/>
      <point x="970" y="1225"/>
      <point x="967" y="1288"/>
      <point x="959" y="1330" type="curve"/>
      <point x="927" y="1334"/>
      <point x="830" y="1336"/>
      <point x="778" y="1336" type="curve" smooth="yes"/>
      <point x="565" y="1336"/>
      <point x="205" y="1306"/>
      <point x="94" y="1294" type="curve"/>
      <point x="90" y="1256"/>
      <point x="87" y="1198"/>
      <point x="87" y="1135" type="curve" smooth="yes"/>
      <point x="87" y="1080"/>
      <point x="91" y="1011"/>
      <point x="95" y="969" type="curve"/>
      <point x="228" y="977"/>
      <point x="486" y="991"/>
      <point x="550" y="991" type="curve"/>
      <point x="500" y="912"/>
      <point x="184" y="546"/>
      <point x="43" y="388" type="curve"/>
      <point x="43" y="297"/>
      <point x="48" y="99"/>
      <point x="53" y="22" type="curve"/>
      <point x="404" y="-3"/>
      <point x="694" y="-14"/>
    </contour>
  </outline>
</glyph>
<glyph name="bracketleft" format="2">
  <advance width="735"/>
  <unicode hex="005B"/>
  <outline>
    <contour>
      <point x="351" y="-526" type="curve" smooth="yes"/>
      <point x="486" y="-526"/>
      <point x="587" y="-517"/>
      <point x="648" y="-509" type="curve"/>
      <point x="657" y="-449"/>
      <point x="671" y="-293"/>
      <point x="671" y="-191" type="curve"/>
      <point x="638" y="-191"/>
      <point x="581" y="-190"/>
      <point x="542" y="-188" type="curve" smooth="yes"/>
      <point x="489" y="-185"/>
      <point x="447" y="-182"/>
      <point x="427" y="-176" type="curve"/>
      <point x="417" y="-4"/>
      <point x="411" y="186"/>
      <point x="411" y="387" type="curve" smooth="yes"/>
      <point x="411" y="695"/>
      <point x="426" y="1032"/>
      <point x="465" y="1381" type="curve"/>
      <point x="535" y="1386"/>
      <point x="653" y="1393"/>
      <point x="683" y="1393" type="curve"/>
      <point x="687" y="1410"/>
      <point x="699" y="1467"/>
      <point x="708" y="1536" type="curve" smooth="yes"/>
      <point x="714" y="1582"/>
      <point x="719" y="1634"/>
      <point x="719" y="1682" type="curve"/>
      <point x="483" y="1680"/>
      <point x="251" y="1665"/>
      <point x="113" y="1638" type="curve"/>
      <point x="75" y="1443"/>
      <point x="41" y="1009"/>
      <point x="41" y="519" type="curve" smooth="yes"/>
      <point x="41" y="180"/>
      <point x="57" y="-186"/>
      <point x="101" y="-516" type="curve"/>
      <point x="194" y="-523"/>
      <point x="277" y="-526"/>
    </contour>
  </outline>
</glyph>
<glyph name="backslash" format="2">
  <advance width="725"/>
  <unicode hex="005C"/>
  <outline>
    <contour>
      <point x="753" y="31" type="curve"/>
      <point x="464" y="583"/>
      <point x="387" y="815"/>
      <point x="289" y="1477" type="curve"/>
      <point x="149" y="1467"/>
      <point x="-1" y="1426"/>
      <point x="-50" y="1366" type="curve"/>
      <point x="4" y="821"/>
      <point x="131" y="417"/>
      <point x="425" y="-121" type="curve"/>
      <point x="531" y="-96"/>
      <point x="640" y="-46"/>
    </contour>
  </outline>
</glyph>
<glyph name="bracketright" format="2">
  <advance width="619"/>
  <unicode hex="005D"/>
  <outline>
    <contour>
      <point x="607" y="583" type="curve" smooth="yes"/>
      <point x="607" y="934"/>
      <point x="582" y="1318"/>
      <point x="513" y="1655" type="curve"/>
      <point x="393" y="1679"/>
      <point x="261" y="1689"/>
      <point x="120" y="1689" type="curve" smooth="yes"/>
      <point x="81" y="1689"/>
      <point x="31" y="1688"/>
      <point x="2" y="1686" type="curve"/>
      <point x="-8" y="1635"/>
      <point x="-14" y="1533"/>
      <point x="-14" y="1446" type="curve" smooth="yes"/>
      <point x="-14" y="1425"/>
      <point x="-14" y="1405"/>
      <point x="-13" y="1387" type="curve"/>
      <point x="45" y="1385"/>
      <point x="103" y="1385"/>
      <point x="166" y="1385" type="curve"/>
      <point x="194" y="1257"/>
      <point x="212" y="957"/>
      <point x="212" y="639" type="curve" smooth="yes"/>
      <point x="212" y="352"/>
      <point x="197" y="52"/>
      <point x="163" y="-150" type="curve"/>
      <point x="122" y="-160"/>
      <point x="40" y="-171"/>
      <point x="9" y="-171" type="curve"/>
      <point x="9" y="-250"/>
      <point x="13" y="-393"/>
      <point x="18" y="-484" type="curve"/>
      <point x="152" y="-484"/>
      <point x="363" y="-478"/>
      <point x="518" y="-440" type="curve"/>
      <point x="566" y="-259"/>
      <point x="607" y="136"/>
    </contour>
  </outline>
</glyph>
<glyph name="asciicircum" format="2">
  <advance width="1032"/>
  <unicode hex="005E"/>
  <outline>
    <contour>
      <point x="694" y="1325" type="curve"/>
      <point x="667" y="1334"/>
      <point x="613" y="1337"/>
      <point x="556" y="1337" type="curve" smooth="yes"/>
      <point x="501" y="1337"/>
      <point x="444" y="1332"/>
      <point x="407" y="1326" type="curve"/>
      <point x="291" y="1217"/>
      <point x="123" y="976"/>
      <point x="17" y="812" type="curve"/>
      <point x="108" y="726"/>
      <point x="214" y="679"/>
      <point x="309" y="667" type="curve"/>
      <point x="365" y="788"/>
      <point x="481" y="992"/>
      <point x="650" y="1124" type="curve"/>
      <point x="463" y="1135" type="line"/>
      <point x="603" y="972"/>
      <point x="632" y="885"/>
      <point x="689" y="699" type="curve"/>
      <point x="839" y="725"/>
      <point x="937" y="759"/>
      <point x="993" y="805" type="curve"/>
      <point x="913" y="1025"/>
      <point x="797" y="1209"/>
    </contour>
  </outline>
</glyph>
<glyph name="underscore" format="2">
  <advance width="1549"/>
  <unicode hex="005F"/>
  <outline>
    <contour>
      <point x="292" y="30" type="curve" smooth="yes"/>
      <point x="237" y="30"/>
      <point x="73" y="30"/>
      <point x="22" y="32" type="curve"/>
      <point x="29" y="-55"/>
      <point x="47" y="-251"/>
      <point x="53" y="-301" type="curve"/>
      <point x="406" y="-310"/>
      <point x="693" y="-313"/>
      <point x="916" y="-313" type="curve" smooth="yes"/>
      <point x="1178" y="-313"/>
      <point x="1351" y="-309"/>
      <point x="1438" y="-306" type="curve"/>
      <point x="1451" y="-221"/>
      <point x="1460" y="-72"/>
      <point x="1460" y="65" type="curve"/>
      <point x="1244" y="54"/>
      <point x="767" y="30"/>
    </contour>
  </outline>
</glyph>
<glyph name="a" format="2">
  <advance width="1295"/>
  <unicode hex="0061"/>
  <anchor x="600" y="0" name="bottom"/>
  <anchor x="1164" y="0" name="ogonek"/>
  <anchor x="600" y="1063" name="top"/>
  <outline>
    <contour>
      <point x="497" y="-15" type="curve" smooth="yes"/>
      <point x="716" y="-15"/>
      <point x="843" y="60"/>
      <point x="870" y="139" type="curve"/>
      <point x="882" y="45"/>
      <point x="1006" y="-11"/>
      <point x="1125" y="-11" type="curve" smooth="yes"/>
      <point x="1236" y="-11"/>
      <point x="1301" y="27"/>
      <point x="1321" y="55" type="curve"/>
      <point x="1212" y="316" type="line"/>
      <point x="1201" y="305"/>
      <point x="1173" y="297"/>
      <point x="1142" y="297" type="curve" smooth="yes"/>
      <point x="1106" y="297"/>
      <point x="1084" y="320"/>
      <point x="1084" y="431" type="curve" smooth="yes"/>
      <point x="1084" y="504"/>
      <point x="1081" y="572"/>
      <point x="1074" y="633" type="curve" smooth="yes"/>
      <point x="1063" y="724"/>
      <point x="1042" y="801"/>
      <point x="1009" y="864" type="curve" smooth="yes"/>
      <point x="935" y="1004"/>
      <point x="796" y="1076"/>
      <point x="552" y="1076" type="curve" smooth="yes"/>
      <point x="338" y="1076"/>
      <point x="133" y="992"/>
      <point x="41" y="869" type="curve"/>
      <point x="340" y="677" type="line"/>
      <point x="378" y="725"/>
      <point x="457" y="775"/>
      <point x="544" y="775" type="curve" smooth="yes"/>
      <point x="634" y="775"/>
      <point x="678" y="749"/>
      <point x="711" y="718" type="curve" smooth="yes"/>
      <point x="735" y="696"/>
      <point x="749" y="657"/>
      <point x="749" y="629" type="curve"/>
      <point x="717" y="652"/>
      <point x="637" y="675"/>
      <point x="554" y="675" type="curve" smooth="yes"/>
      <point x="297" y="675"/>
      <point x="48" y="588"/>
      <point x="48" y="330" type="curve" smooth="yes"/>
      <point x="48" y="77"/>
      <point x="251" y="-15"/>
    </contour>
    <contour>
      <point x="584" y="272" type="curve" smooth="yes"/>
      <point x="491" y="272"/>
      <point x="439" y="296"/>
      <point x="439" y="350" type="curve" smooth="yes"/>
      <point x="439" y="409"/>
      <point x="533" y="423"/>
      <point x="615" y="423" type="curve" smooth="yes"/>
      <point x="673" y="423"/>
      <point x="748" y="413"/>
      <point x="772" y="402" type="curve"/>
      <point x="772" y="387"/>
      <point x="776" y="350"/>
      <point x="780" y="335" type="curve"/>
      <point x="754" y="313"/>
      <point x="656" y="272"/>
    </contour>
  </outline>
</glyph>
<glyph name="b" format="2">
  <advance width="1200"/>
  <unicode hex="0062"/>
  <anchor x="620" y="0" name="bottom"/>
  <anchor x="620" y="1470" name="top"/>
  <outline>
    <contour>
      <point x="92" y="-2" type="curve"/>
      <point x="196" y="-15"/>
      <point x="335" y="-20"/>
      <point x="483" y="-19" type="curve"/>
      <point x="482" y="-9"/>
      <point x="477" y="75"/>
      <point x="475" y="114" type="curve"/>
      <point x="503" y="73"/>
      <point x="606" y="0"/>
      <point x="743" y="0" type="curve" smooth="yes"/>
      <point x="981" y="0"/>
      <point x="1139" y="173"/>
      <point x="1139" y="447" type="curve" smooth="yes"/>
      <point x="1139" y="772"/>
      <point x="974" y="918"/>
      <point x="748" y="918" type="curve" smooth="yes"/>
      <point x="628" y="918"/>
      <point x="510" y="861"/>
      <point x="439" y="786" type="curve"/>
      <point x="423" y="1052"/>
      <point x="422" y="1335"/>
      <point x="422" y="1450" type="curve"/>
      <point x="217" y="1418"/>
      <point x="70" y="1389"/>
      <point x="52" y="1385" type="curve"/>
      <point x="52" y="1173"/>
      <point x="80" y="162"/>
    </contour>
    <contour>
      <point x="464" y="378" type="curve"/>
      <point x="462" y="400"/>
      <point x="458" y="479"/>
      <point x="458" y="501" type="curve"/>
      <point x="486" y="539"/>
      <point x="551" y="603"/>
      <point x="669" y="603" type="curve" smooth="yes"/>
      <point x="754" y="603"/>
      <point x="786" y="547"/>
      <point x="786" y="479" type="curve" smooth="yes"/>
      <point x="786" y="386"/>
      <point x="738" y="342"/>
      <point x="624" y="342" type="curve" smooth="yes"/>
      <point x="566" y="342"/>
      <point x="495" y="361"/>
    </contour>
  </outline>
</glyph>
<glyph name="c" format="2">
  <advance width="1026"/>
  <unicode hex="0063"/>
  <anchor x="513" y="0" name="bottom"/>
  <anchor x="513" y="1063" name="top"/>
  <outline>
    <contour>
      <point x="993" y="215" type="curve"/>
      <point x="730" y="501" type="line"/>
      <point x="716" y="479"/>
      <point x="634" y="393"/>
      <point x="532" y="393" type="curve" smooth="yes"/>
      <point x="408" y="393"/>
      <point x="380" y="517"/>
      <point x="380" y="598" type="curve" smooth="yes"/>
      <point x="380" y="718"/>
      <point x="440" y="786"/>
      <point x="558" y="786" type="curve" smooth="yes"/>
      <point x="650" y="786"/>
      <point x="684" y="727"/>
      <point x="691" y="711" type="curve"/>
      <point x="961" y="855" type="line"/>
      <point x="871" y="1011"/>
      <point x="725" y="1096"/>
      <point x="537" y="1096" type="curve" smooth="yes"/>
      <point x="225" y="1096"/>
      <point x="12" y="852"/>
      <point x="12" y="543" type="curve" smooth="yes"/>
      <point x="12" y="240"/>
      <point x="212" y="-12"/>
      <point x="522" y="-12" type="curve" smooth="yes"/>
      <point x="766" y="-12"/>
      <point x="925" y="105"/>
    </contour>
  </outline>
</glyph>
<glyph name="d" format="2">
  <advance width="1195"/>
  <unicode hex="0064"/>
  <anchor x="598" y="0" name="bottom"/>
  <anchor x="841" y="1191" name="center"/>
  <anchor x="598" y="1470" name="top"/>
  <anchor x="1145" y="1063" name="topright"/>
  <outline>
    <contour>
      <point x="744" y="3" type="curve"/>
      <point x="825" y="-5"/>
      <point x="1019" y="-8"/>
      <point x="1075" y="-8" type="curve"/>
      <point x="1075" y="536"/>
      <point x="1088" y="969"/>
      <point x="1121" y="1424" type="curve"/>
      <point x="1028" y="1449"/>
      <point x="897" y="1460"/>
      <point x="804" y="1460" type="curve"/>
      <point x="798" y="1416"/>
      <point x="760" y="1060"/>
      <point x="750" y="851" type="curve"/>
      <point x="715" y="908"/>
      <point x="606" y="959"/>
      <point x="477" y="959" type="curve" smooth="yes"/>
      <point x="177" y="959"/>
      <point x="31" y="723"/>
      <point x="31" y="462" type="curve" smooth="yes"/>
      <point x="31" y="207"/>
      <point x="184" y="-3"/>
      <point x="427" y="-3" type="curve" smooth="yes"/>
      <point x="601" y="-3"/>
      <point x="697" y="67"/>
      <point x="738" y="120" type="curve"/>
      <point x="738" y="84"/>
      <point x="740" y="27"/>
    </contour>
    <contour>
      <point x="533" y="359" type="curve" smooth="yes"/>
      <point x="438" y="359"/>
      <point x="385" y="409"/>
      <point x="385" y="499" type="curve" smooth="yes"/>
      <point x="385" y="580"/>
      <point x="445" y="643"/>
      <point x="534" y="643" type="curve" smooth="yes"/>
      <point x="599" y="643"/>
      <point x="689" y="613"/>
      <point x="731" y="572" type="curve"/>
      <point x="729" y="540"/>
      <point x="729" y="485"/>
      <point x="729" y="437" type="curve"/>
      <point x="678" y="376"/>
      <point x="601" y="359"/>
    </contour>
  </outline>
</glyph>
<glyph name="e" format="2">
  <advance width="1123"/>
  <unicode hex="0065"/>
  <anchor x="572" y="10" name="bottom"/>
  <anchor x="776" y="14" name="ogonek"/>
  <anchor x="617" y="1063" name="top"/>
  <outline>
    <contour>
      <point x="1053" y="150" type="curve"/>
      <point x="1005" y="261"/>
      <point x="841" y="429"/>
      <point x="824" y="442" type="curve"/>
      <point x="745" y="368"/>
      <point x="677" y="349"/>
      <point x="602" y="349" type="curve" smooth="yes"/>
      <point x="524" y="349"/>
      <point x="457" y="378"/>
      <point x="436" y="434" type="curve" smooth="yes"/>
      <point x="431" y="448"/>
      <point x="429" y="466"/>
      <point x="429" y="482" type="curve"/>
      <point x="478" y="491"/>
      <point x="571" y="502"/>
      <point x="674" y="502" type="curve" smooth="yes"/>
      <point x="719" y="502"/>
      <point x="1016" y="497"/>
      <point x="1059" y="495" type="curve"/>
      <point x="1069" y="543"/>
      <point x="1073" y="579"/>
      <point x="1073" y="632" type="curve" smooth="yes"/>
      <point x="1073" y="906"/>
      <point x="892" y="1063"/>
      <point x="607" y="1063" type="curve" smooth="yes"/>
      <point x="267" y="1063"/>
      <point x="50" y="832"/>
      <point x="50" y="485" type="curve" smooth="yes"/>
      <point x="50" y="149"/>
      <point x="272" y="-16"/>
      <point x="577" y="-16" type="curve" smooth="yes"/>
      <point x="818" y="-16"/>
      <point x="967" y="48"/>
    </contour>
    <contour>
      <point x="446" y="704" type="curve"/>
      <point x="451" y="748"/>
      <point x="494" y="831"/>
      <point x="593" y="831" type="curve" smooth="yes"/>
      <point x="662" y="831"/>
      <point x="715" y="793"/>
      <point x="730" y="744" type="curve" smooth="yes"/>
      <point x="733" y="734"/>
      <point x="735" y="724"/>
      <point x="735" y="714" type="curve"/>
      <point x="718" y="715"/>
      <point x="671" y="717"/>
      <point x="625" y="717" type="curve" smooth="yes"/>
      <point x="543" y="717"/>
      <point x="483" y="710"/>
    </contour>
  </outline>
</glyph>
<glyph name="f" format="2">
  <advance width="896"/>
  <unicode hex="0066"/>
  <anchor x="448" y="0" name="bottom"/>
  <anchor x="448" y="1470" name="top"/>
  <outline>
    <contour>
      <point x="215" y="-15" type="curve"/>
      <point x="343" y="-15"/>
      <point x="543" y="-12"/>
      <point x="641" y="4" type="curve"/>
      <point x="631" y="55"/>
      <point x="569" y="400"/>
      <point x="557" y="475" type="curve"/>
      <point x="605" y="479"/>
      <point x="729" y="482"/>
      <point x="748" y="482" type="curve"/>
      <point x="748" y="576"/>
      <point x="745" y="709"/>
      <point x="735" y="796" type="curve"/>
      <point x="696" y="802"/>
      <point x="573" y="809"/>
      <point x="513" y="809" type="curve"/>
      <point x="505" y="832"/>
      <point x="504" y="849"/>
      <point x="504" y="868" type="curve" smooth="yes"/>
      <point x="504" y="930"/>
      <point x="535" y="972"/>
      <point x="600" y="972" type="curve" smooth="yes"/>
      <point x="636" y="972"/>
      <point x="685" y="945"/>
      <point x="720" y="898" type="curve"/>
      <point x="752" y="944"/>
      <point x="856" y="1115"/>
      <point x="909" y="1213" type="curve"/>
      <point x="873" y="1265"/>
      <point x="793" y="1357"/>
      <point x="562" y="1357" type="curve" smooth="yes"/>
      <point x="269" y="1357"/>
      <point x="127" y="1133"/>
      <point x="127" y="898" type="curve" smooth="yes"/>
      <point x="127" y="850"/>
      <point x="131" y="801"/>
      <point x="138" y="752" type="curve"/>
      <point x="113" y="747"/>
      <point x="41" y="730"/>
      <point x="17" y="721" type="curve"/>
      <point x="17" y="603"/>
      <point x="31" y="463"/>
      <point x="55" y="385" type="curve"/>
      <point x="96" y="400"/>
      <point x="145" y="414"/>
      <point x="162" y="417" type="curve"/>
      <point x="184" y="225"/>
      <point x="207" y="36"/>
    </contour>
  </outline>
</glyph>
<glyph name="g" format="2">
  <advance width="1231"/>
  <unicode hex="0067"/>
  <anchor x="616" y="-530" name="bottom"/>
  <anchor x="616" y="1063" name="top"/>
  <outline>
    <contour>
      <point x="663" y="274" type="curve" smooth="yes"/>
      <point x="946" y="274"/>
      <point x="1128" y="407"/>
      <point x="1128" y="677" type="curve" smooth="yes"/>
      <point x="1128" y="741"/>
      <point x="1116" y="799"/>
      <point x="1090" y="849" type="curve"/>
      <point x="1124" y="899"/>
      <point x="1177" y="933"/>
      <point x="1229" y="956" type="curve"/>
      <point x="1181" y="1017"/>
      <point x="1095" y="1143"/>
      <point x="1061" y="1193" type="curve"/>
      <point x="990" y="1165"/>
      <point x="909" y="1092"/>
      <point x="866" y="1025" type="curve"/>
      <point x="801" y="1045"/>
      <point x="724" y="1056"/>
      <point x="634" y="1056" type="curve" smooth="yes"/>
      <point x="315" y="1056"/>
      <point x="85" y="924"/>
      <point x="85" y="664" type="curve" smooth="yes"/>
      <point x="85" y="574"/>
      <point x="115" y="485"/>
      <point x="189" y="414" type="curve"/>
      <point x="151" y="388"/>
      <point x="111" y="340"/>
      <point x="111" y="269" type="curve" smooth="yes"/>
      <point x="111" y="212"/>
      <point x="141" y="163"/>
      <point x="230" y="123" type="curve"/>
      <point x="106" y="60"/>
      <point x="36" y="-35"/>
      <point x="36" y="-140" type="curve" smooth="yes"/>
      <point x="36" y="-424"/>
      <point x="301" y="-499"/>
      <point x="621" y="-499" type="curve" smooth="yes"/>
      <point x="926" y="-499"/>
      <point x="1178" y="-395"/>
      <point x="1178" y="-106" type="curve" smooth="yes"/>
      <point x="1178" y="113"/>
      <point x="1031" y="207"/>
      <point x="819" y="207" type="curve" smooth="yes"/>
      <point x="677" y="207"/>
      <point x="600" y="203"/>
      <point x="519" y="197" type="curve"/>
      <point x="452" y="197"/>
      <point x="419" y="225"/>
      <point x="419" y="255" type="curve" smooth="yes"/>
      <point x="419" y="268"/>
      <point x="426" y="282"/>
      <point x="440" y="295" type="curve"/>
      <point x="504" y="281"/>
      <point x="578" y="274"/>
    </contour>
    <contour>
      <point x="628" y="-264" type="curve" smooth="yes"/>
      <point x="504" y="-264"/>
      <point x="431" y="-221"/>
      <point x="431" y="-159" type="curve" smooth="yes"/>
      <point x="431" y="-91"/>
      <point x="468" y="-77"/>
      <point x="535" y="-77" type="curve" smooth="yes"/>
      <point x="684" y="-77" type="line" smooth="yes"/>
      <point x="752" y="-77"/>
      <point x="810" y="-101"/>
      <point x="810" y="-162" type="curve" smooth="yes"/>
      <point x="810" y="-228"/>
      <point x="737" y="-264"/>
    </contour>
    <contour>
      <point x="632" y="566" type="curve" smooth="yes"/>
      <point x="551" y="566"/>
      <point x="483" y="597"/>
      <point x="483" y="673" type="curve" smooth="yes"/>
      <point x="483" y="751"/>
      <point x="569" y="774"/>
      <point x="643" y="774" type="curve" smooth="yes"/>
      <point x="706" y="774"/>
      <point x="774" y="737"/>
      <point x="774" y="675" type="curve" smooth="yes"/>
      <point x="774" y="593"/>
      <point x="716" y="566"/>
    </contour>
  </outline>
</glyph>
<glyph name="h" format="2">
  <advance width="1123"/>
  <unicode hex="0068"/>
  <anchor x="572" y="0" name="bottom"/>
  <anchor x="338" y="1189" name="center"/>
  <anchor x="232" y="1436" name="top"/>
  <outline>
    <contour>
      <point x="436" y="-5" type="curve"/>
      <point x="454" y="97"/>
      <point x="473" y="295"/>
      <point x="473" y="492" type="curve"/>
      <point x="513" y="540"/>
      <point x="569" y="580"/>
      <point x="632" y="580" type="curve" smooth="yes"/>
      <point x="687" y="580"/>
      <point x="720" y="538"/>
      <point x="720" y="449" type="curve" smooth="yes"/>
      <point x="720" y="362"/>
      <point x="692" y="124"/>
      <point x="673" y="9" type="curve"/>
      <point x="728" y="-2"/>
      <point x="793" y="-8"/>
      <point x="859" y="-8" type="curve" smooth="yes"/>
      <point x="919" y="-8"/>
      <point x="980" y="-3"/>
      <point x="1037" y="7" type="curve"/>
      <point x="1062" y="139"/>
      <point x="1084" y="353"/>
      <point x="1084" y="519" type="curve" smooth="yes"/>
      <point x="1084" y="779"/>
      <point x="1031" y="913"/>
      <point x="774" y="913" type="curve" smooth="yes"/>
      <point x="665" y="913"/>
      <point x="543" y="870"/>
      <point x="475" y="802" type="curve"/>
      <point x="466" y="1072"/>
      <point x="441" y="1292"/>
      <point x="410" y="1443" type="curve"/>
      <point x="338" y="1443"/>
      <point x="68" y="1405"/>
      <point x="48" y="1398" type="curve"/>
      <point x="62" y="1174"/>
      <point x="80" y="861"/>
      <point x="80" y="583" type="curve" smooth="yes"/>
      <point x="80" y="334"/>
      <point x="64" y="111"/>
      <point x="51" y="3" type="curve"/>
      <point x="86" y="-11"/>
      <point x="165" y="-16"/>
      <point x="252" y="-16" type="curve" smooth="yes"/>
      <point x="325" y="-16"/>
      <point x="398" y="-12"/>
    </contour>
  </outline>
</glyph>
<glyph name="i" format="2">
  <advance width="610"/>
  <unicode hex="0069"/>
  <anchor x="301" y="0" name="bottom"/>
  <outline>
    <contour>
      <point x="465" y="3" type="curve"/>
      <point x="490" y="83"/>
      <point x="507" y="387"/>
      <point x="507" y="627" type="curve" smooth="yes"/>
      <point x="507" y="754"/>
      <point x="501" y="865"/>
      <point x="492" y="911" type="curve"/>
      <point x="411" y="911"/>
      <point x="195" y="903"/>
      <point x="125" y="898" type="curve"/>
      <point x="125" y="690"/>
      <point x="85" y="92"/>
      <point x="70" y="5" type="curve"/>
      <point x="134" y="-3"/>
      <point x="200" y="-6"/>
      <point x="261" y="-6" type="curve" smooth="yes"/>
      <point x="350" y="-6"/>
      <point x="441" y="1"/>
    </contour>
    <contour>
      <point x="319" y="1022" type="curve" smooth="yes"/>
      <point x="441" y="1022"/>
      <point x="538" y="1116"/>
      <point x="538" y="1240" type="curve" smooth="yes"/>
      <point x="538" y="1372"/>
      <point x="438" y="1463"/>
      <point x="307" y="1463" type="curve" smooth="yes"/>
      <point x="184" y="1463"/>
      <point x="65" y="1379"/>
      <point x="65" y="1244" type="curve" smooth="yes"/>
      <point x="65" y="1108"/>
      <point x="179" y="1022"/>
    </contour>
  </outline>
</glyph>
<glyph name="j" format="2">
  <advance width="717"/>
  <unicode hex="006A"/>
  <outline>
    <contour>
      <point x="651" y="253" type="curve" smooth="yes"/>
      <point x="651" y="497"/>
      <point x="584" y="832"/>
      <point x="563" y="881" type="curve"/>
      <point x="144" y="862" type="line"/>
      <point x="190" y="703"/>
      <point x="235" y="395"/>
      <point x="235" y="192" type="curve" smooth="yes"/>
      <point x="235" y="42"/>
      <point x="214" y="-189"/>
      <point x="120" y="-189" type="curve" smooth="yes"/>
      <point x="59" y="-189"/>
      <point x="17" y="-137"/>
      <point x="-3" y="-66" type="curve"/>
      <point x="-99" y="-94"/>
      <point x="-286" y="-159"/>
      <point x="-390" y="-231" type="curve"/>
      <point x="-340" y="-410"/>
      <point x="-112" y="-534"/>
      <point x="119" y="-534" type="curve" smooth="yes"/>
      <point x="487" y="-534"/>
      <point x="651" y="-278"/>
    </contour>
    <contour>
      <point x="280" y="1455" type="curve" smooth="yes"/>
      <point x="136" y="1455"/>
      <point x="26" y="1342"/>
      <point x="26" y="1198" type="curve" smooth="yes"/>
      <point x="26" y="1063"/>
      <point x="149" y="973"/>
      <point x="278" y="973" type="curve" smooth="yes"/>
      <point x="413" y="973"/>
      <point x="543" y="1088"/>
      <point x="543" y="1221" type="curve" smooth="yes"/>
      <point x="543" y="1347"/>
      <point x="428" y="1455"/>
    </contour>
  </outline>
</glyph>
<glyph name="l" format="2">
  <advance width="645"/>
  <unicode hex="006C"/>
  <anchor x="308" y="0" name="bottom"/>
  <anchor x="308" y="735" name="center"/>
  <anchor x="308" y="1470" name="top"/>
  <anchor x="474" y="1034" name="topright"/>
  <outline>
    <contour>
      <point x="665" y="35" type="curve"/>
      <point x="654" y="66"/>
      <point x="564" y="308"/>
      <point x="546" y="347" type="curve"/>
      <point x="528" y="320"/>
      <point x="502" y="303"/>
      <point x="461" y="303" type="curve" smooth="yes"/>
      <point x="398" y="303"/>
      <point x="390" y="392"/>
      <point x="390" y="506" type="curve" smooth="yes"/>
      <point x="390" y="637"/>
      <point x="417" y="1099"/>
      <point x="438" y="1426" type="curve"/>
      <point x="361" y="1432"/>
      <point x="302" y="1435"/>
      <point x="240" y="1435" type="curve" smooth="yes"/>
      <point x="194" y="1435"/>
      <point x="136" y="1433"/>
      <point x="77" y="1429" type="curve"/>
      <point x="61" y="1162"/>
      <point x="42" y="822"/>
      <point x="42" y="412" type="curve" smooth="yes"/>
      <point x="42" y="131"/>
      <point x="100" y="-43"/>
      <point x="356" y="-43" type="curve" smooth="yes"/>
      <point x="491" y="-43"/>
      <point x="622" y="-1"/>
    </contour>
  </outline>
</glyph>
<glyph name="m" format="2">
  <advance width="1858"/>
  <unicode hex="006D"/>
  <anchor x="929" y="0" name="bottom"/>
  <anchor x="929" y="1063" name="top"/>
  <outline>
    <contour>
      <point x="103" y="-7" type="curve"/>
      <point x="150" y="-12"/>
      <point x="270" y="-17"/>
      <point x="377" y="-17" type="curve" smooth="yes"/>
      <point x="419" y="-17"/>
      <point x="490" y="-15"/>
      <point x="506" y="-14" type="curve"/>
      <point x="504" y="9"/>
      <point x="489" y="274"/>
      <point x="477" y="593" type="curve"/>
      <point x="505" y="668"/>
      <point x="580" y="717"/>
      <point x="656" y="717" type="curve" smooth="yes"/>
      <point x="777" y="717"/>
      <point x="788" y="543"/>
      <point x="788" y="242" type="curve" smooth="yes"/>
      <point x="788" y="157"/>
      <point x="788" y="83"/>
      <point x="791" y="-7" type="curve"/>
      <point x="821" y="-11"/>
      <point x="901" y="-13"/>
      <point x="980" y="-13" type="curve" smooth="yes"/>
      <point x="1046" y="-13"/>
      <point x="1111" y="-11"/>
      <point x="1142" y="-9" type="curve"/>
      <point x="1142" y="81"/>
      <point x="1146" y="166"/>
      <point x="1150" y="244" type="curve" smooth="yes"/>
      <point x="1163" y="517"/>
      <point x="1197" y="706"/>
      <point x="1338" y="706" type="curve" smooth="yes"/>
      <point x="1414" y="706"/>
      <point x="1441" y="627"/>
      <point x="1441" y="486" type="curve" smooth="yes"/>
      <point x="1441" y="363"/>
      <point x="1420" y="194"/>
      <point x="1393" y="-5" type="curve"/>
      <point x="1459" y="-11"/>
      <point x="1525" y="-13"/>
      <point x="1592" y="-13" type="curve" smooth="yes"/>
      <point x="1654" y="-13"/>
      <point x="1721" y="-11"/>
      <point x="1781" y="-8" type="curve"/>
      <point x="1787" y="130"/>
      <point x="1792" y="253"/>
      <point x="1792" y="363" type="curve" smooth="yes"/>
      <point x="1792" y="820"/>
      <point x="1714" y="1044"/>
      <point x="1373" y="1044" type="curve" smooth="yes"/>
      <point x="1198" y="1044"/>
      <point x="1055" y="925"/>
      <point x="1003" y="812" type="curve"/>
      <point x="997" y="835"/>
      <point x="990" y="860"/>
      <point x="979" y="883" type="curve" smooth="yes"/>
      <point x="940" y="965"/>
      <point x="871" y="1039"/>
      <point x="745" y="1039" type="curve" smooth="yes"/>
      <point x="574" y="1039"/>
      <point x="474" y="931"/>
      <point x="460" y="885" type="curve"/>
      <point x="460" y="913"/>
      <point x="460" y="981"/>
      <point x="458" y="1027" type="curve"/>
      <point x="376" y="1027"/>
      <point x="161" y="1003"/>
      <point x="82" y="983" type="curve"/>
      <point x="82" y="815"/>
      <point x="89" y="191"/>
    </contour>
  </outline>
</glyph>
<glyph name="n" format="2">
  <advance width="1330"/>
  <unicode hex="006E"/>
  <anchor x="685" y="0" name="bottom"/>
  <anchor x="685" y="1063" name="top"/>
  <outline>
    <contour>
      <point x="459" y="-14" type="curve"/>
      <point x="474" y="99"/>
      <point x="494" y="303"/>
      <point x="494" y="605" type="curve"/>
      <point x="553" y="659"/>
      <point x="642" y="708"/>
      <point x="720" y="708" type="curve" smooth="yes"/>
      <point x="845" y="708"/>
      <point x="871" y="617"/>
      <point x="871" y="478" type="curve" smooth="yes"/>
      <point x="871" y="293"/>
      <point x="831" y="69"/>
      <point x="813" y="-3" type="curve"/>
      <point x="846" y="-6"/>
      <point x="931" y="-8"/>
      <point x="1016" y="-8" type="curve" smooth="yes"/>
      <point x="1094" y="-8"/>
      <point x="1172" y="-6"/>
      <point x="1206" y="-3" type="curve"/>
      <point x="1227" y="159"/>
      <point x="1237" y="373"/>
      <point x="1237" y="494" type="curve" smooth="yes"/>
      <point x="1237" y="875"/>
      <point x="1161" y="1060"/>
      <point x="856" y="1060" type="curve" smooth="yes"/>
      <point x="694" y="1060"/>
      <point x="538" y="957"/>
      <point x="502" y="885" type="curve"/>
      <point x="504" y="935"/>
      <point x="504" y="1017"/>
      <point x="504" y="1034" type="curve"/>
      <point x="460" y="1041"/>
      <point x="400" y="1044"/>
      <point x="338" y="1044" type="curve" smooth="yes"/>
      <point x="252" y="1044"/>
      <point x="160" y="1039"/>
      <point x="97" y="1031" type="curve"/>
      <point x="97" y="599"/>
      <point x="91" y="219"/>
      <point x="68" y="-3" type="curve"/>
      <point x="96" y="-6"/>
      <point x="193" y="-10"/>
      <point x="252" y="-12" type="curve" smooth="yes"/>
      <point x="329" y="-14"/>
      <point x="408" y="-14"/>
    </contour>
  </outline>
</glyph>
<glyph name="o" format="2">
  <advance width="1170"/>
  <unicode hex="006F"/>
  <anchor x="585" y="0" name="bottom"/>
  <anchor x="585" y="532" name="center"/>
  <anchor x="738" y="0" name="ogonek"/>
  <anchor x="585" y="1063" name="top"/>
  <anchor x="879" y="941" name="topright"/>
  <outline>
    <contour>
      <point x="600" y="-17" type="curve" smooth="yes"/>
      <point x="932" y="-17"/>
      <point x="1113" y="178"/>
      <point x="1113" y="478" type="curve" smooth="yes"/>
      <point x="1113" y="817"/>
      <point x="943" y="1058"/>
      <point x="616" y="1058" type="curve" smooth="yes"/>
      <point x="284" y="1058"/>
      <point x="52" y="885"/>
      <point x="52" y="522" type="curve" smooth="yes"/>
      <point x="52" y="170"/>
      <point x="244" y="-17"/>
    </contour>
    <contour>
      <point x="587" y="342" type="curve" smooth="yes"/>
      <point x="481" y="342"/>
      <point x="426" y="435"/>
      <point x="426" y="557" type="curve" smooth="yes"/>
      <point x="426" y="653"/>
      <point x="469" y="773"/>
      <point x="596" y="773" type="curve" smooth="yes"/>
      <point x="699" y="773"/>
      <point x="766" y="681"/>
      <point x="766" y="545" type="curve" smooth="yes"/>
      <point x="766" y="408"/>
      <point x="686" y="342"/>
    </contour>
  </outline>
</glyph>
<glyph name="p" format="2">
  <advance width="1229"/>
  <unicode hex="0070"/>
  <anchor x="600" y="0" name="bottom"/>
  <anchor x="600" y="1063" name="top"/>
  <outline>
    <contour>
      <point x="38" y="-455" type="curve"/>
      <point x="116" y="-455"/>
      <point x="283" y="-448"/>
      <point x="415" y="-422" type="curve"/>
      <point x="425" y="-306"/>
      <point x="437" y="57"/>
      <point x="437" y="144" type="curve"/>
      <point x="469" y="99"/>
      <point x="595" y="53"/>
      <point x="709" y="53" type="curve" smooth="yes"/>
      <point x="971" y="53"/>
      <point x="1189" y="247"/>
      <point x="1189" y="574" type="curve" smooth="yes"/>
      <point x="1189" y="884"/>
      <point x="1071" y="1068"/>
      <point x="795" y="1068" type="curve" smooth="yes"/>
      <point x="608" y="1068"/>
      <point x="489" y="960"/>
      <point x="458" y="912" type="curve"/>
      <point x="458" y="960"/>
      <point x="453" y="1018"/>
      <point x="448" y="1068" type="curve"/>
      <point x="323" y="1068"/>
      <point x="182" y="1055"/>
      <point x="79" y="1022" type="curve"/>
      <point x="79" y="880"/>
      <point x="70" y="118"/>
    </contour>
    <contour>
      <point x="647" y="439" type="curve" smooth="yes"/>
      <point x="535" y="439"/>
      <point x="489" y="485"/>
      <point x="458" y="519" type="curve"/>
      <point x="460" y="545"/>
      <point x="462" y="625"/>
      <point x="462" y="659" type="curve"/>
      <point x="497" y="704"/>
      <point x="562" y="750"/>
      <point x="667" y="750" type="curve" smooth="yes"/>
      <point x="778" y="750"/>
      <point x="816" y="697"/>
      <point x="816" y="601" type="curve" smooth="yes"/>
      <point x="816" y="498"/>
      <point x="745" y="439"/>
    </contour>
  </outline>
</glyph>
<glyph name="q" format="2">
  <advance width="1207"/>
  <unicode hex="0071"/>
  <anchor x="604" y="0" name="bottom"/>
  <anchor x="604" y="1063" name="top"/>
  <outline>
    <contour>
      <point x="1123" y="-462" type="curve"/>
      <point x="1109" y="-342"/>
      <point x="1084" y="-97"/>
      <point x="1084" y="136" type="curve" smooth="yes"/>
      <point x="1084" y="426"/>
      <point x="1102" y="782"/>
      <point x="1138" y="1043" type="curve"/>
      <point x="1010" y="1075"/>
      <point x="922" y="1089"/>
      <point x="787" y="1089" type="curve"/>
      <point x="783" y="1066"/>
      <point x="770" y="987"/>
      <point x="770" y="942" type="curve"/>
      <point x="676" y="1042"/>
      <point x="561" y="1084"/>
      <point x="411" y="1084" type="curve" smooth="yes"/>
      <point x="137" y="1084"/>
      <point x="44" y="809"/>
      <point x="44" y="521" type="curve" smooth="yes"/>
      <point x="44" y="209"/>
      <point x="201" y="-3"/>
      <point x="498" y="-3" type="curve" smooth="yes"/>
      <point x="621" y="-3"/>
      <point x="717" y="42"/>
      <point x="738" y="79" type="curve"/>
      <point x="738" y="-111"/>
      <point x="744" y="-270"/>
      <point x="764" y="-445" type="curve"/>
      <point x="846" y="-453"/>
      <point x="965" y="-462"/>
    </contour>
    <contour>
      <point x="567" y="390" type="curve" smooth="yes"/>
      <point x="466" y="390"/>
      <point x="407" y="460"/>
      <point x="407" y="568" type="curve" smooth="yes"/>
      <point x="407" y="666"/>
      <point x="460" y="722"/>
      <point x="544" y="722" type="curve" smooth="yes"/>
      <point x="631" y="722"/>
      <point x="716" y="661"/>
      <point x="747" y="638" type="curve"/>
      <point x="744" y="567"/>
      <point x="741" y="499"/>
      <point x="738" y="431" type="curve"/>
      <point x="704" y="413"/>
      <point x="636" y="390"/>
    </contour>
  </outline>
</glyph>
<glyph name="r" format="2">
  <advance width="853"/>
  <unicode hex="0072"/>
  <anchor x="427" y="0" name="bottom"/>
  <anchor x="427" y="1063" name="top"/>
  <outline>
    <contour>
      <point x="412" y="902" type="curve"/>
      <point x="412" y="952"/>
      <point x="386" y="1041"/>
      <point x="370" y="1074" type="curve"/>
      <point x="340" y="1072"/>
      <point x="157" y="1043"/>
      <point x="34" y="1009" type="curve"/>
      <point x="74" y="832"/>
      <point x="116" y="252"/>
      <point x="116" y="-8" type="curve"/>
      <point x="258" y="-8"/>
      <point x="417" y="-4"/>
      <point x="536" y="12" type="curve"/>
      <point x="536" y="96"/>
      <point x="490" y="441"/>
      <point x="468" y="578" type="curve"/>
      <point x="519" y="641"/>
      <point x="579" y="677"/>
      <point x="656" y="677" type="curve" smooth="yes"/>
      <point x="707" y="677"/>
      <point x="753" y="659"/>
      <point x="781" y="648" type="curve"/>
      <point x="858" y="1044" type="line"/>
      <point x="834" y="1062"/>
      <point x="767" y="1078"/>
      <point x="707" y="1078" type="curve" smooth="yes"/>
      <point x="559" y="1078"/>
      <point x="447" y="985"/>
    </contour>
  </outline>
</glyph>
<glyph name="s" format="2">
  <advance width="988"/>
  <unicode hex="0073"/>
  <anchor x="504" y="-70" name="bottom"/>
  <anchor x="504" y="1124" name="top"/>
  <outline>
    <contour>
      <point x="489" y="-77" type="curve" smooth="yes"/>
      <point x="728" y="-77"/>
      <point x="940" y="44"/>
      <point x="940" y="305" type="curve" smooth="yes"/>
      <point x="940" y="516"/>
      <point x="727" y="627"/>
      <point x="607" y="680" type="curve" smooth="yes"/>
      <point x="494" y="730"/>
      <point x="440" y="755"/>
      <point x="440" y="796" type="curve" smooth="yes"/>
      <point x="440" y="834"/>
      <point x="493" y="844"/>
      <point x="535" y="844" type="curve" smooth="yes"/>
      <point x="613" y="844"/>
      <point x="697" y="788"/>
      <point x="745" y="738" type="curve"/>
      <point x="824" y="831"/>
      <point x="896" y="967"/>
      <point x="909" y="1010" type="curve"/>
      <point x="806" y="1091"/>
      <point x="641" y="1127"/>
      <point x="514" y="1127" type="curve" smooth="yes"/>
      <point x="292" y="1127"/>
      <point x="80" y="1016"/>
      <point x="80" y="810" type="curve" smooth="yes"/>
      <point x="80" y="609"/>
      <point x="221" y="512"/>
      <point x="367" y="446" type="curve" smooth="yes"/>
      <point x="459" y="404"/>
      <point x="572" y="336"/>
      <point x="572" y="296" type="curve" smooth="yes"/>
      <point x="572" y="259"/>
      <point x="541" y="250"/>
      <point x="495" y="250" type="curve" smooth="yes"/>
      <point x="414" y="250"/>
      <point x="294" y="330"/>
      <point x="193" y="405" type="curve"/>
      <point x="134" y="345"/>
      <point x="24" y="126"/>
      <point x="10" y="70" type="curve"/>
      <point x="48" y="34"/>
      <point x="220" y="-77"/>
    </contour>
  </outline>
</glyph>
<glyph name="t" format="2">
  <advance width="964"/>
  <unicode hex="0074"/>
  <anchor x="616" y="-53" name="bottom"/>
  <anchor x="472" y="532" name="center"/>
  <anchor x="404" y="1421" name="top"/>
  <anchor x="611" y="1409" name="topright"/>
  <outline>
    <contour>
      <point x="949" y="94" type="curve"/>
      <point x="924" y="126"/>
      <point x="801" y="290"/>
      <point x="758" y="353" type="curve"/>
      <point x="734" y="323"/>
      <point x="702" y="289"/>
      <point x="654" y="289" type="curve" smooth="yes"/>
      <point x="578" y="289"/>
      <point x="569" y="372"/>
      <point x="569" y="508" type="curve" smooth="yes"/>
      <point x="569" y="625"/>
      <point x="574" y="773"/>
      <point x="578" y="832" type="curve"/>
      <point x="605" y="835"/>
      <point x="672" y="840"/>
      <point x="717" y="843" type="curve" smooth="yes"/>
      <point x="783" y="847"/>
      <point x="870" y="852"/>
      <point x="883" y="852" type="curve"/>
      <point x="883" y="947"/>
      <point x="881" y="1080"/>
      <point x="870" y="1162" type="curve"/>
      <point x="855" y="1162"/>
      <point x="812" y="1162"/>
      <point x="734" y="1157" type="curve" smooth="yes"/>
      <point x="700" y="1155"/>
      <point x="631" y="1151"/>
      <point x="585" y="1149" type="curve"/>
      <point x="582" y="1208"/>
      <point x="581" y="1260"/>
      <point x="581" y="1302" type="curve" smooth="yes"/>
      <point x="581" y="1369"/>
      <point x="582" y="1421"/>
      <point x="583" y="1434" type="curve"/>
      <point x="216" y="1397" type="line"/>
      <point x="219" y="1372"/>
      <point x="223" y="1318"/>
      <point x="225" y="1273" type="curve" smooth="yes"/>
      <point x="227" y="1227"/>
      <point x="231" y="1151"/>
      <point x="234" y="1132" type="curve"/>
      <point x="137" y="1128"/>
      <point x="60" y="1122"/>
      <point x="-19" y="1113" type="curve"/>
      <point x="-19" y="1091"/>
      <point x="-14" y="923"/>
      <point x="12" y="779" type="curve"/>
      <point x="50" y="787"/>
      <point x="148" y="800"/>
      <point x="235" y="809" type="curve"/>
      <point x="230" y="737"/>
      <point x="217" y="531"/>
      <point x="217" y="334" type="curve" smooth="yes"/>
      <point x="217" y="120"/>
      <point x="342" y="-53"/>
      <point x="597" y="-53" type="curve" smooth="yes"/>
      <point x="787" y="-53"/>
      <point x="905" y="35"/>
    </contour>
  </outline>
</glyph>
<glyph name="u" format="2">
  <advance width="1178"/>
  <unicode hex="0075"/>
  <anchor x="569" y="0" name="bottom"/>
  <anchor x="816" y="0" name="ogonek"/>
  <anchor x="569" y="1063" name="top"/>
  <anchor x="1073" y="902" name="topright"/>
  <outline>
    <contour>
      <point x="693" y="964" type="curve"/>
      <point x="708" y="902"/>
      <point x="720" y="790"/>
      <point x="720" y="676" type="curve" smooth="yes"/>
      <point x="720" y="494"/>
      <point x="698" y="304"/>
      <point x="590" y="304" type="curve" smooth="yes"/>
      <point x="476" y="304"/>
      <point x="457" y="514"/>
      <point x="457" y="719" type="curve" smooth="yes"/>
      <point x="457" y="822"/>
      <point x="465" y="923"/>
      <point x="472" y="995" type="curve"/>
      <point x="424" y="1009"/>
      <point x="330" y="1018"/>
      <point x="246" y="1018" type="curve" smooth="yes"/>
      <point x="188" y="1018"/>
      <point x="109" y="1014"/>
      <point x="65" y="1010" type="curve"/>
      <point x="59" y="923"/>
      <point x="56" y="838"/>
      <point x="56" y="757" type="curve" smooth="yes"/>
      <point x="56" y="287"/>
      <point x="157" y="-64"/>
      <point x="577" y="-64" type="curve" smooth="yes"/>
      <point x="975" y="-64"/>
      <point x="1110" y="278"/>
      <point x="1110" y="696" type="curve" smooth="yes"/>
      <point x="1110" y="787"/>
      <point x="1103" y="880"/>
      <point x="1090" y="973" type="curve"/>
      <point x="1042" y="981"/>
      <point x="958" y="987"/>
      <point x="897" y="987" type="curve" smooth="yes"/>
      <point x="823" y="987"/>
      <point x="735" y="978"/>
    </contour>
  </outline>
</glyph>
<glyph name="v" format="2">
  <advance width="1007"/>
  <unicode hex="0076"/>
  <anchor x="504" y="0" name="bottom"/>
  <anchor x="504" y="1063" name="top"/>
  <outline>
    <contour>
      <point x="627" y="1091" type="curve"/>
      <point x="577" y="778"/>
      <point x="557" y="651"/>
      <point x="515" y="486" type="curve"/>
      <point x="482" y="586"/>
      <point x="379" y="915"/>
      <point x="333" y="1092" type="curve"/>
      <point x="250" y="1067"/>
      <point x="39" y="1017"/>
      <point x="-2" y="1012" type="curve"/>
      <point x="113" y="627"/>
      <point x="223" y="311"/>
      <point x="354" y="36" type="curve"/>
      <point x="395" y="31"/>
      <point x="457" y="25"/>
      <point x="519" y="25" type="curve" smooth="yes"/>
      <point x="577" y="25"/>
      <point x="635" y="29"/>
      <point x="677" y="36" type="curve"/>
      <point x="806" y="337"/>
      <point x="909" y="709"/>
      <point x="979" y="1005" type="curve"/>
      <point x="957" y="1012"/>
      <point x="802" y="1061"/>
    </contour>
  </outline>
</glyph>
<glyph name="w" format="2">
  <advance width="1520"/>
  <unicode hex="0077"/>
  <anchor x="760" y="0" name="bottom"/>
  <anchor x="760" y="1063" name="top"/>
  <outline>
    <contour>
      <point x="444" y="7" type="curve" smooth="yes"/>
      <point x="605" y="7"/>
      <point x="699" y="100"/>
      <point x="748" y="188" type="curve"/>
      <point x="787" y="104"/>
      <point x="867" y="15"/>
      <point x="1027" y="15" type="curve" smooth="yes"/>
      <point x="1342" y="15"/>
      <point x="1475" y="243"/>
      <point x="1475" y="685" type="curve" smooth="yes"/>
      <point x="1475" y="766"/>
      <point x="1466" y="944"/>
      <point x="1459" y="1033" type="curve"/>
      <point x="1420" y="1036"/>
      <point x="1332" y="1041"/>
      <point x="1280" y="1041" type="curve" smooth="yes"/>
      <point x="1225" y="1041"/>
      <point x="1171" y="1041"/>
      <point x="1116" y="1041" type="curve"/>
      <point x="1120" y="923"/>
      <point x="1120" y="812"/>
      <point x="1120" y="715" type="curve" smooth="yes"/>
      <point x="1120" y="480"/>
      <point x="1093" y="328"/>
      <point x="1010" y="328" type="curve" smooth="yes"/>
      <point x="913" y="328"/>
      <point x="909" y="529"/>
      <point x="909" y="920" type="curve" smooth="yes"/>
      <point x="909" y="1036" type="line"/>
      <point x="829" y="1039"/>
      <point x="653" y="1041"/>
      <point x="583" y="1041" type="curve"/>
      <point x="587" y="925"/>
      <point x="588" y="805"/>
      <point x="588" y="700" type="curve" smooth="yes"/>
      <point x="588" y="515"/>
      <point x="555" y="373"/>
      <point x="485" y="373" type="curve" smooth="yes"/>
      <point x="424" y="373"/>
      <point x="406" y="464"/>
      <point x="406" y="629" type="curve" smooth="yes"/>
      <point x="406" y="738"/>
      <point x="414" y="879"/>
      <point x="426" y="1044" type="curve"/>
      <point x="316" y="1052"/>
      <point x="176" y="1060"/>
      <point x="70" y="1060" type="curve"/>
      <point x="57" y="927"/>
      <point x="45" y="784"/>
      <point x="45" y="651" type="curve" smooth="yes"/>
      <point x="45" y="306"/>
      <point x="122" y="7"/>
    </contour>
  </outline>
</glyph>
<glyph name="x" format="2">
  <advance width="1142"/>
  <unicode hex="0078"/>
  <anchor x="571" y="0" name="bottom"/>
  <anchor x="571" y="1063" name="top"/>
  <outline>
    <contour>
      <point x="251" y="-36" type="curve"/>
      <point x="326" y="32"/>
      <point x="393" y="93"/>
      <point x="545" y="289" type="curve"/>
      <point x="634" y="179"/>
      <point x="704" y="91"/>
      <point x="786" y="-21" type="curve"/>
      <point x="885" y="34"/>
      <point x="993" y="94"/>
      <point x="1080" y="162" type="curve"/>
      <point x="956" y="333"/>
      <point x="884" y="432"/>
      <point x="778" y="561" type="curve"/>
      <point x="894" y="684"/>
      <point x="1041" y="884"/>
      <point x="1108" y="995" type="curve"/>
      <point x="1029" y="1044"/>
      <point x="891" y="1116"/>
      <point x="785" y="1164" type="curve"/>
      <point x="697" y="1014"/>
      <point x="632" y="909"/>
      <point x="561" y="805" type="curve"/>
      <point x="497" y="894"/>
      <point x="347" y="1094"/>
      <point x="274" y="1169" type="curve"/>
      <point x="209" y="1135"/>
      <point x="22" y="990"/>
      <point x="0" y="961" type="curve"/>
      <point x="61" y="892"/>
      <point x="156" y="785"/>
      <point x="353" y="568" type="curve"/>
      <point x="242" y="450"/>
      <point x="51" y="261"/>
      <point x="0" y="212" type="curve"/>
      <point x="62" y="128"/>
      <point x="179" y="21"/>
    </contour>
  </outline>
</glyph>
<glyph name="y" format="2">
  <advance width="1079"/>
  <unicode hex="0079"/>
  <anchor x="540" y="0" name="bottom"/>
  <anchor x="540" y="1063" name="top"/>
  <outline>
    <contour>
      <point x="461" y="-526" type="curve" smooth="yes"/>
      <point x="807" y="-526"/>
      <point x="977" y="-290"/>
      <point x="995" y="56" type="curve" smooth="yes"/>
      <point x="1006" y="260"/>
      <point x="1011" y="461"/>
      <point x="1011" y="640" type="curve" smooth="yes"/>
      <point x="1011" y="749"/>
      <point x="1009" y="849"/>
      <point x="1005" y="937" type="curve"/>
      <point x="926" y="954"/>
      <point x="853" y="962"/>
      <point x="776" y="962" type="curve" smooth="yes"/>
      <point x="740" y="962"/>
      <point x="703" y="960"/>
      <point x="665" y="957" type="curve"/>
      <point x="668" y="933"/>
      <point x="672" y="888"/>
      <point x="672" y="806" type="curve" smooth="yes"/>
      <point x="672" y="570"/>
      <point x="637" y="391"/>
      <point x="508" y="391" type="curve" smooth="yes"/>
      <point x="422" y="391"/>
      <point x="399" y="525"/>
      <point x="399" y="663" type="curve" smooth="yes"/>
      <point x="399" y="789"/>
      <point x="418" y="919"/>
      <point x="426" y="957" type="curve"/>
      <point x="394" y="964"/>
      <point x="290" y="970"/>
      <point x="197" y="970" type="curve" smooth="yes"/>
      <point x="133" y="970"/>
      <point x="75" y="967"/>
      <point x="48" y="961" type="curve"/>
      <point x="42" y="852"/>
      <point x="38" y="752"/>
      <point x="38" y="661" type="curve" smooth="yes"/>
      <point x="38" y="313"/>
      <point x="128" y="36"/>
      <point x="451" y="36" type="curve" smooth="yes"/>
      <point x="542" y="36"/>
      <point x="644" y="91"/>
      <point x="696" y="167" type="curve"/>
      <point x="690" y="16"/>
      <point x="635" y="-179"/>
      <point x="473" y="-179" type="curve" smooth="yes"/>
      <point x="340" y="-179"/>
      <point x="194" y="-106"/>
      <point x="115" y="-56" type="curve"/>
      <point x="74" y="-113"/>
      <point x="-19" y="-292"/>
      <point x="-48" y="-373" type="curve"/>
      <point x="70" y="-450"/>
      <point x="246" y="-526"/>
    </contour>
  </outline>
</glyph>
<glyph name="z" format="2">
  <advance width="1074"/>
  <unicode hex="007A"/>
  <anchor x="537" y="0" name="bottom"/>
  <anchor x="537" y="532" name="center"/>
  <anchor x="537" y="1063" name="top"/>
  <outline>
    <contour>
      <point x="974" y="2" type="curve"/>
      <point x="981" y="43"/>
      <point x="988" y="305"/>
      <point x="988" y="334" type="curve"/>
      <point x="908" y="327"/>
      <point x="760" y="315"/>
      <point x="652" y="315" type="curve" smooth="yes"/>
      <point x="621" y="315"/>
      <point x="542" y="315"/>
      <point x="516" y="316" type="curve"/>
      <point x="579" y="398"/>
      <point x="814" y="653"/>
      <point x="966" y="791" type="curve"/>
      <point x="966" y="833"/>
      <point x="962" y="1023"/>
      <point x="957" y="1045" type="curve"/>
      <point x="856" y="1045"/>
      <point x="683" y="1045"/>
      <point x="538" y="1045" type="curve" smooth="yes"/>
      <point x="419" y="1045"/>
      <point x="178" y="1055"/>
      <point x="78" y="1060" type="curve"/>
      <point x="62" y="764" type="line"/>
      <point x="69" y="763"/>
      <point x="89" y="763"/>
      <point x="117" y="763" type="curve" smooth="yes"/>
      <point x="222" y="763"/>
      <point x="446" y="767"/>
      <point x="502" y="771" type="curve"/>
      <point x="314" y="595"/>
      <point x="128" y="386"/>
      <point x="56" y="280" type="curve"/>
      <point x="39" y="12" type="line"/>
      <point x="154" y="-5"/>
      <point x="337" y="-11"/>
      <point x="516" y="-11" type="curve" smooth="yes"/>
      <point x="696" y="-11"/>
      <point x="873" y="-5"/>
    </contour>
  </outline>
</glyph>
<glyph name="braceleft" format="2">
  <advance width="665"/>
  <unicode hex="007B"/>
  <outline>
    <contour>
      <point x="532" y="-465" type="curve"/>
      <point x="583" y="-383"/>
      <point x="631" y="-298"/>
      <point x="677" y="-200" type="curve"/>
      <point x="571" y="-177"/>
      <point x="520" y="-101"/>
      <point x="520" y="14" type="curve" smooth="yes"/>
      <point x="520" y="64"/>
      <point x="527" y="108"/>
      <point x="537" y="153" type="curve" smooth="yes"/>
      <point x="547" y="200"/>
      <point x="554" y="248"/>
      <point x="554" y="305" type="curve" smooth="yes"/>
      <point x="554" y="496"/>
      <point x="399" y="564"/>
      <point x="206" y="573" type="curve"/>
      <point x="206" y="548" type="line"/>
      <point x="391" y="550"/>
      <point x="522" y="681"/>
      <point x="522" y="846" type="curve" smooth="yes"/>
      <point x="522" y="901"/>
      <point x="515" y="940"/>
      <point x="505" y="979" type="curve" smooth="yes"/>
      <point x="495" y="1017"/>
      <point x="488" y="1056"/>
      <point x="488" y="1108" type="curve" smooth="yes"/>
      <point x="488" y="1213"/>
      <point x="530" y="1301"/>
      <point x="631" y="1332" type="curve"/>
      <point x="631" y="1445"/>
      <point x="566" y="1574"/>
      <point x="520" y="1607" type="curve"/>
      <point x="250" y="1585"/>
      <point x="123" y="1341"/>
      <point x="123" y="1131" type="curve" smooth="yes"/>
      <point x="123" y="1064"/>
      <point x="136" y="1022"/>
      <point x="152" y="982" type="curve" smooth="yes"/>
      <point x="168" y="942"/>
      <point x="182" y="903"/>
      <point x="182" y="841" type="curve" smooth="yes"/>
      <point x="182" y="771"/>
      <point x="132" y="709"/>
      <point x="39" y="696" type="curve"/>
      <point x="32" y="663"/>
      <point x="29" y="602"/>
      <point x="29" y="552" type="curve" smooth="yes"/>
      <point x="29" y="499"/>
      <point x="33" y="436"/>
      <point x="41" y="406" type="curve"/>
      <point x="149" y="387"/>
      <point x="216" y="325"/>
      <point x="216" y="252" type="curve" smooth="yes"/>
      <point x="216" y="227"/>
      <point x="210" y="191"/>
      <point x="201" y="150" type="curve" smooth="yes"/>
      <point x="189" y="96"/>
      <point x="177" y="34"/>
      <point x="177" y="-24" type="curve" smooth="yes"/>
      <point x="177" y="-261"/>
      <point x="300" y="-433"/>
    </contour>
  </outline>
</glyph>
<glyph name="bar" format="2">
  <advance width="487"/>
  <unicode hex="007C"/>
  <outline>
    <contour>
      <point x="390" y="-554" type="curve"/>
      <point x="424" y="-370"/>
      <point x="437" y="-32"/>
      <point x="437" y="335" type="curve" smooth="yes"/>
      <point x="437" y="762"/>
      <point x="420" y="1236"/>
      <point x="397" y="1540" type="curve"/>
      <point x="299" y="1540"/>
      <point x="105" y="1531"/>
      <point x="50" y="1528" type="curve"/>
      <point x="34" y="1048"/>
      <point x="29" y="620"/>
      <point x="29" y="266" type="curve" smooth="yes"/>
      <point x="29" y="-72"/>
      <point x="34" y="-343"/>
      <point x="38" y="-530" type="curve"/>
      <point x="149" y="-552"/>
      <point x="289" y="-554"/>
    </contour>
  </outline>
</glyph>
<glyph name="braceright" format="2">
  <advance width="614"/>
  <unicode hex="007D"/>
  <outline>
    <contour>
      <point x="191" y="-482" type="curve"/>
      <point x="372" y="-446"/>
      <point x="535" y="-243"/>
      <point x="535" y="-37" type="curve" smooth="yes"/>
      <point x="535" y="21"/>
      <point x="521" y="74"/>
      <point x="503" y="128" type="curve" smooth="yes"/>
      <point x="485" y="183"/>
      <point x="469" y="240"/>
      <point x="469" y="305" type="curve" smooth="yes"/>
      <point x="469" y="392"/>
      <point x="512" y="431"/>
      <point x="601" y="446" type="curve"/>
      <point x="619" y="477"/>
      <point x="628" y="541"/>
      <point x="628" y="588" type="curve" smooth="yes"/>
      <point x="628" y="636"/>
      <point x="618" y="697"/>
      <point x="598" y="737" type="curve"/>
      <point x="496" y="737"/>
      <point x="431" y="791"/>
      <point x="431" y="921" type="curve" smooth="yes"/>
      <point x="431" y="980"/>
      <point x="446" y="1034"/>
      <point x="462" y="1085" type="curve" smooth="yes"/>
      <point x="476" y="1129"/>
      <point x="487" y="1171"/>
      <point x="487" y="1210" type="curve" smooth="yes"/>
      <point x="487" y="1394"/>
      <point x="336" y="1591"/>
      <point x="147" y="1638" type="curve"/>
      <point x="87" y="1571"/>
      <point x="1" y="1462"/>
      <point x="-48" y="1376" type="curve"/>
      <point x="77" y="1339"/>
      <point x="129" y="1257"/>
      <point x="129" y="1133" type="curve" smooth="yes"/>
      <point x="129" y="1082"/>
      <point x="122" y="1043"/>
      <point x="114" y="1005" type="curve" smooth="yes"/>
      <point x="106" y="967"/>
      <point x="99" y="929"/>
      <point x="99" y="878" type="curve" smooth="yes"/>
      <point x="99" y="676"/>
      <point x="289" y="549"/>
      <point x="457" y="549" type="curve"/>
      <point x="460" y="596" type="line"/>
      <point x="289" y="596"/>
      <point x="143" y="469"/>
      <point x="143" y="318" type="curve" smooth="yes"/>
      <point x="143" y="253"/>
      <point x="160" y="195"/>
      <point x="180" y="137" type="curve" smooth="yes"/>
      <point x="199" y="81"/>
      <point x="216" y="26"/>
      <point x="216" y="-34" type="curve" smooth="yes"/>
      <point x="216" y="-100"/>
      <point x="178" y="-147"/>
      <point x="78" y="-204" type="curve"/>
      <point x="99" y="-328"/>
      <point x="157" y="-441"/>
    </contour>
  </outline>
</glyph>
<glyph name="asciitilde" format="2">
  <advance width="1050"/>
  <unicode hex="007E"/>
  <outline>
    <contour>
      <point x="88" y="748" type="curve"/>
      <point x="265" y="595" type="line"/>
      <point x="279" y="624"/>
      <point x="319" y="706"/>
      <point x="396" y="706" type="curve" smooth="yes"/>
      <point x="432" y="706"/>
      <point x="470" y="681"/>
      <point x="510" y="651" type="curve" smooth="yes"/>
      <point x="558" y="615"/>
      <point x="614" y="576"/>
      <point x="679" y="576" type="curve" smooth="yes"/>
      <point x="848" y="576"/>
      <point x="942" y="737"/>
      <point x="954" y="803" type="curve"/>
      <point x="773" y="921" type="line"/>
      <point x="756" y="870"/>
      <point x="718" y="815"/>
      <point x="660" y="815" type="curve" smooth="yes"/>
      <point x="618" y="815"/>
      <point x="584" y="840"/>
      <point x="548" y="869" type="curve" smooth="yes"/>
      <point x="504" y="904"/>
      <point x="453" y="941"/>
      <point x="377" y="941" type="curve" smooth="yes"/>
      <point x="241" y="941"/>
      <point x="122" y="845"/>
    </contour>
  </outline>
</glyph>
<glyph name="exclamdown" format="2">
  <advance width="708"/>
  <unicode hex="00A1"/>
  <outline>
    <contour>
      <point x="166" y="597" type="curve"/>
      <point x="155" y="358"/>
      <point x="97" y="-278"/>
      <point x="84" y="-388" type="curve"/>
      <point x="549" y="-407" type="line"/>
      <point x="549" y="-62"/>
      <point x="531" y="266"/>
      <point x="504" y="580" type="curve"/>
      <point x="419" y="590"/>
      <point x="241" y="597"/>
    </contour>
    <contour>
      <point x="321" y="1092" type="curve" smooth="yes"/>
      <point x="186" y="1092"/>
      <point x="84" y="1002"/>
      <point x="84" y="858" type="curve" smooth="yes"/>
      <point x="84" y="739"/>
      <point x="192" y="651"/>
      <point x="325" y="651" type="curve" smooth="yes"/>
      <point x="460" y="651"/>
      <point x="567" y="732"/>
      <point x="567" y="863" type="curve" smooth="yes"/>
      <point x="567" y="997"/>
      <point x="459" y="1092"/>
    </contour>
  </outline>
</glyph>
<glyph name="cent" format="2">
  <advance width="1026"/>
  <unicode hex="00A2"/>
  <anchor x="513" y="164" name="bottom"/>
  <anchor x="513" y="1227" name="top"/>
  <outline>
    <contour>
      <point x="559" y="1378" type="curve"/>
      <point x="532" y="1055"/>
      <point x="383" y="410"/>
      <point x="291" y="52" type="curve"/>
      <point x="367" y="3"/>
      <point x="427" y="-6"/>
      <point x="503" y="-6" type="curve"/>
      <point x="566" y="218"/>
      <point x="684" y="957"/>
      <point x="723" y="1335" type="curve"/>
      <point x="696" y="1359"/>
      <point x="617" y="1378"/>
    </contour>
    <component base="c" yOffset="164"/>
  </outline>
</glyph>
<glyph name="sterling" format="2">
  <advance width="1140"/>
  <unicode hex="00A3"/>
  <outline>
    <contour>
      <point x="162" y="485" type="curve" smooth="yes"/>
      <point x="341" y="485"/>
      <point x="699" y="502"/>
      <point x="786" y="528" type="curve"/>
      <point x="786" y="569"/>
      <point x="780" y="752"/>
      <point x="777" y="785" type="curve"/>
      <point x="692" y="767"/>
      <point x="370" y="755"/>
      <point x="190" y="755" type="curve" smooth="yes"/>
      <point x="129" y="755"/>
      <point x="77" y="756"/>
      <point x="41" y="759" type="curve"/>
      <point x="31" y="491" type="line"/>
      <point x="55" y="487"/>
      <point x="103" y="485"/>
    </contour>
    <component base="sterlira"/>
  </outline>
</glyph>
<glyph name="currency" format="2">
  <advance width="974"/>
  <unicode hex="00A4"/>
  <outline>
    <contour>
      <point x="198" y="34" type="curve"/>
      <point x="241" y="77"/>
      <point x="405" y="272"/>
      <point x="438" y="320" type="curve"/>
      <point x="214" y="467" type="line"/>
      <point x="143" y="401"/>
      <point x="43" y="304"/>
      <point x="-29" y="234" type="curve"/>
      <point x="-3" y="205"/>
      <point x="163" y="60"/>
    </contour>
    <contour>
      <point x="791" y="57" type="curve"/>
      <point x="817" y="84"/>
      <point x="953" y="223"/>
      <point x="979" y="249" type="curve"/>
      <point x="931" y="297"/>
      <point x="809" y="402"/>
      <point x="732" y="468" type="curve"/>
      <point x="547" y="320" type="line"/>
      <point x="579" y="283"/>
      <point x="719" y="129"/>
    </contour>
    <contour>
      <point x="207" y="638" type="curve"/>
      <point x="379" y="809" type="line"/>
      <point x="320" y="885"/>
      <point x="233" y="988"/>
      <point x="179" y="1043" type="curve"/>
      <point x="140" y="1017"/>
      <point x="3" y="885"/>
      <point x="-12" y="860" type="curve"/>
      <point x="50" y="790"/>
      <point x="130" y="704"/>
    </contour>
    <contour>
      <point x="740" y="638" type="line"/>
      <point x="817" y="704"/>
      <point x="926" y="821"/>
      <point x="988" y="891" type="curve"/>
      <point x="962" y="916"/>
      <point x="804" y="1068"/>
      <point x="788" y="1094" type="curve"/>
      <point x="722" y="1032"/>
      <point x="596" y="897"/>
      <point x="532" y="826" type="curve"/>
    </contour>
    <component base="degree" xOffset="106" yOffset="-656"/>
  </outline>
</glyph>
<glyph name="yen" format="2">
  <advance width="1065"/>
  <unicode hex="00A5"/>
  <anchor x="613" y="0" name="bottom"/>
  <anchor x="613" y="1291" name="top"/>
  <anchor x="100" y="1291" name="topleft"/>
  <outline>
    <contour>
      <point x="150" y="508" type="curve"/>
      <point x="239" y="510"/>
      <point x="928" y="519"/>
      <point x="1022" y="519" type="curve"/>
      <point x="1022" y="587"/>
      <point x="1010" y="685"/>
      <point x="998" y="766" type="curve"/>
      <point x="908" y="776"/>
      <point x="774" y="781"/>
      <point x="627" y="781" type="curve" smooth="yes"/>
      <point x="477" y="781"/>
      <point x="315" y="776"/>
      <point x="175" y="765" type="curve"/>
      <point x="168" y="729"/>
      <point x="150" y="603"/>
    </contour>
    <contour>
      <point x="1028" y="193" type="curve"/>
      <point x="1028" y="281"/>
      <point x="1009" y="397"/>
      <point x="1001" y="431" type="curve"/>
      <point x="897" y="440"/>
      <point x="742" y="446"/>
      <point x="589" y="446" type="curve" smooth="yes"/>
      <point x="422" y="446"/>
      <point x="256" y="439"/>
      <point x="160" y="431" type="curve"/>
      <point x="148" y="357"/>
      <point x="138" y="290"/>
      <point x="138" y="208" type="curve"/>
      <point x="232" y="208"/>
      <point x="911" y="196"/>
    </contour>
    <component base="Y" xOffset="30"/>
  </outline>
</glyph>
<glyph name="brokenbar" format="2">
  <advance width="432"/>
  <unicode hex="00A6"/>
  <outline>
    <contour>
      <point x="36" y="284" type="curve"/>
      <point x="36" y="144"/>
      <point x="65" y="-259"/>
      <point x="83" y="-418" type="curve"/>
      <point x="167" y="-418"/>
      <point x="341" y="-410"/>
      <point x="390" y="-389" type="curve"/>
      <point x="382" y="-254"/>
      <point x="378" y="214"/>
      <point x="378" y="297" type="curve"/>
      <point x="279" y="297"/>
      <point x="134" y="294"/>
    </contour>
    <contour>
      <point x="46" y="821" type="curve"/>
      <point x="71" y="817"/>
      <point x="241" y="805"/>
      <point x="388" y="805" type="curve"/>
      <point x="384" y="922"/>
      <point x="383" y="1334"/>
      <point x="383" y="1469" type="curve"/>
      <point x="327" y="1498"/>
      <point x="155" y="1502"/>
      <point x="68" y="1502" type="curve"/>
      <point x="63" y="1401"/>
      <point x="46" y="1053"/>
    </contour>
  </outline>
</glyph>
<glyph name="section" format="2">
  <advance width="1000"/>
  <unicode hex="00A7"/>
  <outline>
    <contour>
      <point x="531" y="648" type="curve"/>
      <point x="269" y="797" type="line"/>
      <point x="158" y="746"/>
      <point x="75" y="655"/>
      <point x="75" y="528" type="curve" smooth="yes"/>
      <point x="75" y="327"/>
      <point x="223" y="234"/>
      <point x="378" y="174" type="curve" smooth="yes"/>
      <point x="516" y="121"/>
      <point x="624" y="57"/>
      <point x="624" y="17" type="curve" smooth="yes"/>
      <point x="624" y="-30"/>
      <point x="582" y="-42"/>
      <point x="513" y="-42" type="curve" smooth="yes"/>
      <point x="427" y="-42"/>
      <point x="301" y="18"/>
      <point x="184" y="83" type="curve"/>
      <point x="133" y="34"/>
      <point x="28" y="-146"/>
      <point x="0" y="-202" type="curve"/>
      <point x="40" y="-238"/>
      <point x="222" y="-359"/>
      <point x="507" y="-359" type="curve" smooth="yes"/>
      <point x="760" y="-359"/>
      <point x="963" y="-218"/>
      <point x="963" y="13" type="curve" smooth="yes"/>
      <point x="963" y="224"/>
      <point x="759" y="335"/>
      <point x="632" y="388" type="curve" smooth="yes"/>
      <point x="512" y="438"/>
      <point x="425" y="486"/>
      <point x="425" y="537" type="curve" smooth="yes"/>
      <point x="425" y="610"/>
      <point x="502" y="642"/>
    </contour>
    <contour>
      <point x="525" y="414" type="curve"/>
      <point x="699" y="192" type="line"/>
      <point x="855" y="245"/>
      <point x="973" y="366"/>
      <point x="973" y="534" type="curve" smooth="yes"/>
      <point x="973" y="745"/>
      <point x="759" y="856"/>
      <point x="632" y="909" type="curve" smooth="yes"/>
      <point x="512" y="959"/>
      <point x="435" y="994"/>
      <point x="435" y="1035" type="curve" smooth="yes"/>
      <point x="435" y="1073"/>
      <point x="501" y="1083"/>
      <point x="545" y="1083" type="curve" smooth="yes"/>
      <point x="617" y="1083"/>
      <point x="737" y="1037"/>
      <point x="788" y="987" type="curve"/>
      <point x="872" y="1081"/>
      <point x="936" y="1232"/>
      <point x="941" y="1249" type="curve"/>
      <point x="821" y="1330"/>
      <point x="656" y="1366"/>
      <point x="522" y="1366" type="curve" smooth="yes"/>
      <point x="317" y="1366"/>
      <point x="105" y="1255"/>
      <point x="105" y="1049" type="curve" smooth="yes"/>
      <point x="105" y="848"/>
      <point x="223" y="755"/>
      <point x="378" y="695" type="curve" smooth="yes"/>
      <point x="516" y="642"/>
      <point x="634" y="588"/>
      <point x="634" y="538" type="curve" smooth="yes"/>
      <point x="634" y="464"/>
      <point x="586" y="416"/>
    </contour>
  </outline>
</glyph>
<glyph name="copyright" format="2">
  <advance width="1745"/>
  <unicode hex="00A9"/>
  <outline>
    <contour>
      <point x="881" y="-68" type="curve" smooth="yes"/>
      <point x="1352" y="-68"/>
      <point x="1705" y="192"/>
      <point x="1705" y="557" type="curve" smooth="yes"/>
      <point x="1705" y="1088"/>
      <point x="1407" y="1350"/>
      <point x="928" y="1350" type="curve" smooth="yes"/>
      <point x="414" y="1350"/>
      <point x="48" y="1055"/>
      <point x="48" y="564" type="curve" smooth="yes"/>
      <point x="48" y="141"/>
      <point x="416" y="-68"/>
    </contour>
    <contour>
      <point x="862" y="227" type="curve" smooth="yes"/>
      <point x="595" y="227"/>
      <point x="443" y="379"/>
      <point x="443" y="629" type="curve" smooth="yes"/>
      <point x="443" y="886"/>
      <point x="684" y="1063"/>
      <point x="930" y="1063" type="curve" smooth="yes"/>
      <point x="1227" y="1063"/>
      <point x="1337" y="889"/>
      <point x="1337" y="605" type="curve" smooth="yes"/>
      <point x="1337" y="354"/>
      <point x="1154" y="227"/>
    </contour>
    <contour>
      <point x="874" y="290" type="curve" smooth="yes"/>
      <point x="1027" y="290"/>
      <point x="1187" y="364"/>
      <point x="1253" y="501" type="curve"/>
      <point x="1183" y="557"/>
      <point x="1101" y="613"/>
      <point x="1032" y="646" type="curve"/>
      <point x="985" y="576"/>
      <point x="932" y="564"/>
      <point x="897" y="564" type="curve" smooth="yes"/>
      <point x="831" y="564"/>
      <point x="798" y="603"/>
      <point x="798" y="651" type="curve" smooth="yes"/>
      <point x="798" y="711"/>
      <point x="847" y="748"/>
      <point x="903" y="748" type="curve" smooth="yes"/>
      <point x="940" y="748"/>
      <point x="993" y="730"/>
      <point x="1013" y="706" type="curve"/>
      <point x="1055" y="740"/>
      <point x="1126" y="820"/>
      <point x="1190" y="907" type="curve"/>
      <point x="1138" y="966"/>
      <point x="1056" y="995"/>
      <point x="944" y="995" type="curve" smooth="yes"/>
      <point x="705" y="995"/>
      <point x="535" y="834"/>
      <point x="535" y="614" type="curve" smooth="yes"/>
      <point x="535" y="412"/>
      <point x="663" y="290"/>
    </contour>
  </outline>
</glyph>
<glyph name="ordfeminine" format="2">
  <advance width="750"/>
  <unicode hex="00AA"/>
  <outline>
    <contour>
      <point x="439" y="732" type="curve"/>
      <point x="474" y="726"/>
      <point x="549" y="724"/>
      <point x="600" y="724" type="curve" smooth="yes"/>
      <point x="619" y="724"/>
      <point x="660" y="724"/>
      <point x="667" y="725" type="curve"/>
      <point x="674" y="767"/>
      <point x="690" y="880"/>
      <point x="690" y="1009" type="curve" smooth="yes"/>
      <point x="690" y="1276"/>
      <point x="614" y="1433"/>
      <point x="342" y="1433" type="curve" smooth="yes"/>
      <point x="211" y="1433"/>
      <point x="111" y="1402"/>
      <point x="34" y="1352" type="curve"/>
      <point x="162" y="1176" type="line"/>
      <point x="190" y="1189"/>
      <point x="268" y="1207"/>
      <point x="325" y="1207" type="curve" smooth="yes"/>
      <point x="392" y="1207"/>
      <point x="417" y="1191"/>
      <point x="430" y="1179" type="curve" smooth="yes"/>
      <point x="442" y="1168"/>
      <point x="449" y="1149"/>
      <point x="449" y="1134" type="curve"/>
      <point x="437" y="1151"/>
      <point x="378" y="1163"/>
      <point x="331" y="1163" type="curve" smooth="yes"/>
      <point x="173" y="1163"/>
      <point x="26" y="1097"/>
      <point x="26" y="932" type="curve" smooth="yes"/>
      <point x="26" y="795"/>
      <point x="125" y="729"/>
      <point x="277" y="729" type="curve" smooth="yes"/>
      <point x="345" y="729"/>
      <point x="414" y="751"/>
      <point x="445" y="780" type="curve"/>
      <point x="444" y="761"/>
      <point x="441" y="737"/>
    </contour>
    <contour>
      <point x="370" y="931" type="curve" smooth="yes"/>
      <point x="323" y="931"/>
      <point x="302" y="942"/>
      <point x="302" y="964" type="curve" smooth="yes"/>
      <point x="302" y="990"/>
      <point x="342" y="997"/>
      <point x="379" y="997" type="curve" smooth="yes"/>
      <point x="407" y="997"/>
      <point x="436" y="993"/>
      <point x="448" y="987" type="curve"/>
      <point x="449" y="982"/>
      <point x="449" y="965"/>
      <point x="449" y="961" type="curve" smooth="yes"/>
      <point x="449" y="959"/>
      <point x="449" y="953"/>
      <point x="449" y="950" type="curve"/>
      <point x="433" y="941"/>
      <point x="407" y="931"/>
    </contour>
  </outline>
</glyph>
<glyph name="guillemetleft" format="2">
  <advance width="1214"/>
  <unicode hex="00AB"/>
  <outline>
    <contour>
      <point x="1009" y="1135" type="curve"/>
      <point x="829" y="973"/>
      <point x="650" y="785"/>
      <point x="467" y="574" type="curve"/>
      <point x="1027" y="120" type="line"/>
      <point x="1055" y="239"/>
      <point x="1075" y="390"/>
      <point x="1075" y="465" type="curve"/>
      <point x="1022" y="510"/>
      <point x="909" y="571"/>
      <point x="838" y="605" type="curve"/>
      <point x="1171" y="899" type="line"/>
      <point x="1150" y="972"/>
      <point x="1091" y="1086"/>
    </contour>
    <contour>
      <point x="518" y="1120" type="curve"/>
      <point x="332" y="928"/>
      <point x="166" y="738"/>
      <point x="12" y="547" type="curve"/>
      <point x="205" y="337"/>
      <point x="421" y="159"/>
      <point x="639" y="0" type="curve"/>
      <point x="670" y="82"/>
      <point x="716" y="210"/>
      <point x="730" y="262" type="curve"/>
      <point x="700" y="279"/>
      <point x="515" y="445"/>
      <point x="383" y="566" type="curve"/>
      <point x="701" y="938" type="line"/>
      <point x="662" y="986"/>
      <point x="585" y="1069"/>
    </contour>
  </outline>
</glyph>
<glyph name="logicalnot" format="2">
  <advance width="1000"/>
  <unicode hex="00AC"/>
  <outline>
    <contour>
      <point x="978" y="909" type="curve"/>
      <point x="787" y="909"/>
      <point x="190" y="886"/>
      <point x="38" y="869" type="curve"/>
      <point x="35" y="784"/>
      <point x="35" y="634"/>
      <point x="35" y="554" type="curve"/>
      <point x="145" y="558"/>
      <point x="489" y="577"/>
      <point x="684" y="592" type="curve"/>
      <point x="678" y="522"/>
      <point x="669" y="336"/>
      <point x="669" y="240" type="curve"/>
      <point x="734" y="237"/>
      <point x="894" y="236"/>
      <point x="948" y="236" type="curve"/>
      <point x="948" y="338"/>
      <point x="964" y="749"/>
    </contour>
  </outline>
</glyph>
<glyph name="softhyphen" format="2">
  <advance width="821"/>
  <unicode hex="00AD"/>
  <outline>
    <contour>
      <point x="774" y="844" type="curve"/>
      <point x="682" y="858"/>
      <point x="574" y="863"/>
      <point x="438" y="863" type="curve" smooth="yes"/>
      <point x="326" y="863"/>
      <point x="171" y="851"/>
      <point x="45" y="833" type="curve"/>
      <point x="35" y="785"/>
      <point x="20" y="572"/>
      <point x="20" y="479" type="curve"/>
      <point x="194" y="491"/>
      <point x="714" y="509"/>
      <point x="791" y="509" type="curve"/>
      <point x="791" y="601"/>
      <point x="790" y="740"/>
    </contour>
  </outline>
</glyph>
<glyph name="registered" format="2">
  <advance width="1400"/>
  <unicode hex="00AE"/>
  <outline>
    <contour>
      <point x="724" y="265" type="curve" smooth="yes"/>
      <point x="1096" y="265"/>
      <point x="1377" y="468"/>
      <point x="1377" y="819" type="curve" smooth="yes"/>
      <point x="1377" y="1164"/>
      <point x="1108" y="1321"/>
      <point x="724" y="1321" type="curve" smooth="yes"/>
      <point x="366" y="1321"/>
      <point x="38" y="1132"/>
      <point x="38" y="771" type="curve" smooth="yes"/>
      <point x="38" y="329"/>
      <point x="407" y="265"/>
    </contour>
    <contour>
      <point x="714" y="489" type="curve" smooth="yes"/>
      <point x="555" y="489"/>
      <point x="348" y="492"/>
      <point x="348" y="789" type="curve" smooth="yes"/>
      <point x="348" y="1018"/>
      <point x="545" y="1103"/>
      <point x="718" y="1103" type="curve" smooth="yes"/>
      <point x="904" y="1103"/>
      <point x="1064" y="1056"/>
      <point x="1064" y="796" type="curve" smooth="yes"/>
      <point x="1064" y="567"/>
      <point x="884" y="489"/>
    </contour>
    <contour>
      <point x="706" y="556" type="curve"/>
      <point x="706" y="585"/>
      <point x="705" y="681"/>
      <point x="703" y="709" type="curve"/>
      <point x="710" y="710"/>
      <point x="719" y="711"/>
      <point x="720" y="711" type="curve"/>
      <point x="735" y="682"/>
      <point x="742" y="588"/>
      <point x="742" y="556" type="curve"/>
      <point x="823" y="556"/>
      <point x="898" y="564"/>
      <point x="940" y="589" type="curve"/>
      <point x="940" y="624"/>
      <point x="916" y="735"/>
      <point x="885" y="771" type="curve"/>
      <point x="929" y="788"/>
      <point x="959" y="842"/>
      <point x="959" y="892" type="curve" smooth="yes"/>
      <point x="959" y="1003"/>
      <point x="830" y="1040"/>
      <point x="706" y="1040" type="curve" smooth="yes"/>
      <point x="628" y="1040"/>
      <point x="567" y="1028"/>
      <point x="505" y="991" type="curve"/>
      <point x="492" y="917"/>
      <point x="483" y="694"/>
      <point x="483" y="588" type="curve"/>
      <point x="536" y="572"/>
      <point x="631" y="556"/>
    </contour>
    <contour>
      <point x="690" y="855" type="curve"/>
      <point x="690" y="870"/>
      <point x="689" y="893"/>
      <point x="688" y="903" type="curve"/>
      <point x="699" y="905"/>
      <point x="711" y="906"/>
      <point x="721" y="906" type="curve" smooth="yes"/>
      <point x="740" y="906"/>
      <point x="754" y="902"/>
      <point x="754" y="880" type="curve" smooth="yes"/>
      <point x="754" y="858"/>
      <point x="711" y="855"/>
    </contour>
  </outline>
</glyph>
<glyph name="degree" format="2">
  <advance width="814"/>
  <unicode hex="00B0"/>
  <outline>
    <contour>
      <point x="376" y="860" type="curve" smooth="yes"/>
      <point x="580" y="860"/>
      <point x="752" y="1030"/>
      <point x="752" y="1229" type="curve" smooth="yes"/>
      <point x="752" y="1409"/>
      <point x="579" y="1540"/>
      <point x="366" y="1540" type="curve" smooth="yes"/>
      <point x="169" y="1540"/>
      <point x="6" y="1399"/>
      <point x="6" y="1197" type="curve" smooth="yes"/>
      <point x="6" y="1014"/>
      <point x="177" y="860"/>
    </contour>
    <contour>
      <point x="374" y="1130" type="curve" smooth="yes"/>
      <point x="332" y="1130"/>
      <point x="304" y="1162"/>
      <point x="304" y="1207" type="curve" smooth="yes"/>
      <point x="304" y="1246"/>
      <point x="333" y="1270"/>
      <point x="373" y="1270" type="curve" smooth="yes"/>
      <point x="427" y="1270"/>
      <point x="455" y="1238"/>
      <point x="455" y="1198" type="curve" smooth="yes"/>
      <point x="455" y="1159"/>
      <point x="417" y="1130"/>
    </contour>
  </outline>
</glyph>
<glyph name="twosuperior" format="2">
  <advance width="737"/>
  <unicode hex="00B2"/>
  <outline>
    <contour>
      <point x="639" y="787" type="curve"/>
      <point x="554" y="780"/>
      <point x="482" y="771"/>
      <point x="429" y="763" type="curve"/>
      <point x="454" y="770"/>
      <point x="507" y="807"/>
      <point x="551" y="859" type="curve" smooth="yes"/>
      <point x="625" y="945"/>
      <point x="638" y="1031"/>
      <point x="638" y="1094" type="curve" smooth="yes"/>
      <point x="638" y="1241"/>
      <point x="546" y="1330"/>
      <point x="389" y="1330" type="curve" smooth="yes"/>
      <point x="248" y="1330"/>
      <point x="96" y="1242"/>
      <point x="22" y="1131" type="curve"/>
      <point x="61" y="1091"/>
      <point x="167" y="1008"/>
      <point x="233" y="976" type="curve"/>
      <point x="251" y="990"/>
      <point x="308" y="1033"/>
      <point x="343" y="1033" type="curve" smooth="yes"/>
      <point x="370" y="1033"/>
      <point x="378" y="1019"/>
      <point x="378" y="1001" type="curve" smooth="yes"/>
      <point x="378" y="966"/>
      <point x="326" y="918"/>
      <point x="229" y="857" type="curve" smooth="yes"/>
      <point x="133" y="797"/>
      <point x="69" y="759"/>
      <point x="29" y="746" type="curve"/>
      <point x="32" y="665"/>
      <point x="73" y="505"/>
      <point x="77" y="490" type="curve"/>
      <point x="651" y="516" type="line"/>
      <point x="651" y="547"/>
      <point x="650" y="739"/>
    </contour>
  </outline>
</glyph>
<glyph name="threesuperior" format="2">
  <advance width="788"/>
  <unicode hex="00B3"/>
  <outline>
    <contour>
      <point x="355" y="498" type="curve" smooth="yes"/>
      <point x="531" y="498"/>
      <point x="696" y="584"/>
      <point x="696" y="739" type="curve" smooth="yes"/>
      <point x="696" y="847"/>
      <point x="606" y="920"/>
      <point x="511" y="927" type="curve"/>
      <point x="600" y="956"/>
      <point x="650" y="1017"/>
      <point x="650" y="1097" type="curve" smooth="yes"/>
      <point x="650" y="1224"/>
      <point x="509" y="1301"/>
      <point x="367" y="1301" type="curve" smooth="yes"/>
      <point x="170" y="1301"/>
      <point x="46" y="1208"/>
      <point x="26" y="1186" type="curve"/>
      <point x="43" y="1160"/>
      <point x="164" y="1059"/>
      <point x="212" y="1019" type="curve"/>
      <point x="228" y="1029"/>
      <point x="308" y="1063"/>
      <point x="347" y="1063" type="curve" smooth="yes"/>
      <point x="377" y="1063"/>
      <point x="388" y="1050"/>
      <point x="388" y="1030" type="curve" smooth="yes"/>
      <point x="388" y="994"/>
      <point x="289" y="972"/>
      <point x="199" y="972" type="curve"/>
      <point x="199" y="907"/>
      <point x="210" y="826"/>
      <point x="221" y="796" type="curve"/>
      <point x="376" y="796"/>
      <point x="417" y="772"/>
      <point x="417" y="749" type="curve" smooth="yes"/>
      <point x="417" y="724"/>
      <point x="395" y="711"/>
      <point x="362" y="711" type="curve" smooth="yes"/>
      <point x="305" y="711"/>
      <point x="267" y="740"/>
      <point x="253" y="759" type="curve"/>
      <point x="197" y="737"/>
      <point x="93" y="677"/>
      <point x="39" y="641" type="curve"/>
      <point x="80" y="557"/>
      <point x="189" y="498"/>
    </contour>
  </outline>
</glyph>
<glyph name="micro" format="2">
  <advance width="1178"/>
  <unicode hex="00B5"/>
  <anchor x="569" y="0" name="bottom"/>
  <anchor x="816" y="0" name="ogonek"/>
  <anchor x="569" y="1063" name="top"/>
  <anchor x="1073" y="902" name="topright"/>
  <outline>
    <contour>
      <point x="127" y="-431" type="curve"/>
      <point x="240" y="-431"/>
      <point x="387" y="-422"/>
      <point x="467" y="-411" type="curve"/>
      <point x="454" y="-282"/>
      <point x="443" y="-120"/>
      <point x="443" y="21" type="curve" smooth="yes"/>
      <point x="443" y="253"/>
      <point x="446" y="480"/>
      <point x="457" y="719" type="curve"/>
      <point x="56" y="757" type="line"/>
      <point x="56" y="550"/>
      <point x="87" y="-64"/>
    </contour>
    <component base="u"/>
  </outline>
</glyph>
<glyph name="paragraph" format="2">
  <advance width="1210"/>
  <unicode hex="00B6"/>
  <outline>
    <contour>
      <point x="1119" y="-371" type="curve"/>
      <point x="1159" y="-101"/>
      <point x="1179" y="280"/>
      <point x="1179" y="608" type="curve" smooth="yes"/>
      <point x="1179" y="831"/>
      <point x="1170" y="1029"/>
      <point x="1151" y="1153" type="curve"/>
      <point x="1033" y="1243"/>
      <point x="713" y="1314"/>
      <point x="522" y="1314" type="curve" smooth="yes"/>
      <point x="191" y="1314"/>
      <point x="17" y="1127"/>
      <point x="17" y="833" type="curve" smooth="yes"/>
      <point x="17" y="622"/>
      <point x="143" y="392"/>
      <point x="336" y="392" type="curve" smooth="yes"/>
      <point x="362" y="392"/>
      <point x="388" y="398"/>
      <point x="412" y="409" type="curve"/>
      <point x="407" y="336"/>
      <point x="381" y="-108"/>
      <point x="373" y="-299" type="curve"/>
      <point x="403" y="-301"/>
      <point x="630" y="-309"/>
      <point x="708" y="-309" type="curve"/>
      <point x="708" y="-203"/>
      <point x="734" y="454"/>
      <point x="762" y="969" type="curve"/>
      <point x="805" y="963"/>
      <point x="842" y="952"/>
      <point x="878" y="939" type="curve"/>
      <point x="885" y="847"/>
      <point x="889" y="746"/>
      <point x="889" y="642" type="curve" smooth="yes"/>
      <point x="889" y="320"/>
      <point x="858" y="-151"/>
      <point x="824" y="-338" type="curve"/>
      <point x="856" y="-343"/>
      <point x="1046" y="-371"/>
    </contour>
  </outline>
</glyph>
<glyph name="periodcentered" format="2">
  <advance width="450"/>
  <unicode hex="00B7"/>
  <outline>
    <contour>
      <point x="210" y="648" type="curve" smooth="yes"/>
      <point x="316" y="648"/>
      <point x="412" y="737"/>
      <point x="412" y="843" type="curve" smooth="yes"/>
      <point x="412" y="943"/>
      <point x="341" y="1036"/>
      <point x="224" y="1036" type="curve" smooth="yes"/>
      <point x="111" y="1036"/>
      <point x="15" y="951"/>
      <point x="15" y="843" type="curve" smooth="yes"/>
      <point x="15" y="737"/>
      <point x="70" y="648"/>
    </contour>
  </outline>
</glyph>
<glyph name="onesuperior" format="2">
  <advance width="573"/>
  <unicode hex="00B9"/>
  <outline>
    <contour>
      <point x="388" y="749" type="curve"/>
      <point x="397" y="865"/>
      <point x="400" y="983"/>
      <point x="400" y="1067" type="curve" smooth="yes"/>
      <point x="400" y="1171"/>
      <point x="396" y="1221"/>
      <point x="390" y="1264" type="curve"/>
      <point x="340" y="1273"/>
      <point x="226" y="1278"/>
      <point x="175" y="1278" type="curve"/>
      <point x="132" y="1245"/>
      <point x="32" y="1160"/>
      <point x="-3" y="1120" type="curve"/>
      <point x="17" y="1072"/>
      <point x="53" y="1005"/>
      <point x="87" y="952" type="curve"/>
      <point x="96" y="958"/>
      <point x="132" y="981"/>
      <point x="153" y="992" type="curve"/>
      <point x="153" y="919"/>
      <point x="153" y="815"/>
      <point x="153" y="737" type="curve"/>
      <point x="130" y="734"/>
      <point x="84" y="727"/>
      <point x="57" y="720" type="curve"/>
      <point x="48" y="670"/>
      <point x="45" y="555"/>
      <point x="45" y="493" type="curve"/>
      <point x="91" y="498"/>
      <point x="387" y="505"/>
      <point x="456" y="505" type="curve"/>
      <point x="462" y="544"/>
      <point x="470" y="705"/>
      <point x="470" y="739" type="curve"/>
      <point x="448" y="745"/>
      <point x="413" y="749"/>
    </contour>
  </outline>
</glyph>
<glyph name="ordmasculine" format="2">
  <advance width="750"/>
  <unicode hex="00BA"/>
  <outline>
    <contour>
      <point x="375" y="768" type="curve" smooth="yes"/>
      <point x="584" y="768"/>
      <point x="696" y="889"/>
      <point x="696" y="1074" type="curve" smooth="yes"/>
      <point x="696" y="1281"/>
      <point x="588" y="1431"/>
      <point x="387" y="1431" type="curve" smooth="yes"/>
      <point x="179" y="1431"/>
      <point x="32" y="1326"/>
      <point x="32" y="1098" type="curve" smooth="yes"/>
      <point x="32" y="882"/>
      <point x="155" y="768"/>
    </contour>
    <contour>
      <point x="366" y="1022" type="curve" smooth="yes"/>
      <point x="319" y="1022"/>
      <point x="295" y="1069"/>
      <point x="295" y="1126" type="curve" smooth="yes"/>
      <point x="295" y="1163"/>
      <point x="310" y="1231"/>
      <point x="373" y="1231" type="curve" smooth="yes"/>
      <point x="416" y="1231"/>
      <point x="452" y="1188"/>
      <point x="452" y="1122" type="curve" smooth="yes"/>
      <point x="452" y="1044"/>
      <point x="404" y="1022"/>
    </contour>
  </outline>
</glyph>
<glyph name="guillemetright" format="2">
  <advance width="1313"/>
  <unicode hex="00BB"/>
  <outline>
    <contour>
      <point x="48" y="925" type="curve"/>
      <point x="134" y="862"/>
      <point x="290" y="758"/>
      <point x="383" y="697" type="curve"/>
      <point x="267" y="609"/>
      <point x="107" y="487"/>
      <point x="91" y="474" type="curve"/>
      <point x="91" y="414"/>
      <point x="142" y="260"/>
      <point x="176" y="200" type="curve"/>
      <point x="376" y="325"/>
      <point x="608" y="511"/>
      <point x="773" y="689" type="curve"/>
      <point x="674" y="817"/>
      <point x="383" y="1091"/>
      <point x="330" y="1121" type="curve"/>
      <point x="270" y="1091"/>
      <point x="134" y="992"/>
    </contour>
    <contour>
      <point x="533" y="1026" type="curve"/>
      <point x="619" y="963"/>
      <point x="784" y="804"/>
      <point x="884" y="701" type="curve"/>
      <point x="774" y="574"/>
      <point x="608" y="399"/>
      <point x="537" y="337" type="curve"/>
      <point x="559" y="289"/>
      <point x="667" y="162"/>
      <point x="697" y="132" type="curve"/>
      <point x="911" y="303"/>
      <point x="1104" y="487"/>
      <point x="1287" y="689" type="curve"/>
      <point x="1258" y="723"/>
      <point x="884" y="1122"/>
      <point x="783" y="1190" type="curve"/>
      <point x="728" y="1162"/>
      <point x="608" y="1080"/>
    </contour>
  </outline>
</glyph>
<glyph name="questiondown" format="2">
  <advance width="1036"/>
  <unicode hex="00BF"/>
  <outline>
    <contour>
      <point x="315" y="625" type="curve"/>
      <point x="309" y="502"/>
      <point x="240" y="390"/>
      <point x="164" y="322" type="curve" smooth="yes"/>
      <point x="76" y="243"/>
      <point x="2" y="167"/>
      <point x="2" y="-15" type="curve" smooth="yes"/>
      <point x="2" y="-261"/>
      <point x="228" y="-379"/>
      <point x="494" y="-379" type="curve" smooth="yes"/>
      <point x="747" y="-379"/>
      <point x="975" y="-247"/>
      <point x="1031" y="-22" type="curve"/>
      <point x="718" y="163" type="line"/>
      <point x="660" y="20"/>
      <point x="579" y="-31"/>
      <point x="500" y="-31" type="curve" smooth="yes"/>
      <point x="454" y="-31"/>
      <point x="413" y="-8"/>
      <point x="413" y="35" type="curve" smooth="yes"/>
      <point x="413" y="82"/>
      <point x="460" y="128"/>
      <point x="523" y="186" type="curve" smooth="yes"/>
      <point x="649" y="302"/>
      <point x="730" y="424"/>
      <point x="730" y="606" type="curve"/>
      <point x="587" y="620"/>
      <point x="490" y="625"/>
    </contour>
    <contour>
      <point x="498" y="1103" type="curve" smooth="yes"/>
      <point x="369" y="1103"/>
      <point x="257" y="1007"/>
      <point x="257" y="883" type="curve" smooth="yes"/>
      <point x="257" y="769"/>
      <point x="366" y="690"/>
      <point x="506" y="690" type="curve" smooth="yes"/>
      <point x="628" y="690"/>
      <point x="740" y="790"/>
      <point x="740" y="898" type="curve" smooth="yes"/>
      <point x="740" y="1029"/>
      <point x="626" y="1103"/>
    </contour>
  </outline>
</glyph>
<glyph name="AE" format="2">
  <advance width="1762"/>
  <unicode hex="00C6"/>
  <anchor x="876" y="0" name="bottom"/>
  <anchor x="987" y="1291" name="top"/>
  <outline>
    <contour>
      <point x="1620" y="-47" type="curve"/>
      <point x="1632" y="-10"/>
      <point x="1659" y="235"/>
      <point x="1659" y="368" type="curve"/>
      <point x="1610" y="372"/>
      <point x="1530" y="378"/>
      <point x="1448" y="378" type="curve" smooth="yes"/>
      <point x="1368" y="378"/>
      <point x="1289" y="378"/>
      <point x="1209" y="378" type="curve"/>
      <point x="1209" y="400"/>
      <point x="1212" y="478"/>
      <point x="1214" y="505" type="curve"/>
      <point x="1249" y="505"/>
      <point x="1540" y="491"/>
      <point x="1584" y="488" type="curve"/>
      <point x="1591" y="828" type="line"/>
      <point x="1504" y="826"/>
      <point x="1302" y="823"/>
      <point x="1223" y="823" type="curve"/>
      <point x="1223" y="842"/>
      <point x="1223" y="929"/>
      <point x="1226" y="946" type="curve"/>
      <point x="1649" y="977" type="line"/>
      <point x="1659" y="1091"/>
      <point x="1667" y="1194"/>
      <point x="1667" y="1298" type="curve"/>
      <point x="1596" y="1298"/>
      <point x="723" y="1232"/>
      <point x="577" y="1216" type="curve"/>
      <point x="389" y="874"/>
      <point x="76" y="251"/>
      <point x="-33" y="-4" type="curve"/>
      <point x="69" y="-9"/>
      <point x="316" y="-16"/>
      <point x="389" y="-16" type="curve"/>
      <point x="414" y="51"/>
      <point x="463" y="164"/>
      <point x="515" y="269" type="curve"/>
      <point x="554" y="277"/>
      <point x="757" y="283"/>
      <point x="861" y="285" type="curve"/>
      <point x="861" y="175"/>
      <point x="858" y="73"/>
      <point x="852" y="-16" type="curve"/>
      <point x="1038" y="-16"/>
      <point x="1410" y="-33"/>
    </contour>
    <contour>
      <point x="645" y="594" type="curve"/>
      <point x="663" y="642"/>
      <point x="742" y="847"/>
      <point x="778" y="926" type="curve"/>
      <point x="795" y="928"/>
      <point x="852" y="932"/>
      <point x="877" y="932" type="curve"/>
      <point x="871" y="908"/>
      <point x="855" y="654"/>
      <point x="855" y="605" type="curve"/>
      <point x="816" y="605"/>
      <point x="673" y="598"/>
    </contour>
  </outline>
</glyph>
<glyph name="Ccedilla" format="2">
  <advance width="1137"/>
  <unicode hex="00C7"/>
  <anchor x="569" y="0" name="bottom"/>
  <anchor x="569" y="1291" name="top"/>
  <outline>
    <contour>
      <point x="536" y="-527" type="curve" smooth="yes"/>
      <point x="770" y="-527"/>
      <point x="988" y="-443"/>
      <point x="988" y="-258" type="curve" smooth="yes"/>
      <point x="988" y="-125"/>
      <point x="913" y="-67"/>
      <point x="807" y="-67" type="curve" smooth="yes"/>
      <point x="737" y="-67"/>
      <point x="681" y="-95"/>
      <point x="657" y="-129" type="curve"/>
      <point x="681" y="19" type="line"/>
      <point x="462" y="7" type="line"/>
      <point x="406" y="-247" type="line"/>
      <point x="441" y="-234"/>
      <point x="524" y="-219"/>
      <point x="601" y="-219" type="curve" smooth="yes"/>
      <point x="668" y="-219"/>
      <point x="722" y="-230"/>
      <point x="722" y="-266" type="curve" smooth="yes"/>
      <point x="722" y="-306"/>
      <point x="657" y="-327"/>
      <point x="539" y="-327" type="curve" smooth="yes"/>
      <point x="506" y="-327"/>
      <point x="422" y="-315"/>
      <point x="393" y="-302" type="curve"/>
      <point x="329" y="-505" type="line"/>
      <point x="349" y="-510"/>
      <point x="431" y="-527"/>
    </contour>
    <component base="C"/>
  </outline>
</glyph>
<glyph name="Eth" format="2">
  <advance width="1198"/>
  <unicode hex="00D0"/>
  <anchor x="599" y="0" name="bottom"/>
  <anchor x="304" y="646" name="center"/>
  <anchor x="533" y="1291" name="top"/>
  <outline>
    <contour>
      <point x="610" y="553" type="curve"/>
      <point x="610" y="644"/>
      <point x="602" y="736"/>
      <point x="599" y="768" type="curve"/>
      <point x="479" y="768"/>
      <point x="139" y="740"/>
      <point x="3" y="710" type="curve"/>
      <point x="3" y="648"/>
      <point x="8" y="589"/>
      <point x="16" y="525" type="curve"/>
      <point x="198" y="543"/>
      <point x="506" y="553"/>
    </contour>
    <component base="D"/>
  </outline>
</glyph>
<glyph name="multiply" format="2">
  <advance width="1041"/>
  <unicode hex="00D7"/>
  <outline>
    <contour>
      <point x="1009" y="897" type="curve"/>
      <point x="989" y="921"/>
      <point x="792" y="1133"/>
      <point x="760" y="1159" type="curve"/>
      <point x="655" y="1031"/>
      <point x="193" y="574"/>
      <point x="52" y="470" type="curve"/>
      <point x="79" y="433"/>
      <point x="243" y="265"/>
      <point x="283" y="238" type="curve"/>
      <point x="511" y="393"/>
      <point x="925" y="778"/>
    </contour>
    <contour>
      <point x="303" y="1138" type="curve"/>
      <point x="275" y="1119"/>
      <point x="67" y="883"/>
      <point x="41" y="852" type="curve"/>
      <point x="163" y="768"/>
      <point x="597" y="407"/>
      <point x="761" y="231" type="curve"/>
      <point x="799" y="258"/>
      <point x="973" y="421"/>
      <point x="1002" y="468" type="curve"/>
      <point x="794" y="699"/>
      <point x="454" y="1020"/>
    </contour>
  </outline>
</glyph>
<glyph name="Oslash" format="2">
  <advance width="1354"/>
  <unicode hex="00D8"/>
  <anchor x="677" y="0" name="bottom"/>
  <anchor x="608" y="1349" name="top"/>
  <anchor x="610" y="646" name="center"/>
  <anchor x="917" y="0" name="ogonek"/>
  <anchor x="20" y="1291" name="topleft"/>
  <anchor x="1001" y="1190" name="topright"/>
  <outline>
    <contour>
      <point x="888" y="1419" type="curve"/>
      <point x="755" y="869"/>
      <point x="374" y="328"/>
      <point x="93" y="10" type="curve"/>
      <point x="157" y="-54"/>
      <point x="232" y="-97"/>
      <point x="343" y="-122" type="curve"/>
      <point x="576" y="143"/>
      <point x="960" y="631"/>
      <point x="1151" y="1301" type="curve"/>
      <point x="1106" y="1354"/>
      <point x="1013" y="1408"/>
    </contour>
    <component base="O"/>
  </outline>
</glyph>
<glyph name="Thorn" format="2">
  <advance width="1316"/>
  <unicode hex="00DE"/>
  <outline>
    <contour>
      <point x="409" y="1282" type="curve"/>
      <point x="217" y="1282"/>
      <point x="68" y="1265"/>
      <point x="48" y="1262" type="curve"/>
      <point x="66" y="1017"/>
      <point x="79" y="191"/>
      <point x="79" y="-22" type="curve"/>
      <point x="206" y="-22"/>
      <point x="405" y="-12"/>
      <point x="506" y="7" type="curve"/>
      <point x="506" y="234"/>
      <point x="444" y="1046"/>
    </contour>
    <contour>
      <point x="393" y="727" type="line"/>
      <point x="456" y="755"/>
      <point x="556" y="791"/>
      <point x="684" y="791" type="curve" smooth="yes"/>
      <point x="797" y="791"/>
      <point x="878" y="763"/>
      <point x="878" y="672" type="curve" smooth="yes"/>
      <point x="878" y="571"/>
      <point x="772" y="547"/>
      <point x="631" y="547" type="curve" smooth="yes"/>
      <point x="549" y="547"/>
      <point x="468" y="555"/>
      <point x="419" y="561" type="curve"/>
      <point x="405" y="209" type="line"/>
      <point x="479" y="199"/>
      <point x="556" y="194"/>
      <point x="633" y="194" type="curve" smooth="yes"/>
      <point x="945" y="194"/>
      <point x="1253" y="299"/>
      <point x="1253" y="632" type="curve" smooth="yes"/>
      <point x="1253" y="983"/>
      <point x="971" y="1129"/>
      <point x="652" y="1129" type="curve" smooth="yes"/>
      <point x="535" y="1129"/>
      <point x="416" y="1103"/>
      <point x="351" y="1083" type="curve"/>
    </contour>
  </outline>
</glyph>
<glyph name="germandbls" format="2">
  <advance width="1144"/>
  <unicode hex="00DF"/>
  <anchor x="572" y="0" name="bottom"/>
  <anchor x="513" y="1372" name="top"/>
  <outline>
    <contour>
      <point x="146" y="-5" type="curve"/>
      <point x="489" y="53" type="line"/>
      <point x="475" y="141"/>
      <point x="386" y="785"/>
      <point x="386" y="1021" type="curve" smooth="yes"/>
      <point x="386" y="1114"/>
      <point x="472" y="1114"/>
      <point x="509" y="1114" type="curve" smooth="yes"/>
      <point x="580" y="1114"/>
      <point x="641" y="1054"/>
      <point x="641" y="998" type="curve" smooth="yes"/>
      <point x="641" y="945"/>
      <point x="602" y="901"/>
      <point x="564" y="859" type="curve" smooth="yes"/>
      <point x="526" y="818"/>
      <point x="489" y="778"/>
      <point x="489" y="726" type="curve" smooth="yes"/>
      <point x="489" y="645"/>
      <point x="535" y="604"/>
      <point x="572" y="584" type="curve" smooth="yes"/>
      <point x="701" y="514"/>
      <point x="811" y="440"/>
      <point x="811" y="354" type="curve" smooth="yes"/>
      <point x="811" y="325"/>
      <point x="799" y="295"/>
      <point x="763" y="295" type="curve" smooth="yes"/>
      <point x="723" y="295"/>
      <point x="680" y="326"/>
      <point x="642" y="354" type="curve"/>
      <point x="530" y="65" type="line"/>
      <point x="563" y="34"/>
      <point x="641" y="-10"/>
      <point x="779" y="-10" type="curve" smooth="yes"/>
      <point x="989" y="-10"/>
      <point x="1115" y="153"/>
      <point x="1115" y="355" type="curve" smooth="yes"/>
      <point x="1115" y="506"/>
      <point x="1026" y="616"/>
      <point x="936" y="669" type="curve" smooth="yes"/>
      <point x="889" y="697"/>
      <point x="832" y="731"/>
      <point x="832" y="773" type="curve" smooth="yes"/>
      <point x="832" y="793"/>
      <point x="852" y="817"/>
      <point x="877" y="847" type="curve" smooth="yes"/>
      <point x="915" y="894"/>
      <point x="965" y="957"/>
      <point x="965" y="1043" type="curve" smooth="yes"/>
      <point x="965" y="1252"/>
      <point x="760" y="1415"/>
      <point x="518" y="1415" type="curve" smooth="yes"/>
      <point x="268" y="1415"/>
      <point x="30" y="1291"/>
      <point x="30" y="988" type="curve" smooth="yes"/>
      <point x="30" y="726"/>
      <point x="117" y="104"/>
    </contour>
  </outline>
</glyph>
<glyph name="ae" format="2">
  <advance width="1762"/>
  <unicode hex="00E6"/>
  <anchor x="939" y="0" name="bottom"/>
  <anchor x="939" y="1063" name="top"/>
  <anchor x="1501" y="14" name="ogonek"/>
  <outline>
    <contour>
      <point x="538" y="-18" type="curve" smooth="yes"/>
      <point x="835" y="-18"/>
      <point x="1083" y="190"/>
      <point x="1083" y="462" type="curve" smooth="yes"/>
      <point x="1083" y="632"/>
      <point x="1052" y="806"/>
      <point x="922" y="957" type="curve" smooth="yes"/>
      <point x="821" y="1074"/>
      <point x="674" y="1115"/>
      <point x="538" y="1115" type="curve" smooth="yes"/>
      <point x="374" y="1115"/>
      <point x="162" y="1039"/>
      <point x="69" y="952" type="curve"/>
      <point x="303" y="727" type="line"/>
      <point x="350" y="768"/>
      <point x="462" y="798"/>
      <point x="541" y="798" type="curve" smooth="yes"/>
      <point x="620" y="798"/>
      <point x="667" y="772"/>
      <point x="693" y="734" type="curve" smooth="yes"/>
      <point x="709" y="711"/>
      <point x="715" y="682"/>
      <point x="715" y="653" type="curve"/>
      <point x="684" y="677"/>
      <point x="585" y="684"/>
      <point x="532" y="684" type="curve" smooth="yes"/>
      <point x="296" y="684"/>
      <point x="40" y="604"/>
      <point x="40" y="364" type="curve" smooth="yes"/>
      <point x="40" y="111"/>
      <point x="276" y="-18"/>
    </contour>
    <contour>
      <point x="523" y="272" type="curve" smooth="yes"/>
      <point x="464" y="272"/>
      <point x="404" y="275"/>
      <point x="404" y="338" type="curve" smooth="yes"/>
      <point x="404" y="406"/>
      <point x="532" y="428"/>
      <point x="622" y="428" type="curve" smooth="yes"/>
      <point x="661" y="428"/>
      <point x="699" y="422"/>
      <point x="730" y="408" type="curve"/>
      <point x="733" y="391"/>
      <point x="734" y="368"/>
      <point x="734" y="343" type="curve" smooth="yes"/>
      <point x="734" y="313"/>
      <point x="655" y="272"/>
    </contour>
    <component base="e" xOffset="725"/>
  </outline>
</glyph>
<glyph name="ccedilla" format="2">
  <advance width="1026"/>
  <unicode hex="00E7"/>
  <anchor x="513" y="0" name="bottom"/>
  <anchor x="513" y="1063" name="top"/>
  <outline>
    <contour>
      <point x="474" y="-497" type="curve" smooth="yes"/>
      <point x="708" y="-497"/>
      <point x="926" y="-413"/>
      <point x="926" y="-228" type="curve" smooth="yes"/>
      <point x="926" y="-95"/>
      <point x="851" y="-37"/>
      <point x="745" y="-37" type="curve" smooth="yes"/>
      <point x="675" y="-37"/>
      <point x="619" y="-65"/>
      <point x="595" y="-99" type="curve"/>
      <point x="619" y="19" type="line"/>
      <point x="400" y="7" type="line"/>
      <point x="344" y="-217" type="line"/>
      <point x="379" y="-204"/>
      <point x="462" y="-189"/>
      <point x="539" y="-189" type="curve" smooth="yes"/>
      <point x="606" y="-189"/>
      <point x="660" y="-200"/>
      <point x="660" y="-236" type="curve" smooth="yes"/>
      <point x="660" y="-276"/>
      <point x="595" y="-297"/>
      <point x="477" y="-297" type="curve" smooth="yes"/>
      <point x="444" y="-297"/>
      <point x="360" y="-285"/>
      <point x="331" y="-272" type="curve"/>
      <point x="267" y="-475" type="line"/>
      <point x="287" y="-480"/>
      <point x="369" y="-497"/>
    </contour>
    <component base="c"/>
  </outline>
</glyph>
<glyph name="eth" format="2">
  <advance width="1200"/>
  <unicode hex="00F0"/>
  <outline>
    <contour>
      <point x="598" y="-17" type="curve" smooth="yes"/>
      <point x="887" y="-17"/>
      <point x="1123" y="197"/>
      <point x="1123" y="475" type="curve" smooth="yes"/>
      <point x="1123" y="867"/>
      <point x="969" y="1055"/>
      <point x="675" y="1188" type="curve"/>
      <point x="699" y="1239"/>
      <point x="714" y="1271"/>
      <point x="730" y="1321" type="curve"/>
      <point x="459" y="1412" type="line"/>
      <point x="441" y="1366"/>
      <point x="427" y="1333"/>
      <point x="406" y="1292" type="curve"/>
      <point x="371" y="1304"/>
      <point x="285" y="1325"/>
      <point x="227" y="1330" type="curve"/>
      <point x="78" y="1075" type="line"/>
      <point x="142" y="1063"/>
      <point x="206" y="1048"/>
      <point x="253" y="1032" type="curve"/>
      <point x="236" y="1005"/>
      <point x="227" y="991"/>
      <point x="184" y="949" type="curve"/>
      <point x="236" y="926"/>
      <point x="346" y="877"/>
      <point x="427" y="836" type="curve"/>
      <point x="461" y="870"/>
      <point x="499" y="910"/>
      <point x="530" y="950" type="curve"/>
      <point x="560" y="938"/>
      <point x="649" y="874"/>
      <point x="689" y="826" type="curve"/>
      <point x="673" y="832"/>
      <point x="637" y="839"/>
      <point x="605" y="839" type="curve" smooth="yes"/>
      <point x="320" y="839"/>
      <point x="90" y="660"/>
      <point x="90" y="387" type="curve" smooth="yes"/>
      <point x="90" y="94"/>
      <point x="318" y="-17"/>
    </contour>
    <contour>
      <point x="600" y="297" type="curve" smooth="yes"/>
      <point x="522" y="297"/>
      <point x="426" y="334"/>
      <point x="426" y="421" type="curve" smooth="yes"/>
      <point x="426" y="527"/>
      <point x="518" y="583"/>
      <point x="624" y="583" type="curve" smooth="yes"/>
      <point x="720" y="583"/>
      <point x="777" y="529"/>
      <point x="777" y="442" type="curve" smooth="yes"/>
      <point x="777" y="327"/>
      <point x="673" y="297"/>
    </contour>
  </outline>
</glyph>
<glyph name="divide" format="2">
  <advance width="916"/>
  <unicode hex="00F7"/>
  <outline>
    <contour>
      <point x="434" y="817" type="curve" smooth="yes"/>
      <point x="549" y="817"/>
      <point x="650" y="904"/>
      <point x="650" y="1026" type="curve" smooth="yes"/>
      <point x="650" y="1162"/>
      <point x="555" y="1268"/>
      <point x="422" y="1268" type="curve" smooth="yes"/>
      <point x="295" y="1268"/>
      <point x="179" y="1169"/>
      <point x="179" y="1043" type="curve" smooth="yes"/>
      <point x="179" y="912"/>
      <point x="303" y="817"/>
    </contour>
    <contour>
      <point x="441" y="19" type="curve" smooth="yes"/>
      <point x="560" y="19"/>
      <point x="662" y="103"/>
      <point x="662" y="223" type="curve" smooth="yes"/>
      <point x="662" y="358"/>
      <point x="572" y="465"/>
      <point x="439" y="465" type="curve" smooth="yes"/>
      <point x="309" y="465"/>
      <point x="211" y="351"/>
      <point x="211" y="223" type="curve" smooth="yes"/>
      <point x="211" y="110"/>
      <point x="312" y="19"/>
    </contour>
    <contour>
      <point x="27" y="513" type="curve"/>
      <point x="143" y="515"/>
      <point x="727" y="525"/>
      <point x="822" y="525" type="curve"/>
      <point x="822" y="596"/>
      <point x="808" y="694"/>
      <point x="800" y="747" type="curve"/>
      <point x="708" y="758"/>
      <point x="578" y="763"/>
      <point x="441" y="763" type="curve" smooth="yes"/>
      <point x="306" y="763"/>
      <point x="165" y="758"/>
      <point x="46" y="747" type="curve"/>
      <point x="39" y="715"/>
      <point x="31" y="600"/>
    </contour>
  </outline>
</glyph>
<glyph name="oslash" format="2">
  <advance width="1190"/>
  <unicode hex="00F8"/>
  <anchor x="595" y="1063" name="top"/>
  <anchor x="585" y="0" name="bottom"/>
  <anchor x="585" y="532" name="center"/>
  <anchor x="738" y="0" name="ogonek"/>
  <anchor x="879" y="941" name="topright"/>
  <outline>
    <contour>
      <point x="1072" y="1063" type="curve"/>
      <point x="1042" y="1085"/>
      <point x="980" y="1117"/>
      <point x="926" y="1144" type="curve"/>
      <point x="765" y="862"/>
      <point x="262" y="259"/>
      <point x="47" y="17" type="curve"/>
      <point x="79" y="-26"/>
      <point x="137" y="-70"/>
      <point x="172" y="-90" type="curve"/>
      <point x="373" y="95"/>
      <point x="860" y="637"/>
    </contour>
    <component base="o"/>
  </outline>
</glyph>
